<?xml version="1.0" encoding="UTF-8" standalone="no"?>
<svg width="100px" height="100px" viewBox="0 0 100 100" version="1.1" xmlns="http://www.w3.org/2000/svg" xmlns:xlink="http://www.w3.org/1999/xlink" xmlns:sketch="http://www.bohemiancoding.com/sketch/ns">
    <!-- Generator: Sketch 3.0.3 (7892) - http://www.bohemiancoding.com/sketch -->
    <title>user</title>
    <desc>Created with Sketch.</desc>
    <defs></defs>
    <g id="Page-1" stroke="none" stroke-width="1" fill="none" fill-rule="evenodd" sketch:type="MSPage">
        <g id="user" sketch:type="MSArtboardGroup">
            <g id="profile27" sketch:type="MSLayerGroup">
                <circle id="Oval-1" fill="#FFFFFF" sketch:type="MSShapeGroup" cx="50" cy="50" r="40"></circle>
                <path d="M49.4913043,0.00217391304 C22.1608696,0.00217391304 0,22.1586957 0,49.4913043 C0,76.823913 22.1586957,98.9804348 49.4913043,98.9804348 C76.826087,98.9804348 98.9826087,76.823913 98.9826087,49.4913043 C98.9826087,22.1586957 76.826087,0.00217391304 49.4913043,0.00217391304 L49.4913043,0.00217391304 Z M49.4913043,14.8 C58.5347826,14.8 65.8630435,22.1304348 65.8630435,31.1695652 C65.8630435,40.2108696 58.5347826,47.5391304 49.4913043,47.5391304 C40.4521739,47.5391304 33.123913,40.2108696 33.123913,31.1695652 C33.123913,22.1304348 40.4521739,14.8 49.4913043,14.8 L49.4913043,14.8 Z M49.4804348,86.0413043 C40.4608696,86.0413043 32.2,82.7565217 25.8282609,77.3195652 C24.276087,75.9956522 23.3804348,74.0543478 23.3804348,72.0173913 C23.3804348,62.85 30.8,55.5130435 39.9695652,55.5130435 L59.0173913,55.5130435 C68.1891304,55.5130435 75.5804348,62.85 75.5804348,72.0173913 C75.5804348,74.0565217 74.6891304,75.9934783 73.1347826,77.3173913 C66.7652174,82.7565217 58.5021739,86.0413043 49.4804348,86.0413043 L49.4804348,86.0413043 Z" id="Shape" fill="#E0E0E0" sketch:type="MSShapeGroup"></path>
            </g>
        </g>
    </g>
</svg>