<?xml version="1.0" encoding="UTF-8" standalone="no"?>
<svg width="88px" height="112px" viewBox="0 0 88 112" version="1.1" xmlns="http://www.w3.org/2000/svg" xmlns:xlink="http://www.w3.org/1999/xlink" xmlns:sketch="http://www.bohemiancoding.com/sketch/ns">
    <!-- Generator: Sketch 3.0.3 (7892) - http://www.bohemiancoding.com/sketch -->
    <title>VIdeo</title>
    <desc>Created with Sketch.</desc>
    <defs></defs>
    <g id="Page-1" stroke="none" stroke-width="1" fill="none" fill-rule="evenodd" sketch:type="MSPage">
        <g id="VIdeo" sketch:type="MSArtboardGroup">
            <g id="Group-2" sketch:type="MSLayerGroup">
                <path d="M68,0.167772786 L1.99828427,0.00493026059 C0.894662343,0.00220735286 0,0.901537657 0,1.99150398 L0,110.008496 C0,111.108373 0.899631158,112 2.00334454,112 L85.9966555,112 C87.1030721,112 88,111.104253 88,109.99289 L88,20 L68,0.167772786 Z" id="Rectangle-10" fill="#DC2725" sketch:type="MSShapeGroup"></path>
                <path d="M68,0 L68,20 L88,20 L68,0 Z" id="Rectangle-3" fill="#FF4745" sketch:type="MSShapeGroup"></path>
                <path d="M68,20 L68,40 L88,40 L68,20 Z" id="Rectangle-9" fill="#C40200" sketch:type="MSShapeGroup" transform="translate(78.000000, 30.000000) scale(-1, -1) translate(-78.000000, -30.000000) "></path>
            </g>
            <path d="M20.5,70.2857143 L20.5,51.4285714 C20.5,49.3035608 21.2544567,47.4866147 22.7633929,45.9776786 C24.272329,44.4687425 26.0892751,43.7142857 28.2142857,43.7142857 L47.0714286,43.7142857 C49.1964392,43.7142857 51.0133853,44.4687425 52.5223214,45.9776786 C54.0312575,47.4866147 54.7857143,49.3035608 54.7857143,51.4285714 L54.7857143,55.8482143 L65.5803571,45.0803571 C65.9017873,44.7410697 66.303569,44.5714286 66.7857143,44.5714286 C67.0000011,44.5714286 67.2232131,44.616071 67.4553571,44.7053571 C68.1517892,45.0089301 68.5,45.5357105 68.5,46.2857143 L68.5,75.4285714 C68.5,76.1785752 68.1517892,76.7053556 67.4553571,77.0089286 C67.2232131,77.0982147 67.0000011,77.1428571 66.7857143,77.1428571 C66.303569,77.1428571 65.9017873,76.973216 65.5803571,76.6339286 L54.7857143,65.8392857 L54.7857143,70.2857143 C54.7857143,72.4107249 54.0312575,74.227671 52.5223214,75.7366071 C51.0133853,77.2455433 49.1964392,78 47.0714286,78 L28.2142857,78 C26.0892751,78 24.272329,77.2455433 22.7633929,75.7366071 C21.2544567,74.227671 20.5,72.4107249 20.5,70.2857143 L20.5,70.2857143 Z" id="Type-something" fill="#FFFFFF" sketch:type="MSShapeGroup"></path>
        </g>
    </g>
</svg>