<?xml version="1.0" encoding="UTF-8"?>
<svg width="493px" height="143px" viewBox="0 0 493 143" version="1.1" xmlns="http://www.w3.org/2000/svg" xmlns:xlink="http://www.w3.org/1999/xlink">
    <!-- Generator: Sketch 3.8.3 (29802) - http://www.bohemiancoding.com/sketch -->
    <title>arts</title>
    <desc>Created with Sketch.</desc>
    <defs></defs>
    <g id="Page-1" stroke="none" stroke-width="1" fill="none" fill-rule="evenodd">
        <g id="arts">
            <g id="Group-14">
                <g id="Group-16" transform="translate(207.000000, 0.000000)">
                    <g id="Group-12">
                        <path d="M3.42277859,4.82691951 L0.188541453,1.30779187 C1.12395495,2.60509509 2.21039401,3.78653853 3.42277859,4.82691951" id="Fill-35" fill="#5FA944"></path>
                        <polygon id="Fill-683" fill="#593B25" points="65.2338666 137.955762 72.220605 137.955762 72.220605 71.2514939 65.2338666 71.2514939"></polygon>
                        <polygon id="Fill-684" fill="#5E3F28" points="68.2905647 137.955762 72.220605 137.955762 72.220605 89.1264939 68.2905647 89.1264939"></polygon>
                        <polygon id="Fill-685" fill="#593B25" points="48.6403629 132.288079 89.2507799 132.288079 89.2507799 126.184421 48.6403629 126.184421"></polygon>
                        <polygon id="Fill-686" fill="#664628" points="55.6271013 129.672226 89.2507799 129.672226 89.2507799 126.184421 55.6271013 126.184421"></polygon>
                        <polygon id="Fill-687" fill="#593B25" points="59.5571416 6.29112805 78.3340012 6.29112805 78.3340012 4.98320122 59.5571416 4.98320122"></polygon>
                        <polyline id="Fill-688" fill="#593B25" points="54.8017928 0.187469512 43.6007411 142.751494 50.5529825 142.751494 60.0156464 0.187469512 54.8017928 0.187469512"></polyline>
                        <polyline id="Fill-689" fill="#593B25" points="82.8033304 0.187469512 94.0035087 142.751494 87.051704 142.751494 77.5890402 0.187469512 82.8033304 0.187469512"></polyline>
                        <polyline id="Fill-690" fill="#664628" points="85.7154903 142.751494 91.6865316 142.751494 82.0671028 0.187469512 55.5375837 0.187469512 55.2157571 5.97068598 45.9181549 142.751494 51.8891962 142.751494 59.7436002 5.41917683 77.8610863 5.41917683 85.7154903 142.751494"></polyline>
                        <polygon id="Fill-691" fill="#E6E6E1" points="41.2169533 81.2789329 101.040901 81.2789329 101.040901 11.0868598 41.2169533 11.0868598"></polygon>
                        <polygon id="Fill-692" fill="#F5F4F2" points="36.8502418 81.2789329 96.6741895 81.2789329 96.6741895 11.0868598 36.8502418 11.0868598"></polygon>
                        <polygon id="Fill-693" fill="#593B25" points="32.0468591 85.2027134 105.407613 85.2027134 105.407613 79.9710061 32.0468591 79.9710061"></polygon>
                        <polygon id="Fill-694" fill="#664628" points="34.2302149 84.7667378 105.407613 84.7667378 105.407613 79.9710061 34.2302149 79.9710061"></polygon>
                    </g>
                    <g id="Group-13" transform="translate(239.235142, 34.466667)">
                        <path d="M27.657911,30.3204412 C25.9350283,25.8721414 19.5652523,18.7838886 13.3790499,12.5898195 L12.6293326,15.5494469 L11.77391,10.997856 C5.60952572,4.94025167 0.057178642,0.102537082 0.057178642,0.102537082 L6.41529316,29.879004 L11.0396158,33.0414436 L6.70457195,31.3099995 L7.42682848,33.0414436 L12.1956025,35.7507598 L8.00500988,34.4716851 L11.4729698,42.4190629 L27.2241809,52.2384964 C27.2241809,52.2384964 29.9740222,36.2996348 27.657911,30.3204412" id="Fill-846" fill="#74C2AD"></path>
                        <path d="M12.1230006,40.8116434 L27.2760931,50.257872 C27.2760931,50.257872 28.4907631,43.2144793 28.5799166,36.8843224 C28.5422991,34.3077012 28.2872523,31.9459556 27.657911,30.3204412 C25.9685078,25.9595995 19.8139042,19.0617189 13.7439399,12.9562388 L13.2353509,14.9624975 L13.0404921,13.9261944 L12.6293326,15.5494469 L11.77391,10.997856 C7.43585669,6.7346506 3.40325772,3.0783743 1.39335322,1.28472932 L7.25754961,28.7477033 L11.7061984,31.7898881 L7.53554314,30.1240375 L7.83986893,30.8531063 L11.0396158,33.0414436 L8.99848878,32.2260477 L12.8181725,34.3962902 L8.7867021,33.1662222 L9.16250121,34.0276091 L12.1956025,35.7507598 L9.5642564,34.947804 L12.1230006,40.8116434" id="Fill-847" fill="#A8D7C6"></path>
                        <path d="M2.94733329,4.69559518 C2.94733329,4.69559518 13.2071378,18.8445815 15.8083898,24.5463218 C18.4092657,30.2480621 25.0570352,46.568045 25.0570352,46.568045 L14.9413058,24.5463218 L2.94733329,4.69559518" id="Fill-848" fill="#D1EAE1"></path>
                        <path d="M30.6165296,63.8036991 C30.6165296,64.0638115 30.473583,64.2477751 30.083113,64.2477751 L21.1790442,64.2477751 C20.7885743,64.2477751 20.4597971,64.0638115 20.4597971,63.8036991 L20.4597971,59.328257 C20.4597971,59.0681446 20.7885743,58.5931566 21.1790442,58.5931566 L30.083113,58.5931566 C30.473583,58.5931566 30.6165296,59.0681446 30.6165296,59.328257 L30.6165296,63.8036991" id="Fill-849" fill="#282640"></path>
                        <path d="M30.6165296,64.0298838 C30.6165296,64.1493847 30.5104481,64.2477751 30.1692572,64.2477751 L22.4019901,64.2477751 C22.0615514,64.2477751 21.9644982,64.1493847 21.9644982,64.0298838 L21.9644982,61.9712257 C21.9644982,61.8517248 22.0615514,61.9859277 22.4019901,61.9859277 L30.1692572,61.9859277 C30.5104481,61.9859277 30.6165296,61.8517248 30.6165296,61.9712257 L30.6165296,64.0298838" id="Fill-850" fill="#2E4163"></path>
                        <path d="M40.3970867,92.5804295 C40.3970867,93.1722795 39.9185918,93.6517912 39.3279966,93.6517912 L10.6198042,93.6517912 C10.029209,93.6517912 9.55071409,93.1722795 9.55071409,92.5804295 L9.55071409,92.4613055 C9.55071409,91.8694554 10.029209,91.3899438 10.6198042,91.3899438 L39.3279966,91.3899438 C39.9185918,91.3899438 40.3970867,91.8694554 40.3970867,92.4613055 L40.3970867,92.5804295" id="Fill-851" fill="#282640"></path>
                        <path d="M44.1588395,90.2846544 C44.1588395,91.72809 42.9915676,92.897842 41.5511925,92.897842 L8.77278362,92.897842 C7.33240849,92.897842 6.1651366,91.72809 6.1651366,90.2846544 L6.1651366,65.3530645 C6.1651366,63.9096289 7.33240849,62.7398768 8.77278362,62.7398768 L41.5511925,62.7398768 C42.9915676,62.7398768 44.1588395,63.9096289 44.1588395,65.3530645 L44.1588395,90.2846544" id="Fill-852" fill="#282640"></path>
                        <path d="M41.625299,62.7398768 L11.8540353,62.7398768 C10.5347886,62.7398768 9.17453881,63.7701483 9.17453881,65.0925751 L9.17453881,87.7419609 C9.17453881,89.0643877 10.5347886,89.8820455 11.8540353,89.8820455 L41.8438569,89.8820455 C43.1634797,89.8820455 44.5350148,89.0643877 44.5350148,87.7419609 L44.5350148,65.3112203 C44.5350148,63.8681617 43.065298,62.7398768 41.625299,62.7398768" id="Fill-853" fill="#2E4163"></path>
                        <polygon id="Fill-854" fill="#F5F4F2" points="6.1651366 86.866249 44.5350148 86.866249 44.5350148 68.7714699 6.1651366 68.7714699"></polygon>
                        <polygon id="Fill-855" fill="#E4E4DF" points="6.1651366 71.4102918 44.5350148 71.4102918 44.5350148 70.2793681 6.1651366 70.2793681"></polygon>
                        <polygon id="Fill-856" fill="#E4E4DF" points="6.1651366 86.1122999 44.5350148 86.1122999 44.5350148 84.6044016 6.1651366 84.6044016"></polygon>
                        <path d="M9.03046144,81.6269157 L9.03046144,73.5371691 L13.5508807,73.5371691 L13.5508807,74.3953381 L10.1783309,74.3953381 L10.1783309,76.9917095 L13.0042762,76.9917095 L13.0042762,77.8389465 L10.1783309,77.8389465 L10.1783309,80.7687467 L13.7859206,80.7687467 L13.7859206,81.6269157 L9.03046144,81.6269157 Z M15.0977715,81.6269157 L15.0977715,73.5371691 L16.2237767,73.5371691 L20.2959803,79.7848586 L20.2959803,73.5371691 L21.2798684,73.5371691 L21.2798684,81.6269157 L20.1593292,81.6269157 L16.0816596,75.3792262 L16.0816596,81.6269157 L15.0977715,81.6269157 Z M26.8333702,81.8291594 C25.5761735,81.8291594 24.6050493,81.4602051 23.9199682,80.7222853 C23.2348871,79.9843655 22.8923517,78.9394503 22.8923517,77.5875084 C22.8923517,76.2392106 23.2412641,75.1933844 23.9390993,74.4499986 C24.6369346,73.7066127 25.6199019,73.3349254 26.8880306,73.3349254 C27.6131962,73.3349254 28.4622468,73.4533552 29.4352076,73.6902183 L29.4352076,74.7670292 C28.327417,74.3844041 27.4729005,74.1930945 26.8716325,74.1930945 C25.9934169,74.1930945 25.3138121,74.4900799 24.8327977,75.0840598 C24.3517833,75.6780397 24.1112798,76.5161582 24.1112798,77.5984405 C24.1112798,78.6297062 24.3681813,79.4432278 24.8819921,80.0390297 C25.3958029,80.6348315 26.0972717,80.932728 26.9864195,80.932728 C27.7516696,80.932728 28.5715682,80.6976904 29.4461397,80.2276082 L29.4461397,81.2114963 C28.6480932,81.6232738 27.7771787,81.8291594 26.8333702,81.8291594 L26.8333702,81.8291594 Z M31.1132835,81.6269157 L31.1132835,73.5371691 L33.5620717,73.5371691 C34.3382539,73.5371691 34.9331359,73.7084368 35.3467354,74.0509773 C35.7603349,74.3935178 35.9671315,74.890923 35.9671315,75.5432076 C35.9671315,76.6218459 35.4223544,77.3870845 34.332784,77.8389465 L37.0330103,81.6269157 L35.6227706,81.6269157 L33.3215657,78.2051715 L32.2502208,78.2051715 L32.2502208,81.6269157 L31.1132835,81.6269157 Z M32.2502208,77.3470025 L32.6219119,77.3470025 C34.064955,77.3470025 34.7864658,76.7803615 34.7864658,75.6470624 C34.7864658,74.8125754 34.1815628,74.3953381 32.9717388,74.3953381 L32.2502208,74.3953381 L32.2502208,77.3470025 Z M38.1918118,81.6269157 L38.1918118,73.5371691 L42.7122311,73.5371691 L42.7122311,74.3953381 L39.3396813,74.3953381 L39.3396813,76.9917095 L42.1656266,76.9917095 L42.1656266,77.8389465 L39.3396813,77.8389465 L39.3396813,80.7687467 L42.947271,80.7687467 L42.947271,81.6269157 L38.1918118,81.6269157 Z" id="ENCRE" fill="#2E4163"></path>
                        <path d="M33.2497565,57.4878672 C33.2497565,58.9313028 32.0824846,60.1010549 30.6421095,60.1010549 L20.0580419,60.1010549 C18.6176668,60.1010549 17.4503949,58.9313028 17.4503949,57.4878672 L17.4503949,52.1589548 C17.4503949,50.7155191 18.6176668,49.5457671 20.0580419,49.5457671 L30.6421095,49.5457671 C32.0824846,49.5457671 33.2497565,50.7155191 33.2497565,52.1589548 L33.2497565,57.4878672" id="Fill-857" fill="#282640"></path>
                        <path d="M30.978034,49.5457671 L22.661551,49.5457671 C21.4939029,49.5457671 20.4597971,50.5813162 20.4597971,51.7514452 L20.4597971,56.4417628 C20.4597971,57.6122688 21.4939029,58.5931566 22.661551,58.5931566 L31.4711998,58.5931566 C32.6388478,58.5931566 33.6259318,57.6122688 33.6259318,56.4417628 L33.6259318,52.2460359 C33.6259318,50.8026003 32.418033,49.5457671 30.978034,49.5457671" id="Fill-858" fill="#2E4163"></path>
                        <path d="M31.7450554,50.8874195 C31.7450554,50.7332369 31.5742718,50.6766908 31.4117641,50.6766908 L31.2737078,50.6766908 C31.1115762,50.6766908 30.9927048,50.7332369 30.9927048,50.8874195 L30.9927048,58.6150212 C30.9927048,58.7692037 31.1115762,58.5931566 31.2737078,58.5931566 L31.4117641,58.5931566 C31.5742718,58.5931566 31.7450554,58.7692037 31.7450554,58.6150212 L31.7450554,50.8874195" id="Fill-859" fill="#282640"></path>
                        <path d="M23.093024,50.8874195 C23.093024,50.7332369 22.8673189,50.6766908 22.7051873,50.6766908 L22.5663787,50.6766908 C22.4046233,50.6766908 22.3406735,50.7332369 22.3406735,50.8874195 L22.3406735,58.6150212 C22.3406735,58.7692037 22.4046233,58.5931566 22.5663787,58.5931566 L22.7051873,58.5931566 C22.8673189,58.5931566 23.093024,58.7692037 23.093024,58.6150212 L23.093024,50.8874195" id="Fill-860" fill="#282640"></path>
                        <path d="M24.5977251,50.8874195 C24.5977251,50.7332369 24.3182269,50.6766908 24.1560954,50.6766908 L24.018039,50.6766908 C23.8559075,50.6766908 23.8453746,50.7332369 23.8453746,50.8874195 L23.8453746,58.6150212 C23.8453746,58.7692037 23.8559075,58.5931566 24.018039,58.5931566 L24.1560954,58.5931566 C24.3182269,58.5931566 24.5977251,58.7692037 24.5977251,58.6150212 L24.5977251,50.8874195" id="Fill-861" fill="#282640"></path>
                        <path d="M21.5883229,50.8874195 C21.5883229,50.7332369 21.4160347,50.6766908 21.2539031,50.6766908 L21.1154706,50.6766908 C20.9533391,50.6766908 20.8359724,50.7332369 20.8359724,50.8874195 L20.8359724,58.6150212 C20.8359724,58.7692037 20.9533391,58.5931566 21.1154706,58.5931566 L21.2539031,58.5931566 C21.4160347,58.5931566 21.5883229,58.7692037 21.5883229,58.6150212 L21.5883229,50.8874195" id="Fill-862" fill="#282640"></path>
                        <path d="M20.0836218,50.8874195 C20.0836218,50.7332369 19.9651266,50.6766908 19.8026189,50.6766908 L19.6645626,50.6766908 C19.502431,50.6766908 19.3312713,50.7332369 19.3312713,50.8874195 L19.3312713,58.6150212 C19.3312713,58.7692037 19.502431,58.5931566 19.6645626,58.5931566 L19.8026189,58.5931566 C19.9651266,58.5931566 20.0836218,58.7692037 20.0836218,58.6150212 L20.0836218,50.8874195" id="Fill-863" fill="#282640"></path>
                        <path d="M25.8380446,50.8874195 C25.8380446,50.7332369 25.8939844,50.6766908 25.684818,50.6766908 L25.5053239,50.6766908 C25.295671,50.6766908 25.3516109,50.7332369 25.3516109,50.8874195 L25.3516109,58.6150212 C25.3516109,58.7692037 25.295671,58.5931566 25.5053239,58.5931566 L25.684818,58.5931566 C25.8939844,58.5931566 25.8380446,58.7692037 25.8380446,58.6150212 L25.8380446,50.8874195" id="Fill-864" fill="#282640"></path>
                        <path d="M27.2309521,50.8874195 C27.2309521,50.7332369 27.2207953,50.6766908 27.0586638,50.6766908 L26.9202313,50.6766908 C26.7580998,50.6766908 26.4786015,50.7332369 26.4786015,50.8874195 L26.4786015,58.6150212 C26.4786015,58.7692037 26.7580998,58.5931566 26.9202313,58.5931566 L27.0586638,58.5931566 C27.2207953,58.5931566 27.2309521,58.7692037 27.2309521,58.6150212 L27.2309521,50.8874195" id="Fill-865" fill="#282640"></path>
                        <path d="M28.7356532,50.8874195 C28.7356532,50.7332369 28.6717034,50.6766908 28.5095718,50.6766908 L28.3715155,50.6766908 C28.209384,50.6766908 27.9833026,50.7332369 27.9833026,50.8874195 L27.9833026,58.6150212 C27.9833026,58.7692037 28.209384,58.5931566 28.3715155,58.5931566 L28.5095718,58.5931566 C28.6717034,58.5931566 28.7356532,58.7692037 28.7356532,58.6150212 L28.7356532,50.8874195" id="Fill-866" fill="#282640"></path>
                        <path d="M30.2403543,50.8874195 C30.2403543,50.7332369 30.1229876,50.6766908 29.9608561,50.6766908 L29.8224236,50.6766908 C29.660292,50.6766908 29.4880037,50.7332369 29.4880037,50.8874195 L29.4880037,58.6150212 C29.4880037,58.7692037 29.660292,58.5931566 29.8224236,58.5931566 L29.9608561,58.5931566 C30.1229876,58.5931566 30.2403543,58.7692037 30.2403543,58.6150212 L30.2403543,50.8874195" id="Fill-867" fill="#282640"></path>
                    </g>
                    <g id="Group-15" transform="translate(128.423773, 38.866667)">
                        <polyline id="Fill-726" fill="#D2CFCB" points="72.5049983 34.3785256 69.3172882 29.4701282 69.9856052 29.0347115 73.1733153 33.943109 72.5049983 34.3785256"></polyline>
                        <polyline id="Fill-727" fill="#E6E6E1" points="72.5049983 34.3785256 69.6070801 29.9164744 69.8299698 29.7712179 72.7275359 34.2332692 72.5049983 34.3785256"></polyline>
                        <polyline id="Fill-728" fill="#70B543" points="33.8105717 69.0172436 33.9669114 68.7253205 73.9867042 39.2079487 74.0363526 39.1776282 65.7161935 26.3665064 65.6362631 26.4204487 22.5301698 50.9980449 22.1442501 51.0533974 33.8105717 69.0172436"></polyline>
                        <path d="M33.7714868,68.9573077 L33.8119802,68.8490705 L33.9214884,68.7662179 L33.9186714,68.7566987 L71.140195,41.2965385 C71.140195,41.2965385 68.7387609,31.4800962 63.0964473,30.8546474 C57.7432212,30.2612821 23.6882807,53.2904167 23.6882807,53.2904167 L23.5896881,53.2787821 L33.7714868,68.9573077" id="Fill-729" fill="#77BB48"></path>
                        <path d="M37.110959,64.4226282 C36.3848949,64.9504167 35.369039,64.7889423 34.8422728,64.0619551 L34.7908638,63.9907372 C34.2637455,63.2641026 34.4250149,62.2473077 35.1510789,61.7195192 L65.0623133,39.9783013 C65.7883774,39.4508654 66.8038812,39.6123397 67.3309995,40.3389744 L67.3827606,40.4101923 C67.9095267,41.1371795 67.7482574,42.1539744 67.0221933,42.6817628 L37.110959,64.4226282" id="Fill-730" fill="#92C665"></path>
                        <polyline id="Fill-731" fill="#E6E6E1" points="75.9701761 34.3443269 70.4641314 25.8662179 72.6926763 24.4154167 78.1983688 32.8935256 75.9701761 34.3443269"></polyline>
                        <path d="M73.1627518,25.1395833 C73.1627518,25.1395833 72.3662644,26.0224038 72.4669697,26.4951923 C73.0676803,29.3199359 76.6075068,33.9297115 76.6075068,33.9297115 L78.1983688,32.8935256 L73.1627518,25.1395833" id="Fill-732" fill="#F5F4F2"></path>
                        <path d="M77.2853309,33.4883013 C77.0511735,33.640609 76.738142,33.5743269 76.5860277,33.3398718 L74.6736834,30.395609 C74.5215691,30.1611538 74.5881191,29.8477244 74.8219244,29.6954167 L74.8659389,29.666859 C75.1000964,29.5145513 75.4131279,29.5808333 75.5652422,29.8152885 L77.4772344,32.7595513 C77.6293487,32.9940064 77.5631508,33.3074359 77.3289934,33.4597436 L77.2853309,33.4883013" id="Fill-733" fill="#FFFFFF"></path>
                        <polyline id="Fill-734" fill="#D8D8D2" points="73.4631071 34.3894551 69.6958134 28.5887179 71.4785789 27.4280769 75.2458726 33.2288141 73.4631071 34.3894551"></polyline>
                        <path d="M69.9176467,28.93 L73.4631071,34.3894551 L74.8525585,33.4847756 C74.8525585,33.4847756 72.7380993,29.1009936 71.1063918,28.7544231 C70.6768098,28.6634615 69.9176467,28.93 69.9176467,28.93" id="Fill-735" fill="#F5F4F2"></path>
                        <path d="M73.8405759,33.5062821 C73.5965592,33.6649359 73.317683,33.6776282 73.2226116,33.5309615 L72.1314027,31.850641 C72.0363313,31.7043269 72.1609805,31.4540064 72.4046451,31.2953526 C72.6486618,31.1363462 72.927538,31.1240064 73.0226094,31.2703205 L74.1138182,32.950641 C74.2092418,33.0973077 74.0845926,33.3472756 73.8405759,33.5062821" id="Fill-736" fill="#FFFFFF"></path>
                        <polyline id="Fill-737" fill="#E4E4DF" points="74.0363526 39.1776282 73.9560701 39.2280449 72.8961996 34.9814103 69.0968634 29.1309615 65.6380237 26.4197436 65.7161935 26.3665064 74.0363526 39.1776282"></polyline>
                        <polyline id="Fill-738" fill="#CFCEC9" points="69.7637719 30.6455769 73.1599348 35.8755128 73.87121 38.9234295 74.0363526 39.1776282 73.9560701 39.2280449 72.8961996 34.9814103 69.0968634 29.1309615 65.6380237 26.4197436 65.7161935 26.3665064 67.2609283 28.7449038 69.7637719 30.6455769"></polyline>
                        <path d="M72.6652112,36.5781731 C72.5229562,36.6708974 72.3137991,36.5252885 72.1553467,36.2813141 L70.3366653,33.4805449 C70.1778608,33.2365705 70.129973,32.9858974 70.272228,32.8935256 C70.414483,32.8008013 70.6236402,32.9464103 70.7820926,33.1903846 L72.6007739,35.9911538 C72.7595785,36.2351282 72.8074663,36.4858013 72.6652112,36.5781731" id="Fill-739" fill="#FFFFFF"></path>
                        <polyline id="Fill-740" fill="#E4E4DF" points="22.1442501 51.0533974 18.9012578 51.501859 16.2603846 53.2213141 29.3006645 73.30125 31.9418898 71.5817949 33.8105717 69.0172436 22.1442501 51.0533974"></polyline>
                        <polyline id="Fill-741" fill="#F5F4F2" points="32.9609148 69.6613782 22.561156 53.6482692 20.28085 53.9775641 25.9277412 63.464359 19.4695737 53.9888462 17.5642717 55.2295192 23.2263039 63.9477244 23.2322899 63.956891 29.3006645 73.30125 31.6063228 71.8000321 31.8052686 71.5461859 32.9609148 69.6613782"></polyline>
                        <path d="M29.6675698,71.9135577 C29.3651018,72.1102885 29.0038303,71.8677244 28.7348134,71.4534615 L25.6502734,66.7037179 C25.3812565,66.2894551 25.3062557,65.8603846 25.6087237,65.6636538 C25.9111917,65.4665705 26.2724632,65.7091346 26.5414801,66.1233974 L29.62602,70.873141 C29.895037,71.2874038 29.9700378,71.7164744 29.6675698,71.9135577" id="Fill-742" fill="#FFFFFF"></path>
                        <path d="M32.229921,70.2448718 C31.927453,70.4419551 31.3351932,70.0876282 30.9186395,69.4463141 L26.1414759,62.0904167 C25.7249221,61.4491026 25.6418226,60.7630128 25.9442907,60.5662821 C26.2467587,60.3691987 26.8390185,60.7235256 27.2555722,61.3648397 L32.0327358,68.7207372 C32.4492896,69.3620513 32.5323891,70.048141 32.229921,70.2448718" id="Fill-743" fill="#FFFFFF"></path>
                        <polyline id="Fill-744" fill="#D2CFCB" points="56.3006002 10.0413782 53.1128901 5.13298077 53.7815592 4.6975641 56.9692693 9.6063141 56.3006002 10.0413782"></polyline>
                        <polyline id="Fill-745" fill="#E6E6E1" points="56.3006002 10.0413782 53.402682 5.57932692 53.6255717 5.43407051 56.5234899 9.89612179 56.3006002 10.0413782"></polyline>
                        <polyline id="Fill-746" fill="#1F5F81" points="17.6065257 44.6800962 17.7625133 44.3881731 57.7823061 14.8708013 57.8323066 14.8404808 49.5121475 2.02935897 49.4322171 2.08330128 6.32612378 26.6608974 5.94020417 26.71625 17.6065257 44.6800962"></polyline>
                        <path d="M17.5674408,44.6201603 L17.6075821,44.5119231 L17.7174424,44.4290705 L17.7142733,44.4195513 L54.936149,16.959391 C54.936149,16.959391 52.534715,7.14294872 46.8924013,6.5175 C41.5388231,5.92413462 7.4838826,28.9532692 7.4838826,28.9532692 L7.38529,28.9416346 L17.5674408,44.6201603" id="Fill-747" fill="#23709F"></path>
                        <path d="M20.906913,40.0854808 C20.1808489,40.6132692 19.164993,40.4517949 18.6382269,39.7248077 L18.5864657,39.6535897 C18.0596996,38.9269551 18.2209689,37.9101603 18.9466808,37.3823718 L48.8582673,15.6411538 C49.5839793,15.1137179 50.5998352,15.2751923 51.1269535,16.0018269 L51.1783625,16.0730449 C51.7054808,16.8000321 51.5442114,17.8168269 50.8181474,18.3446154 L20.906913,40.0854808" id="Fill-748" fill="#3999C6"></path>
                        <polyline id="Fill-749" fill="#E6E6E1" points="59.7661301 10.0071795 54.2600855 1.52907051 56.4882782 0.0782692308 61.9943228 8.55637821 59.7661301 10.0071795"></polyline>
                        <path d="M56.9583537,0.802435897 C56.9583537,0.802435897 56.1622184,1.68525641 56.2629237,2.15804487 C56.8632822,4.98278846 60.4031087,9.5925641 60.4031087,9.5925641 L61.9943228,8.55637821 L56.9583537,0.802435897" id="Fill-750" fill="#F5F4F2"></path>
                        <path d="M61.0809328,9.15115385 C60.8471275,9.30346154 60.534096,9.23717949 60.3819817,9.00272436 L58.4696374,6.05846154 C58.3175231,5.82400641 58.383721,5.51057692 58.6178784,5.35826923 L58.661893,5.32971154 C58.8956983,5.17740385 59.2087298,5.2436859 59.3608441,5.47814103 L61.2731884,8.42240385 C61.4253027,8.65685897 61.3591048,8.97028846 61.1249474,9.12259615 L61.0809328,9.15115385" id="Fill-751" fill="#FFFFFF"></path>
                        <polyline id="Fill-752" fill="#D8D8D2" points="57.2590611 10.0523077 53.4917674 4.25157051 55.2741808 3.09092949 59.0414745 8.89166667 57.2590611 10.0523077"></polyline>
                        <path d="M53.7132487,4.59285256 L57.2590611,10.0523077 L58.6485125,9.14762821 C58.6485125,9.14762821 56.5340534,4.76384615 54.9019937,4.41727564 C54.4727638,4.3263141 53.7132487,4.59285256 53.7132487,4.59285256" id="Fill-753" fill="#F5F4F2"></path>
                        <path d="M57.6365299,9.16913462 C57.3925132,9.32778846 57.113637,9.34048077 57.0185656,9.1938141 L55.9273568,7.51349359 C55.8322853,7.36717949 55.9565824,7.11685897 56.2005991,6.95820513 C56.4446158,6.79919872 56.723492,6.78685897 56.8185634,6.93317308 L57.9097723,8.61349359 C58.0048437,8.76016026 57.8801945,9.01012821 57.6365299,9.16913462" id="Fill-754" fill="#FFFFFF"></path>
                        <polyline id="Fill-755" fill="#E4E4DF" points="57.8323066 14.8404808 57.751672 14.8905449 56.6921536 10.6439103 52.8928174 4.7938141 49.4336256 2.08224359 49.5121475 2.02935897 57.8323066 14.8404808"></polyline>
                        <polyline id="Fill-756" fill="#CFCEC9" points="53.5593738 6.30842949 56.9558889 11.5383654 57.667164 14.5862821 57.8323066 14.8404808 57.751672 14.8905449 56.6921536 10.6439103 52.8928174 4.7938141 49.4336256 2.08224359 49.5121475 2.02935897 51.0568823 4.40775641 53.5593738 6.30842949"></polyline>
                        <path d="M56.4611653,12.2410256 C56.3189102,12.33375 56.1097531,12.188141 55.9509486,11.9441667 L54.1322672,9.14339744 C53.9738148,8.89942308 53.925927,8.64875 54.068182,8.55637821 C54.2104371,8.46365385 54.4195942,8.60926282 54.5780466,8.85323718 L56.396728,11.6540064 C56.5551804,11.8979808 56.6034203,12.1486538 56.4611653,12.2410256" id="Fill-757" fill="#FFFFFF"></path>
                        <polyline id="Fill-758" fill="#E4E4DF" points="5.94020417 26.71625 2.69721185 27.1647115 0.0559865123 28.8841667 13.0966185 48.9641026 15.7378438 47.2446474 17.6065257 44.6800962 5.94020417 26.71625"></polyline>
                        <polyline id="Fill-759" fill="#F5F4F2" points="16.7565167 45.3242308 6.35711002 29.3111218 4.07680402 29.6404167 9.72369521 39.1272115 3.26552777 29.6516987 1.36022577 30.8923718 7.02190584 39.6105769 7.02789182 39.6197436 13.0966185 48.9641026 15.4022769 47.4628846 15.6008705 47.2090385 16.7565167 45.3242308"></polyline>
                        <path d="M13.4635238,47.5760577 C13.1610558,47.773141 12.7997843,47.5305769 12.5307674,47.1163141 L9.44587534,42.3665705 C9.17685839,41.9523077 9.10220971,41.5232372 9.40467772,41.3265064 C9.70714573,41.1294231 10.0684172,41.3719872 10.337082,41.78625 L13.4219741,46.5359936 C13.690991,46.9502564 13.7659918,47.3793269 13.4635238,47.5760577" id="Fill-760" fill="#FFFFFF"></path>
                        <path d="M16.0258751,45.9077244 C15.7234071,46.1048077 15.1311472,45.7504808 14.7145935,45.1091667 L9.93742988,37.7532692 C9.52087614,37.1119551 9.43777667,36.4258654 9.74024468,36.2291346 C10.0427127,36.0320513 10.6349725,36.3863782 11.0515263,37.0276923 L15.8286899,44.3835897 C16.2452436,45.0252564 16.3283431,45.7109936 16.0258751,45.9077244" id="Fill-761" fill="#FFFFFF"></path>
                        <polyline id="Fill-762" fill="#D2CFCB" points="71.0581519 17.5742628 67.8704418 12.6658654 68.5387588 12.2308013 71.7264688 17.1391987 71.0581519 17.5742628"></polyline>
                        <polyline id="Fill-763" fill="#E6E6E1" points="71.0581519 17.5742628 68.1602336 13.1122115 68.3831233 12.9669551 71.2810416 17.429359 71.0581519 17.5742628"></polyline>
                        <polyline id="Fill-764" fill="#9E2A34" points="32.3637253 52.2129808 32.520065 51.9210577 72.5398578 22.4036859 72.5895062 22.3733654 64.2693471 9.56224359 64.1894167 9.6161859 21.0833233 34.1937821 20.6974037 34.2491346 32.3637253 52.2129808"></polyline>
                        <path d="M32.3249925,52.1530449 L32.3651338,52.0448077 L32.474642,51.9619551 L32.471825,51.9524359 L69.6933486,24.4922756 C69.6933486,24.4922756 67.2919145,14.6758333 61.6496009,14.0503846 C56.2963748,13.4570192 22.2414343,36.4865064 22.2414343,36.4865064 L22.1428417,36.4745192 L32.3249925,52.1530449" id="Fill-765" fill="#AF2A30"></path>
                        <path d="M35.6641126,47.6183654 C34.9384006,48.1461538 33.9225447,47.9846795 33.3954264,47.2576923 L33.3440174,47.1864744 C32.8168991,46.4598397 32.9781685,45.4430449 33.7042325,44.9152564 L63.6154669,23.1740385 C64.341531,22.6466026 65.3573869,22.8080769 65.884153,23.5350641 L65.9359142,23.6059295 C66.4626803,24.3329167 66.301411,25.3497115 65.5756991,25.8775 L35.6641126,47.6183654" id="Fill-766" fill="#B53741"></path>
                        <polyline id="Fill-767" fill="#E6E6E1" points="74.5233296 17.5400641 69.017285 9.06195513 71.2458299 7.61115385 76.7515224 16.0892628 74.5233296 17.5400641"></polyline>
                        <path d="M71.7159054,8.33532051 C71.7159054,8.33532051 70.9197701,9.21814103 71.0201233,9.69092949 C71.6208339,12.5156731 75.1606604,17.1254487 75.1606604,17.1254487 L76.7515224,16.0892628 L71.7159054,8.33532051" id="Fill-768" fill="#F5F4F2"></path>
                        <path d="M75.8384845,16.6840385 C75.6043271,16.8363462 75.2912956,16.7700641 75.1391813,16.535609 L73.2271891,13.5913462 C73.0747227,13.356891 73.1412727,13.0434615 73.375078,12.8911538 L73.4190925,12.8625962 C73.65325,12.7102885 73.9662815,12.7765705 74.1183958,13.0110256 L76.030388,15.9552885 C76.1828544,16.1897436 76.1163044,16.5031731 75.8824991,16.6554808 L75.8384845,16.6840385" id="Fill-769" fill="#FFFFFF"></path>
                        <polyline id="Fill-770" fill="#D8D8D2" points="72.0162607 17.5851923 68.248967 11.7844551 70.0317325 10.6238141 73.7990262 16.4245513 72.0162607 17.5851923"></polyline>
                        <path d="M68.4708003,12.1257372 L72.0162607,17.5851923 L73.4057121,16.6805128 C73.4057121,16.6805128 71.2912529,12.2967308 69.6595454,11.9505128 C69.2299634,11.8591987 68.4708003,12.1257372 68.4708003,12.1257372" id="Fill-771" fill="#F5F4F2"></path>
                        <path d="M72.3937295,16.7020192 C72.1500649,16.8606731 71.8708366,16.8733654 71.7757651,16.7266987 L70.6845563,15.0463782 C70.5894849,14.9000641 70.7141341,14.6497436 70.9577987,14.4910897 C71.2018154,14.3320833 71.4806916,14.3197436 71.575763,14.4660577 L72.6673239,16.1463782 C72.7623954,16.2930449 72.6377462,16.5430128 72.3937295,16.7020192" id="Fill-772" fill="#FFFFFF"></path>
                        <polyline id="Fill-773" fill="#E4E4DF" points="72.5895062 22.3733654 72.5092237 22.4237821 71.4493532 18.1771474 67.6500169 12.3266987 64.1911773 9.61548077 64.2693471 9.56224359 72.5895062 22.3733654"></polyline>
                        <polyline id="Fill-774" fill="#CFCEC9" points="68.3169255 13.8416667 71.7130884 19.07125 72.4243636 22.1191667 72.5895062 22.3733654 72.5092237 22.4237821 71.4493532 18.1771474 67.6500169 12.3266987 64.1911773 9.61548077 64.2693471 9.56224359 65.8140819 11.940641 68.3169255 13.8416667"></polyline>
                        <path d="M71.2183648,19.7739103 C71.0761098,19.8666346 70.8669526,19.7210256 70.7085002,19.4770513 L68.8898189,16.6766346 C68.7313665,16.4323077 68.6831265,16.1819872 68.8253816,16.0892628 C68.9676366,15.9965385 69.1767938,16.1421474 69.3355983,16.3864744 L71.1542796,19.186891 C71.312732,19.4308654 71.3606199,19.6815385 71.2183648,19.7739103" id="Fill-775" fill="#FFFFFF"></path>
                        <polyline id="Fill-776" fill="#E4E4DF" points="20.6974037 34.2491346 17.4544114 34.6975962 14.8135382 36.4170513 27.8538181 56.4969872 30.4950434 54.7775321 32.3637253 52.2129808 20.6974037 34.2491346"></polyline>
                        <polyline id="Fill-777" fill="#F5F4F2" points="31.5140683 52.8571154 21.1146617 36.8440064 18.8340036 37.1733013 24.4808948 46.6600962 18.0227273 37.1845833 16.1174253 38.4252564 21.7794575 47.1434615 21.7854435 47.1526282 27.8538181 56.4969872 30.1594764 54.9957692 30.3584222 54.7419231 31.5140683 52.8571154"></polyline>
                        <path d="M28.2207234,55.1092949 C27.9182554,55.3060256 27.5569839,55.0634615 27.287967,54.6491987 L24.203427,49.8994551 C23.9344101,49.4851923 23.8594093,49.0561218 24.1618773,48.859391 C24.4643453,48.6623077 24.8256168,48.9048718 25.0946337,49.3191346 L28.1795258,54.0688782 C28.4481906,54.483141 28.5231914,54.9122115 28.2207234,55.1092949" id="Fill-778" fill="#FFFFFF"></path>
                        <path d="M30.7834268,53.440609 C30.4809587,53.6376923 29.8883468,53.2833654 29.471793,52.6420513 L24.6946294,45.2861538 C24.2784278,44.6448397 24.1949762,43.9591026 24.4974442,43.7620192 C24.7999123,43.5649359 25.3925242,43.9192628 25.8090779,44.5605769 L30.5858894,51.9164744 C31.0024432,52.558141 31.0858948,53.2438782 30.7834268,53.440609" id="Fill-779" fill="#FFFFFF"></path>
                    </g>
                </g>
                <path d="M199.000255,68.5823117 C198.823319,68.3684416 198.874553,67.2315844 199.126553,67.0260779 C199.523915,66.7028831 200.105957,66.7644156 200.436596,67.1658701 C200.613532,67.3797403 200.561106,68.5171948 200.313872,68.7232987 C199.917106,69.0488831 199.328511,68.9837662 199.000255,68.5823117 L199.000255,68.5823117 Z M198.682723,60.9702078 C199.051489,60.6667273 199.638894,60.7778442 199.99634,61.2127532 C200.187574,61.4481299 200.223915,62.6058961 199.992766,62.7970649 C199.62817,63.0975584 199.039574,62.9864416 198.682723,62.5509351 C198.486723,62.3143636 198.454553,61.1595844 198.682723,60.9702078 L198.682723,60.9702078 Z M197.671745,52.2128831 C197.524,52.007974 197.410809,51.1381558 197.55617,51.0365974 C197.78434,50.8729091 198.191234,51.0587013 198.462298,51.4458182 C198.610043,51.6555065 198.718468,52.5211429 198.577872,52.6227013 C198.346723,52.7822078 197.942213,52.6 197.671745,52.2128831 L197.671745,52.2128831 Z M197.386979,65.2936104 C196.990213,65.6185974 196.376,65.528987 196.022723,65.0934805 C195.831489,64.8545195 195.834468,63.6644935 196.083489,63.4565974 C196.477872,63.131013 197.090894,63.2218182 197.44834,63.6585195 C197.64017,63.8962857 197.635404,65.0863117 197.386979,65.2936104 L197.386979,65.2936104 Z M195.398383,51.6477403 C195.698043,51.3944416 196.213957,51.5216883 196.545787,51.9297143 C196.726894,52.145974 196.813277,53.1747013 196.625021,53.3306234 C196.318809,53.5815325 195.802894,53.4524935 195.474043,53.0492468 C195.293532,52.8288052 195.206553,51.8042597 195.398383,51.6477403 L195.398383,51.6477403 Z M194.221191,55.3259481 C193.856596,55.6258442 193.25966,55.5171169 192.911745,55.0762338 C192.716936,54.8408571 192.676426,53.6896623 192.911745,53.4967013 C193.27634,53.198 193.861362,53.3025455 194.221191,53.744026 C194.416,53.9794026 194.449362,55.1377662 194.221191,55.3259481 L194.221191,55.3259481 Z M194.063319,62.078987 C193.636766,62.4224935 192.990979,62.3245195 192.612085,61.8615325 C192.406553,61.6124156 192.409532,60.3423377 192.674043,60.1272727 C193.09166,59.7825714 193.745191,59.8775584 194.120511,60.3441299 C194.326043,60.5938442 194.326043,61.8615325 194.063319,62.078987 L194.063319,62.078987 Z M191.327064,51.3890649 C190.973191,51.7725974 190.436426,51.8436883 190.129021,51.5587273 C189.936,51.3771169 190.056936,50.3358442 190.24817,50.1285455 C190.602043,49.7521818 191.136426,49.6721299 191.446213,49.9624675 C191.636851,50.1428831 191.518298,51.1805714 191.327064,51.3890649 L191.327064,51.3890649 Z M190.887404,57.7794805 C190.486468,58.1098442 189.877021,58.0178442 189.518979,57.5811429 C189.327745,57.3457662 189.330723,56.1527532 189.576766,55.949039 C189.977106,55.6186753 190.590723,55.7100779 190.944596,56.1503636 C191.138809,56.3857403 191.132255,57.5775584 190.887404,57.7794805 L190.887404,57.7794805 Z M188.866043,49.6948312 C188.422213,49.7485974 188.011149,49.5502597 187.953362,49.2539481 C187.890809,48.9618182 188.202383,48.6756623 188.646213,48.6201039 C189.093021,48.5669351 189.500511,48.7616883 189.562468,49.0574026 C189.628,49.3543117 189.313447,49.6386753 188.866043,49.6948312 L188.866043,49.6948312 Z M188.274468,53.5301558 C187.873532,53.8575325 187.285532,53.8025714 186.960255,53.4047013 C186.757702,53.1543896 186.925702,52.0330649 187.14434,51.8556364 C187.544681,51.5258701 188.133277,51.5814286 188.460936,51.9781039 C188.660511,52.2278182 188.493702,53.3491429 188.274468,53.5301558 L188.274468,53.5301558 Z M185.661532,50.6907013 C185.406553,50.8956104 185.126553,50.9828312 184.90017,50.9649091 C184.683319,51.0013506 184.488511,50.9649091 184.380085,50.8304935 C184.174553,50.5771948 184.330043,50.107039 184.723234,49.7820519 C184.975234,49.5765455 185.256426,49.4899221 185.484596,49.5078442 C185.700255,49.4725974 185.896255,49.5114286 186.00766,49.6452468 C186.213191,49.8973506 186.058894,50.3639221 185.661532,50.6907013 L185.661532,50.6907013 Z M193.073787,49.2635065 C193.363319,49.0281299 193.813702,49.1045974 194.081787,49.4379481 C194.35166,49.7677143 194.34034,50.2271169 194.052,50.4624935 C193.767234,50.6942857 193.316255,50.6142338 193.04817,50.2844675 C192.778298,49.9552987 192.789021,49.4947013 193.073787,49.2635065 L193.073787,49.2635065 Z M197.379234,57.619974 C197.574043,57.8553506 197.610979,59.0131169 197.379234,59.2060779 C197.019404,59.502987 196.426638,59.3954545 196.069787,58.9563636 C195.876766,58.720987 195.838638,57.5668052 196.069787,57.3792208 C196.437362,57.0739481 197.022383,57.1826753 197.379234,57.619974 L197.379234,57.619974 Z M199.845021,55.8576364 C200.039234,56.093013 200.15183,57.1904416 199.949277,57.3565195 C199.631149,57.6181818 199.086638,57.4718182 198.729191,57.0387013 C198.537957,56.7991429 198.425957,55.7017143 198.621362,55.5392208 C198.941872,55.273974 199.486979,55.4191429 199.845021,55.8576364 L199.845021,55.8576364 Z M200.201277,54.0128571 C200.397872,53.8527532 200.844085,54.0731948 201.201532,54.5128831 C201.394553,54.7482597 201.685277,55.6963377 201.562553,55.7972987 C201.371319,55.9526234 200.926894,55.7315844 200.566468,55.2948831 C200.375234,55.0541299 200.078553,54.1084416 200.201277,54.0128571 L200.201277,54.0128571 Z M202.313191,60.7037662 C202.009362,60.9528831 201.493447,60.8256364 201.165191,60.4217922 C200.988851,60.2049351 200.894128,59.1762078 201.085957,59.0172987 C201.392766,58.766987 201.909277,58.893039 202.237532,59.2992727 C202.418043,59.5191169 202.505021,60.5478442 202.313191,60.7037662 L202.313191,60.7037662 Z M202.443064,57.7221299 C202.655745,57.5476883 203.085277,57.7143636 203.39983,58.0978961 C203.569021,58.304 203.76383,59.1917403 203.626213,59.3028571 C203.409957,59.4767013 202.980426,59.3136104 202.670043,58.9264935 C202.497277,58.7168052 202.309021,57.8338442 202.443064,57.7221299 L202.443064,57.7221299 Z M204.193362,63.5258961 C203.922298,63.7463377 203.46417,63.6346234 203.168681,63.2678182 C203.005447,63.0712727 202.923234,62.1566494 203.093021,62.0192468 C203.363489,61.7982078 203.821021,61.9111169 204.118298,62.2767273 C204.275574,62.4696883 204.363149,63.3849091 204.193362,63.5258961 L204.193362,63.5258961 Z M202.634298,70.3625714 C202.323319,70.775974 201.861617,70.948026 201.606638,70.7502857 C201.464851,70.6451429 201.49583,69.7185714 201.692426,69.4628831 C202.002809,69.0488831 202.464511,68.8786234 202.722468,69.0751688 C202.864851,69.1791169 202.826128,70.1056883 202.634298,70.3625714 L202.634298,70.3625714 Z M201.255745,64.2648831 C201.537532,63.8813506 202.104681,63.8162338 202.511574,64.1197143 C202.928596,64.4237922 202.701617,65.4083117 202.677787,65.4334026 C202.655745,65.4877662 202.641447,65.5492987 202.602128,65.6012727 C202.334638,65.9656883 201.800255,66.0284156 201.411234,65.7374805 C201.065106,65.4841818 201.161617,64.3945195 201.255745,64.2648831 L201.255745,64.2648831 Z M201.479149,53.7213247 C196.531489,47.6570909 187.797872,46.5560779 181.514553,51.0073247 C181.514553,51.0073247 181.994128,52.7188831 182.53566,53.9602857 C182.564851,54.0325714 182.60417,54.0624416 182.636936,54.112026 C184.019064,57.4532987 186.195319,61.1332987 189.125787,64.7278701 C192.572766,68.9473247 196.365277,72.2497662 199.788426,74.2432987 C205.745277,68.9951169 206.538809,59.9253506 201.479149,53.7213247 L201.479149,53.7213247 Z" id="Fill-69" fill="#FEF6DA"></path>
                <path d="M197.776596,75.7362078 C194.427319,73.7241558 190.749787,70.4963896 187.404085,66.3880519 C183.466213,61.5735844 180.79966,56.547039 179.735064,52.4799221 C176.898128,55.2369351 175.391489,58.9115584 175.266979,62.6453247 C176.389957,65.6789351 178.137872,68.7937922 180.530979,71.7121039 C182.442128,74.0503377 184.567149,75.9990649 186.743404,77.5600779 C187.111574,77.6431169 187.483915,77.7022597 187.857447,77.756026 C187.894979,77.7799221 187.929532,77.8097922 187.962894,77.8342857 L188.029021,77.7870909 C191.337787,78.2393247 194.789532,77.5833766 197.776596,75.7362078" id="Fill-70" fill="#FEF6DA"></path>
                <path d="M153.166043,131.674597 C153.166043,135.175974 161.289021,138.011844 171.310043,138.011844 C181.330468,138.011844 189.452255,135.175974 189.452255,131.674597 C189.452255,128.413974 182.389702,125.732234 173.321872,125.382753 L173.321872,90.0434026 L177.842383,86.3556364 C178.224851,86.0455844 178.327915,85.481039 178.204,84.8394286 L184.975234,79.9777662 C182.633362,78.3683636 180.345106,76.287013 178.296936,73.7821039 C175.732851,70.6523117 173.877702,67.2895325 172.779149,64.0534026 L165.904851,70.3476364 C165.573021,70.3219481 165.263234,70.3595844 165.032085,70.5465714 L156.327064,77.6395325 C155.902894,77.9848312 155.843915,78.6479481 156.040511,79.3797662 L151.746979,83.3094805 C149.263915,85.3472208 148.769447,88.8563636 150.646638,91.1551688 L154.418298,95.7754805 C156.294298,98.0742857 159.824085,98.2857662 162.307745,96.2516104 L166.804426,93.0226494 C167.042723,93.1988831 167.287574,93.3506234 167.529447,93.4557662 L167.529447,125.475351 C159.323064,126.084701 153.166043,128.625455 153.166043,131.674597" id="Fill-71" fill="#767676"></path>
                <path d="M163.42417,84.0496623 C163.98417,84.9147013 165.717191,84.7832727 167.295915,83.7557403 C168.875234,82.7282078 169.700936,81.1928831 169.14034,80.3278442 C168.579745,79.4628052 166.846128,79.5936364 165.268,80.6217662 C163.689277,81.6492987 162.863574,83.184026 163.42417,84.0496623 Z" id="Fill-72" fill="#FEF6DA"></path>
                <path d="M191.425362,131.59813 C191.425362,135.914961 182.672085,139.413948 171.874809,139.413948 C161.076936,139.413948 152.324255,135.914961 152.324255,131.59813 C152.324255,127.281896 161.076936,123.782909 171.874809,123.782909 C182.672085,123.782909 191.425362,127.281896 191.425362,131.59813" id="Fill-73" fill="#767676"></path>
                <path d="M72.3802549,65.7315098 L72.348085,65.7671765 C65.4805033,60.1024706 60.9823072,57.4225752 55.767281,57.4225752 C52.6516928,57.4225752 49.2997255,58.3813791 45.8533464,60.9046209 C43.9077647,62.3256928 40.7781895,64.4621961 37.0366863,67.0588693 C41.481732,71.9836667 38.5227974,76.9916863 33.6084902,81.9073922 C30.3684183,85.143268 27.089183,87.5637059 23.8211373,87.5637059 C21.9748627,87.5637059 20.1285882,86.7944248 18.297,84.9586405 C17.4354052,84.1019412 16.8808235,83.2368497 16.4661111,82.3717582 C13.3868889,84.9187778 10.4475359,87.5077582 7.89632026,90.0540784 C-3.88556863,101.836667 -0.509823529,116.237608 11.9189608,128.071948 C18.7347908,135.212275 26.3919346,139.36919 33.9050131,139.36919 C39.4571242,139.36919 44.9365033,137.102608 49.9354314,132.096686 C52.4922418,129.541275 55.0875163,126.618007 57.6415294,123.534588 C56.7680458,123.105889 55.9043529,122.556902 55.0378627,121.69251 C49.9641046,116.625046 53.0272418,111.456176 58.0982026,106.390111 C61.3256863,103.162627 64.593732,100.771562 67.8533856,100.771562 C69.5751765,100.771562 71.2899739,101.440137 73.0033725,103.006673 C75.6021438,99.2896471 77.7540327,96.1537778 79.1709085,94.2158889 C85.9363856,84.9719281 81.4276993,76.3384967 72.3802549,65.7315098" id="Fill-92" fill="#FEF6DA"></path>
                <polyline id="Fill-93" fill="#767676" points="37.6891765 110.201549 29.8592941 102.383556 14.9576209 119.368582 20.6342157 125.15917 37.6891765 110.201549"></polyline>
                <path d="M91.1528105,44.8238497 L87.0126797,40.6823203 C85.7300784,39.4025163 83.6565163,39.4025163 82.3753137,40.6823203 C81.0927124,41.9614248 81.0927124,44.0398824 82.3753137,45.323183 L86.2755686,49.2248366 L84.6824575,50.6598954 L80.8528366,46.8337712 C79.5751307,45.5539673 77.5008693,45.5539673 76.2154706,46.8337712 C74.9377647,48.1135752 74.9377647,50.1913333 76.2154706,51.4753333 L79.8031176,55.0587843 L50.1690131,81.7647255 L58.1443595,89.744268 L66.7162484,80.4079935 L84.9370196,60.1933856 L88.5169739,63.7740392 C89.1624706,64.4146405 89.9995882,64.7328431 90.8402026,64.7328431 C91.6822157,64.7328431 92.5193333,64.4146405 93.1550392,63.7740392 C94.4376405,62.4942353 94.4376405,60.4157778 93.1550392,59.1324771 L89.3387059,55.3140458 L90.7772614,53.723732 L94.6775163,57.6218889 C95.3146209,58.2624902 96.1517386,58.5813922 96.9916536,58.5813922 C97.832268,58.5813922 98.6693856,58.2624902 99.3064902,57.6218889 C100.587693,56.3427843 100.587693,54.2643268 99.3064902,52.9810261 L95.1733529,48.8422941 L96.7888431,47.0477712 L92.9298497,43.2230458 L91.1528105,44.8238497" id="Fill-94" fill="#767676"></path>
                <path d="M103.178771,46.8134902 C104.97749,45.0133725 102.11017,41.2194183 106.892301,36.4302941 L103.550824,33.0951111 C98.6428105,38.0164118 94.9894248,34.9980327 93.1711242,36.8079412 C91.4493333,38.5374248 91.394085,41.3285163 92.9788039,43.1789869 L92.9298497,43.2230458 L96.7888431,47.0477712 L96.8161176,47.0176993 C98.6693856,48.5933268 101.464673,48.5317843 103.178771,46.8134902" id="Fill-95" fill="#FEF6DA"></path>
                <polyline id="Fill-96" fill="#0A0A08" points="58.2268824 89.8260915 66.7162484 80.4079935 58.1443595 89.744268 58.2268824 89.8260915"></polyline>
                <polyline id="Fill-97" fill="#342D34" points="52.4922418 99.7456209 40.9250523 87.8595294 42.1125425 86.7049085 53.677634 98.5903007 52.4922418 99.7456209"></polyline>
                <polyline id="Fill-98" fill="#342D34" points="49.4871503 102.708052 37.9213595 90.8219608 39.1081503 89.6680392 50.6732418 101.553431 49.4871503 102.708052"></polyline>
                <polyline id="Fill-99" fill="#342D34" points="46.240085 105.676778 34.6742941 93.7906863 35.861085 92.6367647 47.4254771 104.522157 46.240085 105.676778"></polyline>
            </g>
        </g>
    </g>
</svg>