<?xml version="1.0" encoding="UTF-8"?>
<svg width="186px" height="186px" viewBox="0 0 186 186" version="1.1" xmlns="http://www.w3.org/2000/svg" xmlns:xlink="http://www.w3.org/1999/xlink">
    <!-- Generator: Sketch 3.8.3 (29802) - http://www.bohemiancoding.com/sketch -->
    <title>heart-bits</title>
    <desc>Created with Sketch.</desc>
    <defs></defs>
    <g id="Page-1" stroke="none" stroke-width="1" fill="none" fill-rule="evenodd">
        <g id="heart-bits">
            <polyline id="Fill-27" fill-opacity="0.7" fill="#FFFFFF" points="2 78.0760008 2 78.0760008 12.27356 32.5881612 47.25 63.6530714 2 78.0760008"></polyline>
            <polyline id="Fill-28" fill-opacity="0.5" fill="#FFFFFF" points="92.32443 77.8155742 47.25 63.6530714 49.63196 14.4505362 92.32443 77.8155742"></polyline>
            <polyline id="Fill-29" fill-opacity="0.95" fill="#FFFFFF" points="92.5 173.721273 27.78526 124.511504 47.25 63.6530714 92.5 173.721273"></polyline>
            <polyline id="Fill-30" fill-opacity="0.6" fill="#FFFFFF" points="2 78.0760008 27.78526 124.511504 47.25 63.6530714 2 78.0760008"></polyline>
            <polyline id="Fill-31" fill-opacity="0.65" fill="#FFFFFF" points="92.5 173.721273 92.5 173.721273 47.25 63.6530714 92.5 78.0760008 92.32443 77.8155742 92.5 77.8698298 92.5 173.721273"></polyline>
            <polyline id="Fill-33" fill-opacity="0.7" fill="#FFFFFF" points="92.5 77.8698298 92.5 77.8698298 49.63196 14.4505362 92.5 41.2292592 92.5 77.8698298"></polyline>
            <polyline id="Fill-35" fill-opacity="0.8" fill="#FFFFFF" points="47.25 63.6530714 47.25 63.6530714 12.27356 32.5881612 49.63196 14.4505362 47.25 63.6530714"></polyline>
            <polyline id="Fill-37" fill-opacity="0.7" fill="#FFFFFF" points="183 78.0760008 137.75 63.6530714 172.72644 32.5881612 183 78.0760008"></polyline>
            <polyline id="Fill-38" fill-opacity="0.5" fill="#FFFFFF" points="92.67557 77.8155742 135.36804 14.4505362 137.75 63.6530714 92.67557 77.8155742"></polyline>
            <polyline id="Fill-40" fill-opacity="0.95" fill="#FFFFFF" points="92.5 173.721273 137.75 63.6530714 157.21474 124.511504 92.5 173.721273"></polyline>
            <polyline id="Fill-42" fill-opacity="0.65" fill="#FFFFFF" points="157.21474 124.511504 137.75 63.6530714 183 78.0760008 157.21474 124.511504"></polyline>
            <polyline id="Fill-43" fill-opacity="0.8" fill="#FFFFFF" points="92.5 173.721273 92.5 77.8698298 137.75 63.6530714 92.5 173.721273"></polyline>
            <polyline id="Fill-44" fill-opacity="0.8" fill="#FFFFFF" points="92.5 41.2292592 92.5 77.8698298 135.36804 14.4505362 92.5 41.2292592"></polyline>
            <polyline id="Fill-45" fill-opacity="0.8" fill="#FFFFFF" points="137.75 63.6530714 137.75 63.6530714 135.36804 14.4505362 172.72644 32.5881612 137.75 63.6530714"></polyline>
            <g id="Group-2" transform="translate(24.000000, 37.000000)" fill="#565656">
                <path d="M35.94906,10.6465645 L38.7117431,10.6465645 C39.7689829,10.6465645 40.5786443,10.8840575 41.1407514,11.3590507 C41.7028586,11.8340439 41.983908,12.4817521 41.983908,13.3021949 C41.983908,14.1322335 41.7004667,14.7895374 41.1335756,15.2741264 C40.5666846,15.7587154 39.735496,16.0010063 38.6399851,16.0010063 L36.7240464,16.0010063 L36.7240464,20.7005365 L35.94906,20.7005365 L35.94906,10.6465645 Z M36.7240464,11.2942792 L36.7240464,15.3532916 L38.5897545,15.3532916 C39.4269353,15.3532916 40.0631833,15.1757715 40.4985173,14.8207261 C40.9338514,14.4656807 41.1515151,13.9643065 41.1515151,13.3165886 C41.1515151,12.6976581 40.9386352,12.2058796 40.5128689,11.8412383 C40.0871026,11.4765971 39.4771657,11.2942792 38.6830399,11.2942792 L36.7240464,11.2942792 Z M50.105266,10.6465645 L52.6742025,10.6465645 C53.7505779,10.6465645 54.5733948,10.8804592 55.1426778,11.3482555 C55.7119608,11.8160518 55.996598,12.4481671 55.996598,13.2446203 C55.996598,14.4057147 55.3603501,15.2213473 54.0878351,15.6915426 C54.4179236,15.8498736 54.8628188,16.3608435 55.422534,17.2244674 L57.6900868,20.7005365 L56.7787602,20.7005365 L55.027865,17.9441505 C54.4442303,17.0229516 53.9897675,16.4484104 53.6644629,16.2205096 C53.3391584,15.9926088 52.8631684,15.8786602 52.2364787,15.8786602 L50.8802525,15.8786602 L50.8802525,20.7005365 L50.105266,20.7005365 L50.105266,10.6465645 Z M50.8802525,11.2942792 L50.8802525,15.2309454 L52.5450381,15.2309454 C53.3917868,15.2309454 54.0387983,15.0594227 54.486092,14.7163721 C54.9333858,14.3733214 55.1570294,13.8875403 55.1570294,13.2590139 C55.1570294,12.6400834 54.929798,12.1579006 54.4753283,11.812451 C54.0208587,11.4670014 53.3678674,11.2942792 52.5163349,11.2942792 L50.8802525,11.2942792 Z M70.6622858,10.6465645 L70.6622858,11.2942792 L65.9693125,11.2942792 L65.9693125,15.3173074 L70.5402972,15.3173074 L70.5402972,15.972219 L65.9693125,15.972219 L65.9693125,20.0528218 L70.7770986,20.0528218 L70.7770986,20.7005365 L65.1943261,20.7005365 L65.1943261,10.6465645 L70.6622858,10.6465645 Z M83.6057816,15.3173074 L87.4233073,10.6465645 L88.2054695,10.6465645 L88.2054695,20.7005365 L87.4233073,20.7005365 L87.4233073,11.7836637 L83.6057816,16.4831939 L79.7810801,11.7836637 L79.7810801,20.7005365 L79.0060937,20.7005365 L79.0060937,10.6465645 L79.7810801,10.6465645 L83.6057816,15.3173074 Z M97.9198553,10.6465645 L97.9198553,20.7005365 L97.1448688,20.7005365 L97.1448688,10.6465645 L97.9198553,10.6465645 Z M112.348742,10.6465645 L112.348742,11.2942792 L107.655768,11.2942792 L107.655768,15.3173074 L112.226753,15.3173074 L112.226753,15.972219 L107.655768,15.972219 L107.655768,20.0528218 L112.463554,20.0528218 L112.463554,20.7005365 L106.880782,20.7005365 L106.880782,10.6465645 L112.348742,10.6465645 Z M120.721253,10.6465645 L123.290189,10.6465645 C124.366565,10.6465645 125.189382,10.8804592 125.758665,11.3482555 C126.327947,11.8160518 126.612585,12.4481671 126.612585,13.2446203 C126.612585,14.4057147 125.976337,15.2213473 124.703822,15.6915426 C125.03391,15.8498736 125.478805,16.3608435 126.038521,17.2244674 L128.306074,20.7005365 L127.394747,20.7005365 L125.643852,17.9441505 C125.060217,17.0229516 124.605754,16.4484104 124.28045,16.2205096 C123.955145,15.9926088 123.479155,15.8786602 122.852465,15.8786602 L121.496239,15.8786602 L121.496239,20.7005365 L120.721253,20.7005365 L120.721253,10.6465645 Z M121.496239,11.2942792 L121.496239,15.2309454 L123.161025,15.2309454 C124.007773,15.2309454 124.654785,15.0594227 125.102079,14.7163721 C125.549373,14.3733214 125.773016,13.8875403 125.773016,13.2590139 C125.773016,12.6400834 125.545785,12.1579006 125.091315,11.812451 C124.636845,11.4670014 123.983854,11.2942792 123.132322,11.2942792 L121.496239,11.2942792 Z" id="PREMIER"></path>
                <g id="Group">
                    <path d="M55.2563441,49.8949499 C55.0465623,49.4065711 54.8717468,48.883316 54.7318922,48.3251688 C54.4521832,47.5577165 54.3647754,46.6681828 54.4696663,45.6565411 C54.5745572,44.6448993 54.6969281,43.7553656 54.8367826,42.9879133 C54.8367826,42.8483765 54.9067088,42.4472142 55.0465634,41.7844145 C55.1864179,41.1216147 55.2913072,40.7204525 55.3612345,40.5809157 C55.501089,40.2320737 55.6409414,39.8657951 55.7807959,39.482069 C55.9206505,39.0983428 55.9905767,38.6622969 55.9905767,38.1739181 C56.060504,38.1041497 56.2003564,37.6855456 56.4101382,36.9180933 C56.61992,36.1506409 56.7248093,35.7320368 56.7248093,35.6622684 C56.7248093,35.5925 56.7422908,35.383198 56.7772545,35.034356 C56.8122181,34.685514 56.8296997,34.4413283 56.8296997,34.3017915 C56.8296997,34.1622547 56.8122181,33.9529527 56.7772545,33.6738791 C56.7422908,33.3948055 56.7248093,33.1855035 56.7248093,33.0459667 C56.5849548,33.1157351 56.2528052,33.2727116 55.7283508,33.516901 C55.2038963,33.7610904 54.8717468,33.9529506 54.7318922,34.0924874 C54.661965,34.0924874 54.4347048,34.3541149 54.0501048,34.8773779 C53.6655049,35.4006409 53.3683185,35.8018031 53.1585367,36.0808767 C52.8788276,36.4994871 52.4767519,37.1099514 51.9522974,37.9122879 C51.4278429,38.7146245 51.1306565,39.1506704 51.0607293,39.2204388 C50.990802,39.3599756 50.9033942,39.7785797 50.7985033,40.4762636 C50.6936124,41.1739476 50.6062047,41.5925517 50.5362774,41.7320885 C50.5362774,41.8716252 50.4488696,42.1681365 50.2740515,42.621631 C50.0992333,43.0751256 49.8894547,43.5634971 49.6447093,44.08676 C49.3999638,44.610023 49.1727036,45.1332781 48.9629218,45.6565411 C48.75314,46.179804 48.6132876,46.5809663 48.5433604,46.8600399 L47.4944566,48.9530812 L46.4455529,49.9996019 L45.2917589,49.9996019 L43.928184,49.9996019 C43.5785477,49.8600652 43.4037322,49.6856468 43.4037322,49.4763416 C43.4037322,49.4065732 43.3862506,49.1798293 43.351287,48.7961031 C43.3163234,48.412377 43.2988418,48.1507494 43.2988418,48.0112126 C43.2988418,47.8019074 43.3163234,47.4879544 43.351287,47.069344 C43.3862506,46.6507336 43.4037322,46.4065479 43.4037322,46.3367795 C43.4037322,46.1972427 43.4561768,45.8832896 43.5610677,45.3949109 C43.6659586,44.9065321 43.7883295,44.5576954 43.928184,44.3483902 C43.9981113,44.139085 44.1554453,43.7030391 44.4001907,43.0402393 C44.6449361,42.3774396 44.8372332,41.9413936 44.9770877,41.7320885 C44.9770877,41.6623201 45.047014,41.4704598 45.1868685,41.1565021 C45.326723,40.8425443 45.5015386,40.5285912 45.7113203,40.2146334 C45.9211021,39.9006757 46.0959177,39.5867226 46.2357722,39.2727648 C46.3756267,38.958807 46.4455529,38.7669468 46.4455529,38.6971784 C46.5154802,38.4878732 46.5329618,38.1739202 46.4979981,37.7553098 C46.4630345,37.3366994 46.4105898,36.8832117 46.3406626,36.3948329 C46.2707353,35.9064541 46.2008091,35.4529664 46.1308818,35.034356 C46.0609546,34.6157456 46.0259915,34.3017926 46.0259915,34.0924874 L44.9770877,34.0924874 C44.9071605,34.0924874 44.7323449,34.2145802 44.4526359,34.4587696 C44.1729268,34.702959 43.8757404,34.9820284 43.5610677,35.2959862 C43.2463951,35.609944 42.9317271,35.9413389 42.6170544,36.2901808 C42.3023817,36.6390228 42.0401584,36.9180922 41.8303766,37.1273974 C41.7604494,37.1971658 41.6730416,37.3715842 41.5681507,37.6506577 C41.4632598,37.9297313 41.375852,38.1041497 41.3059248,38.1739181 C41.2359975,38.3134549 41.061182,38.5750824 40.7814729,38.9588086 C40.5017639,39.3425348 40.3269483,39.6041623 40.2570211,39.7436991 C40.2570211,39.8134675 40.1870948,39.9704441 40.0472403,40.2146334 C39.9073858,40.4588228 39.8374596,40.6157994 39.8374596,40.6855678 C39.697605,40.8948729 39.505308,41.3309189 39.2605625,41.9937186 C39.0158171,42.6565184 38.8584831,43.0925643 38.7885559,43.3018695 C38.7186286,43.3716379 38.6137393,43.6158236 38.4738847,44.034434 C38.3340302,44.4530444 38.264104,44.7321137 38.264104,44.8716505 C38.1242495,45.0111873 37.9494339,45.3425822 37.7396522,45.8658452 C37.5298704,46.3891082 37.3550548,46.7205031 37.2152003,46.8600399 C37.0054185,47.2786502 36.6383059,47.8716727 36.1138514,48.639125 C35.5893969,49.4065774 35.2922105,49.8600652 35.2222833,49.9996019 C35.152356,50.0693703 34.8551696,50.208905 34.3307151,50.4182102 C33.8062606,50.6275154 33.4041849,50.8019338 33.1244758,50.9414706 C33.1244758,50.9414706 33.0895127,50.9589124 33.0195855,50.9937966 C32.9496582,51.0286808 32.879732,51.0461226 32.8098047,51.0461226 L32.600024,50.9414706 C32.4601695,50.8717022 32.2678724,50.7147256 32.0231269,50.4705363 C31.7783815,50.2263469 31.6210475,50.0693703 31.5511203,49.9996019 L31.5511203,48.7437771 L31.5511203,47.3833002 C31.6210475,47.2437634 31.7783815,46.7902756 32.0231269,46.0228233 C32.2678724,45.255371 32.4601695,44.6972322 32.600024,44.3483902 C32.6699512,44.2088534 32.8272852,43.8600167 33.0720306,43.3018695 C33.3167761,42.7437223 33.5090732,42.3948856 33.6489277,42.2553488 L34.1733795,41.7320885 C34.2433068,41.5925517 34.4006408,41.3483659 34.6453862,40.999524 C34.8901316,40.650682 35.0824287,40.4064963 35.2222833,40.2669595 C35.3621378,39.9878859 35.5544349,39.5867236 35.7991803,39.0634607 C36.0439257,38.5401977 36.1662966,38.2436865 36.1662966,38.1739181 C36.2362239,38.1041497 36.271187,37.859964 36.271187,37.4413536 L36.271187,36.3948329 L36.271187,35.5576163 C36.271187,34.9994692 36.2362239,34.6855161 36.1662966,34.6157477 C36.0963693,34.6157477 35.9390353,34.6855151 35.6942899,34.8250519 C35.4495445,34.9645887 35.2922105,35.0692397 35.2222833,35.1390081 C35.152356,35.1390081 35.0474667,35.1913336 34.9076121,35.2959862 C34.7677576,35.4006388 34.6978314,35.5227316 34.6978314,35.6622684 C34.068486,36.639026 33.404187,37.6506525 32.7049143,38.6971784 C32.0056417,39.7437044 31.131564,40.9297493 30.0826551,42.2553488 C29.9428005,42.3948856 29.7505035,42.6565131 29.505758,43.0402393 C29.2610126,43.4239655 29.1036786,43.6855931 29.0337514,43.8251298 C28.9638241,43.8251298 28.8589348,43.8948972 28.7190803,44.034434 C28.5792257,44.1739708 28.5092995,44.2786218 28.5092995,44.3483902 C28.4393722,44.4181586 28.2295936,44.6449025 27.8799573,45.0286286 C27.530321,45.4123548 27.1806899,45.8135171 26.8310536,46.2321274 C26.4814173,46.6507378 26.1317862,47.0519001 25.7821499,47.4356262 C25.4325136,47.8193524 25.2227349,48.0460963 25.1528076,48.1158647 C25.0129531,48.3251699 24.7332483,48.6216811 24.3136847,49.0054073 C23.8941211,49.3891335 23.6843425,49.6158773 23.6843425,49.6856457 C23.6144152,49.6856457 23.4395997,49.7554131 23.1598906,49.8949499 C22.8801815,50.0344867 22.5829951,50.1914632 22.2683224,50.3658842 C21.9536498,50.5403052 21.6564633,50.6798399 21.3767543,50.7844925 C21.0970452,50.8891451 20.9222297,50.9065869 20.8523024,50.8368185 C20.3628116,50.3484397 20.1705145,49.8775101 20.2754054,49.4240156 C20.3802963,48.970521 20.7124458,48.3600567 21.2718639,47.5926043 C21.3417912,47.5228359 21.5340883,47.3135339 21.848761,46.9646919 C22.1634336,46.61585 22.4955832,46.2321295 22.8452195,45.8135192 C23.1948558,45.3949088 23.5619684,44.9763047 23.9465684,44.5576943 C24.3311683,44.139084 24.6283547,43.7902472 24.8381365,43.5111736 L25.6772595,42.6739571 C25.7471868,42.6041887 25.9394839,42.3774448 26.2541565,41.9937186 C26.5688292,41.6099925 26.9184603,41.1913884 27.3030602,40.7378938 C27.6876602,40.2843992 28.0372913,39.8657951 28.351964,39.482069 C28.6666366,39.0983428 28.8938968,38.8367152 29.0337514,38.6971784 C29.1036786,38.62741 29.2610126,38.418108 29.505758,38.069266 C29.7505035,37.720424 30.0127268,37.3367036 30.2924358,36.9180933 C30.5721449,36.4994829 30.8343682,36.1157625 31.0791136,35.7669205 C31.323859,35.4180785 31.481193,35.2087765 31.5511203,35.1390081 C31.6909748,34.9994713 31.9357165,34.6680764 32.2853529,34.1448134 C32.6349892,33.6215504 32.8447678,33.2901555 32.9146951,33.1506187 C32.9846224,33.0808504 33.1069932,32.906432 33.2818114,32.6273584 C33.4566295,32.3482848 33.5790004,32.1389828 33.6489277,31.999446 C33.718855,31.8599092 33.9635967,31.5285143 34.3831603,31.0052513 C34.8027239,30.4819884 35.0824287,30.1505935 35.2222833,30.0110567 C35.2222833,29.9412883 35.2922095,29.7668699 35.432064,29.4877963 C35.5719185,29.2087227 35.6418447,29.0343044 35.6418447,28.964536 L36.6907484,27.9180153 C36.7606757,27.9180153 36.8830466,27.9005734 37.0578647,27.8656892 C37.2326829,27.830805 37.3900169,27.8133632 37.5298714,27.8133632 C37.6697259,27.8133632 37.8270599,27.830805 38.0018781,27.8656892 C38.1766962,27.9005734 38.264104,27.9180153 38.264104,27.9180153 C38.4039585,28.0575521 38.7361081,28.3715051 39.2605625,28.8598839 C39.785017,29.3482627 40.1171665,29.7319831 40.2570211,30.0110567 C40.3269483,30.0808251 40.4143561,30.3250108 40.519247,30.7436212 C40.6241379,31.1622315 40.7115456,31.4064172 40.7814729,31.4761856 C40.8514002,31.545954 41.0087342,31.6331632 41.2534796,31.7378158 C41.498225,31.8424684 41.6905221,31.9296776 41.8303766,31.999446 L42.1450477,31.999446 L42.3548285,31.999446 C42.494683,31.999446 42.6694985,31.9296786 42.8792803,31.7901418 C43.0890621,31.6506051 43.2638777,31.545954 43.4037322,31.4761856 L43.928184,30.9529253 C44.0680386,30.8133885 44.4001881,30.6215283 44.9246426,30.3773389 C45.449097,30.1331495 45.7812466,30.0110567 45.9211011,30.0110567 C46.2707374,29.8715199 46.7602209,29.7319852 47.3895663,29.5924484 C48.0189116,29.4529116 48.4035058,29.4180279 48.5433604,29.4877963 L49.5922641,30.534317 C49.6621913,30.6040854 49.8195253,30.8482711 50.0642707,31.2668815 C50.3090162,31.6854919 50.4663501,31.9296776 50.5362774,31.999446 L51.0607293,32.5227063 L51.3754004,32.5227063 L51.5851811,32.5227063 C51.7250356,32.4529379 52.0746667,32.2087522 52.6340848,31.7901418 C53.1935029,31.3715315 53.543134,31.0924621 53.6829885,30.9529253 C53.7529158,30.9529253 53.9277313,30.8831579 54.2074404,30.7436212 C54.4871494,30.6040844 54.661965,30.534317 54.7318922,30.534317 C54.8018195,30.3947802 55.0465613,30.1157108 55.4661248,29.6971005 C55.8856884,29.2784901 56.1304302,29.0343044 56.2003574,28.964536 C56.2702847,28.8947676 56.4451002,28.8075584 56.7248093,28.7029058 C57.0045183,28.5982532 57.1793339,28.511044 57.2492611,28.4412756 C57.3891157,28.3715072 57.7387467,28.1273215 58.2981648,27.7087111 C58.857583,27.2901008 59.207214,27.0110314 59.3470686,26.8714946 L59.5568493,26.8714946 L59.8715204,26.8714946 C59.9414477,26.941263 60.0987817,27.0982395 60.3435271,27.3424289 C60.5882725,27.5866183 60.7456065,27.7784785 60.8155338,27.9180153 C60.9553883,28.0575521 61.1651669,28.3366215 61.444876,28.7552318 C61.724585,29.1738422 61.8644375,29.4180279 61.8644375,29.4877963 C61.8644375,29.4877963 61.881919,29.6970984 61.9168826,30.1157087 C61.9518463,30.5343191 61.9693278,30.8133885 61.9693278,30.9529253 C61.9693278,31.1622305 61.9518463,31.4587417 61.9168826,31.8424679 C61.881919,32.2261941 61.8644375,32.4529379 61.8644375,32.5227063 C61.8644375,33.2901587 61.7420666,34.0227158 61.4973212,34.7203998 C61.2525757,35.4180837 60.9728709,36.1331991 60.6581982,36.8657672 C60.3435255,37.5983354 60.0638207,38.3308925 59.8190752,39.0634607 C59.5743298,39.7960288 59.4519589,40.5809115 59.4519589,41.4181322 C59.4519589,41.4879006 59.4169958,41.8018537 59.3470686,42.3600009 C59.2771413,42.918148 59.2072151,43.5111705 59.1372878,44.139086 C59.0673606,44.7670016 59.0149159,45.3600241 58.9799523,45.9181712 C58.9449886,46.4763184 58.9275071,46.7902715 58.9275071,46.8600399 C59.1372889,47.5577238 59.4519568,47.854235 59.8715204,47.7495824 C60.291084,47.6449299 60.7805675,47.522837 61.3399856,47.3833002 C61.3399856,47.3833002 61.3225041,47.5751604 61.2875404,47.9588866 C61.2525768,48.3426128 61.2001321,48.7786587 61.1302049,49.2670375 C61.0602776,49.7554162 60.9903514,50.1914622 60.9204241,50.5751883 C60.8504969,50.9589145 60.7805706,51.1507747 60.7106434,51.1507747 L59.2421782,51.9879913 L57.1443708,51.7786871 C56.934589,51.7786871 56.6898472,51.7089198 56.4101382,51.569383 C56.1304291,51.4298462 55.9206505,51.2903115 55.7807959,51.1507747 L55.2563441,49.8949499 Z M64.5915871,47.5926043 C64.6615144,47.8019095 64.7314406,48.1158626 64.8013678,48.534473 C64.8712951,48.9530833 64.9062582,49.1972691 64.9062582,49.2670375 C64.9062582,49.2670375 65.0111475,49.3891303 65.2209293,49.6333197 C65.4307111,49.8775091 65.6754529,50.1914622 65.9551619,50.5751883 C66.234871,50.9589145 66.5145758,51.3251931 66.7942849,51.6740351 C67.0739939,52.022877 67.3187357,52.2670628 67.5285175,52.4065995 L68.1578597,52.8252078 L69.8361056,52.5112516 L71.7241323,52.3019475 C71.7241323,52.3019475 71.8639848,52.1972964 72.1436938,51.9879913 C72.4234029,51.7786861 72.7555524,51.5519422 73.1401523,51.3077528 C73.5247523,51.0635634 73.8918649,50.8193777 74.2415012,50.5751883 C74.5911375,50.3309989 74.8708424,50.1042551 75.0806242,49.8949499 C75.0806242,49.6158763 75.2379582,49.4065742 75.5526309,49.2670375 C75.8673035,49.1275007 76.1994531,48.8833149 76.5490894,48.534473 C76.6889439,48.3949362 77.0560565,48.0112158 77.6504383,47.3833002 C78.24482,46.7553846 78.6468958,46.3716642 78.8566775,46.2321274 C78.9965321,46.0228223 79.2937185,45.62166 79.7482457,45.0286286 C80.2027729,44.4355973 80.4999593,44.034435 80.6398139,43.8251298 C80.7796684,43.7553614 80.9195208,43.5111757 81.0593753,43.0925654 C81.1992299,42.673955 81.3390823,42.3948856 81.4789368,42.2553488 L82.947402,37.8599619 C82.947402,37.7204251 82.9998467,37.4587975 83.1047376,37.0750714 C83.2096285,36.6913452 83.2620731,36.4297176 83.2620731,36.2901808 C83.4019277,35.9413389 83.4543723,35.3657582 83.4194087,34.5634217 C83.384445,33.7610851 83.3669635,33.2901555 83.3669635,33.1506187 L82.8425116,30.0110567 L82.5278405,27.3947549 C82.4579133,27.2552181 82.2481346,26.8714977 81.8984983,26.2435822 C81.548862,25.6156666 81.3041202,25.2319462 81.1642657,25.0924094 C81.1642657,25.022641 81.0069317,24.9703155 80.692259,24.9354313 C80.3775864,24.9005471 80.1852893,24.8482216 80.115362,24.7784532 C79.9055802,24.7784532 79.520986,24.7435695 78.9615679,24.6738011 C78.4021498,24.6040327 78.0525187,24.5342654 77.9126642,24.464497 L77.0735412,24.569149 L76.3393086,24.6738011 C76.1994541,24.8133379 75.8847862,24.9703144 75.3952953,25.1447354 C74.9058045,25.3191564 74.5561734,25.476133 74.3463916,25.6156697 C74.2764643,25.6156697 74.1016488,25.6854371 73.8219397,25.8249739 C73.5422307,25.9645107 73.3674152,26.0691617 73.2974879,26.1389301 L70.5703382,28.6505798 C70.500411,28.7203482 70.3255954,28.842441 70.0458864,29.016862 C69.7661773,29.191283 69.5913618,29.2784922 69.5214345,29.2784922 C69.5214345,29.3482606 69.4515083,29.4529116 69.3116538,29.5924484 C69.1717993,29.7319852 69.1018731,29.8366362 69.1018731,29.9064046 C68.9620185,30.0459414 68.6997952,30.2552434 68.3151953,30.534317 C67.9305953,30.8133906 67.7033351,30.987809 67.6334079,31.0575774 L66.7942849,32.3134022 C66.7942849,32.3831706 66.7418402,32.5750308 66.6369493,32.8889886 C66.5320584,33.2029464 66.4796138,33.3948066 66.4796138,33.464575 C66.4096865,33.5343434 66.1649448,33.8134127 65.7453812,34.3017915 C65.3258176,34.7901703 65.116039,35.0692397 65.116039,35.1390081 C65.0461117,35.3483133 64.9412224,35.6622663 64.8013678,36.0808767 C64.6615133,36.4994871 64.5216609,36.935533 64.3818064,37.3890276 C64.2419518,37.8425221 64.0846179,38.2785681 63.9097997,38.6971784 C63.7349815,39.1157888 63.6126107,39.3948582 63.5426834,39.534395 L63.6475738,40.1623074 C63.7874283,40.8599914 63.9972069,41.5053393 64.276916,42.0983707 C64.556625,42.6914021 64.7314406,43.33675 64.8013678,44.034434 C64.8712951,44.1042024 64.8887767,44.2088534 64.853813,44.3483902 C64.8188494,44.487927 64.8013678,44.5576943 64.8013678,44.5576943 C64.8013678,44.6274627 64.7314416,44.8018811 64.5915871,45.0809547 C64.4517326,45.3600283 64.3818064,45.5344466 64.3818064,45.604215 C64.4517336,45.7437518 64.5041783,46.0577049 64.5391419,46.5460836 C64.5741055,47.0344624 64.5915871,47.3832992 64.5915871,47.5926043 L64.5915871,47.5926043 Z M106.990976,51.829489 C106.941768,51.8532486 106.898911,51.8711987 106.862407,51.8833392 C106.792479,51.9531076 106.617664,51.9879913 106.337955,51.9879913 L105.813503,51.9879913 L105.184161,51.9879913 C104.904452,51.9879913 104.764599,51.9531076 104.764599,51.8833392 C104.624745,51.8833392 104.24015,51.6740371 103.610805,51.2554268 C102.98146,50.8368164 102.491976,50.557747 102.14234,50.4182102 C102.072413,50.3484418 101.915079,50.1740235 101.670333,49.8949499 C101.425588,49.6158763 101.268254,49.4414579 101.198327,49.3716895 L100.149423,47.9065606 C100.009568,47.7670238 99.904679,47.5402799 99.8347517,47.2263221 C99.7648245,46.9123643 99.5900089,46.8251551 99.3102999,46.9646919 C98.7508818,47.2437655 98.1040643,47.6449278 97.369828,48.1681907 C96.6355917,48.6914537 96.0936636,49.0228486 95.7440273,49.1623854 C95.4643182,49.3019222 95.079724,49.4588987 94.5902332,49.6333197 C94.1007423,49.8077407 93.8210375,49.8949499 93.7511102,49.8949499 C93.681183,49.9647183 93.4714043,49.9996019 93.121768,49.9996019 L92.3875354,49.9996019 L91.6533028,49.9996019 C91.3735937,49.9996019 91.1987782,49.9647183 91.1288509,49.8949499 C90.9889964,49.8949499 90.6568469,49.668206 90.1323924,49.2147114 C89.6079379,48.7612169 89.2757884,48.4995893 89.1359339,48.4298209 C89.1359339,48.4298209 89.1009708,48.4123791 89.0310435,48.3774949 C88.9611163,48.3426107 88.89119,48.3251688 88.8212628,48.3251688 L88.611482,48.4298209 C88.4716275,48.4995893 88.2094042,48.6565658 87.8248043,48.9007552 C87.4402043,49.1449446 87.177981,49.3368048 87.0381265,49.4763416 C86.9681992,49.54611 86.7234575,49.7902957 86.3038939,50.2089061 C85.8843303,50.6275165 85.6046254,50.8717022 85.4647709,50.9414706 C85.3249164,51.0810074 85.0626931,51.2728676 84.6780931,51.517057 C84.2934932,51.7612463 84.066233,51.9182229 83.9963057,51.9879913 L83.5767442,51.9879913 L83.0522924,51.9879913 C82.9823651,51.9879913 82.8774758,51.9182239 82.7376213,51.7786871 C82.5977667,51.6391503 82.5278405,51.5344993 82.5278405,51.4647309 C82.5278405,51.4647309 82.510359,51.3251962 82.4753953,51.0461226 C82.4404317,50.7670491 82.4229502,50.557747 82.4229502,50.4182102 C82.4229502,50.2786734 82.4404317,50.0868132 82.4753953,49.8426238 C82.510359,49.5984345 82.5278405,49.4763416 82.5278405,49.4763416 C82.5278405,49.4065732 82.667693,49.2495967 82.947402,49.0054073 C83.2271111,48.7612179 83.4368897,48.5693577 83.5767442,48.4298209 C83.7165988,48.2902841 84.0487483,48.0286566 84.5732028,47.6449304 C85.0976572,47.2612042 85.3948436,46.9995766 85.4647709,46.8600399 C85.6745527,46.6507347 85.9542576,46.2495724 86.3038939,45.6565411 C86.6535302,45.0635097 86.9856797,44.4530454 87.3003524,43.8251298 C87.6150251,43.1972143 87.8947299,42.6216337 88.1394754,42.0983707 C88.3842208,41.5751077 88.5065917,41.3134802 88.5065917,41.3134802 C88.5765189,41.2437118 88.6639267,40.9995261 88.7688176,40.5809157 C88.8737085,40.1623053 88.9785978,39.7088175 89.0834887,39.2204388 C89.1883796,38.73206 89.2932689,38.2785722 89.3981598,37.8599619 C89.5030507,37.4413515 89.5554954,37.1971658 89.5554954,37.1273974 C89.5554954,37.057629 89.60794,36.8483269 89.7128309,36.499485 C89.8177218,36.150643 89.9226112,35.7843644 90.027502,35.4006382 C90.1323929,35.0169121 90.2372823,34.6506335 90.3421732,34.3017915 C90.4470641,33.9529495 90.4995087,33.7087638 90.4995087,33.569227 C90.569436,33.4296902 90.6743253,33.0808535 90.8141798,32.5227063 C90.9540344,31.9645592 91.0239606,31.6506061 91.0239606,31.5808377 C91.0938878,31.2319957 91.2162587,30.7436243 91.3910769,30.1157087 C91.565895,29.4877932 91.723229,28.9819799 91.8630835,28.5982537 C92.0029381,28.2145276 92.0728643,27.9877837 92.0728643,27.9180153 L93.121768,26.8714946 C93.1916953,26.8714946 93.3490292,26.8017272 93.5937747,26.6621904 C93.8385201,26.5226536 94.0308172,26.4528863 94.1706717,26.4528863 L94.3804524,26.3482342 C94.4503797,26.3482342 94.5028244,26.3656761 94.537788,26.4005603 C94.5727516,26.4354445 94.6251963,26.4528863 94.6951236,26.4528863 L95.6391369,27.3947549 C95.7090642,27.4645233 95.7440273,27.8831274 95.7440273,28.6505798 L95.7440273,29.6971005 L95.7440273,31.0575774 C95.7440273,31.6157245 95.7090642,31.9296776 95.6391369,31.999446 C95.6391369,32.1389828 95.5342476,32.5575869 95.3244658,33.2552708 C95.114684,33.9529548 94.9049053,34.7029538 94.6951236,35.5052903 C94.4853418,36.3076269 94.2755631,37.040184 94.0657813,37.7029838 C93.8559995,38.3657835 93.7511102,38.7320621 93.7511102,38.8018305 C93.681183,38.9413673 93.5762936,39.2029949 93.4364391,39.586721 C93.2965846,39.9704472 93.2266584,40.1971911 93.2266584,40.2669595 C93.0868038,40.5460331 92.964433,40.9471953 92.8595421,41.4704583 C92.7546512,41.9937212 92.7022065,42.2902325 92.7022065,42.3600009 C92.6322792,42.5693061 92.6322792,42.9704683 92.7022065,43.5634997 C92.7721338,44.156531 92.8070969,44.5228096 92.8070969,44.6623464 C92.9469514,44.6623464 93.1916932,44.7146719 93.5413295,44.8193245 C93.8909658,44.9239771 94.1357075,44.9414189 94.2755621,44.8716505 C94.4154166,44.8716505 94.7475661,44.7495577 95.2720206,44.5053683 C95.7964751,44.2611789 96.1286246,44.0693187 96.2684791,43.9297819 L97.3173828,42.8832612 C97.4572374,42.7437244 97.6495344,42.4820969 97.8942799,42.0983707 C98.1390253,41.7146445 98.2963593,41.453017 98.3662865,41.3134802 C98.4362138,41.1739434 98.5935478,40.7204556 98.8382932,39.9530033 C99.0830386,39.1855509 99.2753357,38.6274121 99.4151902,38.2785702 C99.4151902,38.2088018 99.4501534,37.9297324 99.5200806,37.4413536 C99.5900079,36.9529748 99.6774156,36.4471616 99.7823065,35.9238986 C99.8871974,35.4006356 99.9920868,34.8948223 100.096978,34.4064436 C100.201869,33.9180648 100.254313,33.6389954 100.254313,33.569227 C100.32424,33.4296902 100.481574,33.0982953 100.72632,32.5750324 C100.971065,32.0517694 101.163362,31.7203745 101.303217,31.5808377 C101.373144,31.4413009 101.530478,31.1796734 101.775224,30.7959472 C102.019969,30.412221 102.212266,30.1505935 102.352121,30.0110567 L102.876572,29.4877963 C103.086354,29.3482595 103.383541,29.1389575 103.768141,28.8598839 C104.152741,28.5808103 104.380001,28.4412756 104.449928,28.4412756 C104.449928,28.4412756 104.659707,28.5808103 105.07927,28.8598839 C105.498834,29.1389575 105.778539,29.3482595 105.918393,29.4877963 L106.967297,30.534317 L106.967297,30.7436212 L106.967297,31.0575774 C106.89737,31.1971141 106.740036,31.6157182 106.49529,32.3134022 C106.250545,33.0110861 106.058248,33.4296902 105.918393,33.569227 C105.778539,33.7785322 105.56876,34.1796945 105.289051,34.7727258 C105.009342,35.3657572 104.712156,35.9936633 104.397483,36.6564631 C104.08281,37.3192628 103.785624,37.947169 103.505915,38.5402003 C103.226206,39.1332317 103.016427,39.5343939 102.876572,39.7436991 C102.876572,39.8134675 102.841609,40.0053277 102.771682,40.3192855 C102.701755,40.6332433 102.666792,40.8599872 102.666792,40.999524 L102.666792,42.0460447 C102.666792,42.9530338 102.789163,43.9472185 103.033908,45.0286286 C103.278653,46.1100388 103.715692,46.7553867 104.345038,46.9646919 C104.345038,46.9646919 104.397482,47.0344593 104.502373,47.1739961 C104.607264,47.3135329 104.729635,47.3833002 104.86949,47.3833002 C104.939417,47.4530686 105.096751,47.5577196 105.341496,47.6972564 C105.586242,47.8367932 105.778539,47.9065606 105.918393,47.9065606 C106.058248,47.9763289 106.407879,47.9588871 106.967297,47.8542345 C107.200718,47.8105675 107.397614,47.7820842 107.557987,47.7687845 C107.711687,47.6632257 107.829461,47.5696154 107.91131,47.4879523 C109.799346,46.3018896 111.180389,44.8193334 112.05448,43.0402393 C112.928571,41.2611452 113.750204,39.5344034 114.519404,37.8599619 C114.659258,37.5808883 114.886518,37.1622842 115.201191,36.604137 C115.515864,36.0459899 115.708161,35.6273858 115.778088,35.3483122 L116.512321,32.8366625 L115.568307,31.8947939 C115.49838,31.7552571 115.218675,31.4761877 114.729184,31.0575774 C114.239694,30.638967 113.994952,30.3598976 113.994952,30.2203608 L113.785171,29.4877963 L113.680281,27.7087111 C113.680281,27.2203324 113.837615,26.7145191 114.152287,26.1912561 C114.46696,25.6679932 114.851554,25.1970636 115.306081,24.7784532 C115.760609,24.3598428 116.250092,24.0458897 116.774547,23.8365846 C117.299001,23.6272794 117.771003,23.5923957 118.190567,23.7319325 C118.400348,23.8714693 118.749979,23.9761203 119.23947,24.0458887 C119.728961,24.1156571 120.008666,24.2900755 120.078593,24.569149 C120.847793,24.917991 121.354758,25.6156645 121.599504,26.6621904 C121.844249,27.7087164 121.861731,28.5110409 121.651949,29.069188 C121.791803,29.069188 122.08899,29.0517462 122.543517,29.016862 C122.998044,28.9819778 123.487528,28.9296523 124.011982,28.8598839 C124.536437,28.7901155 125.043402,28.73779 125.532893,28.7029058 C126.022383,28.6680216 126.372015,28.6505798 126.581796,28.6505798 C126.721651,28.5808114 127.0538,28.4936022 127.578255,28.3889496 C128.102709,28.284297 128.434859,28.1970878 128.574713,28.1273194 C128.644641,28.057551 128.819456,27.9529 129.099165,27.8133632 C129.378874,27.6738264 129.55369,27.6040591 129.623617,27.6040591 L130.148069,27.6040591 L130.672521,27.6040591 C130.812375,27.8133643 131.057117,28.3191775 131.406753,29.1215141 C131.75639,29.9238506 132.001131,30.4296639 132.140986,30.6389691 L132.140986,30.8482732 L132.140986,31.1622294 C132.140986,31.3715346 132.053578,31.7378132 131.87876,32.2610762 C131.703942,32.7843391 131.616534,33.115734 131.616534,33.2552708 C131.616534,33.3250392 131.546608,33.4820157 131.406753,33.7262051 C131.266899,33.9703945 131.196973,34.127371 131.196973,34.1971394 C131.127045,34.3366762 131.022156,34.685513 130.882302,35.2436601 C130.742447,35.8018073 130.585113,36.3948298 130.410295,37.0227453 C130.235477,37.6506609 130.078143,38.2436833 129.938288,38.8018305 C129.798434,39.3599777 129.693544,39.7088144 129.623617,39.8483512 C129.623617,39.9181196 129.536209,40.092538 129.361391,40.3716115 C129.186573,40.6506851 129.099165,40.8251035 129.099165,40.8948719 L128.889384,43.3018695 L128.155152,44.8716505 C128.225079,45.1507241 128.469821,45.6390956 128.889384,46.3367795 C129.378875,46.9646951 129.693543,47.3484155 129.833398,47.4879523 C129.973252,47.6274891 130.183031,47.6972564 130.46274,47.6972564 C130.672522,47.6972564 131.057116,47.6274891 131.616534,47.4879523 C132.036098,47.3484155 132.315803,47.2088808 132.455657,47.069344 C132.525584,47.069344 132.630474,47.1216695 132.770328,47.2263221 C132.910183,47.3309747 132.980109,47.4181839 132.980109,47.4879523 L132.980109,48.0112126 L132.980109,48.534473 C132.980109,49.1623885 132.805293,49.6682018 132.455657,50.051928 C132.106021,50.4356542 131.75639,50.8019327 131.406753,51.1507747 C130.98719,51.5693851 130.42778,51.7786871 129.728507,51.7786871 C129.65858,51.8484555 129.483765,51.8310137 129.204056,51.7263611 C128.924347,51.6217085 128.62716,51.4996156 128.312487,51.3600788 C127.997815,51.2205421 127.71811,51.0810074 127.473364,50.9414706 C127.228619,50.8019338 127.106248,50.6623991 127.106248,50.5228623 C127.106248,50.4530939 127.036322,50.2961174 126.896467,50.051928 C126.756613,49.8077386 126.651724,49.6158784 126.581796,49.4763416 C126.511869,49.2670364 126.40698,49.0054089 126.267125,48.6914511 C126.127271,48.3774933 126.0049,48.0635402 125.900009,47.7495824 C125.795118,47.4356247 125.70771,47.1391134 125.637783,46.8600399 C125.567856,46.5809663 125.532893,46.4414316 125.532893,46.4414316 C125.532893,46.3716632 125.480448,46.1100356 125.375557,45.6565411 C125.270666,45.2030465 125.218221,44.8018842 125.218221,44.4530423 C125.218221,44.0344319 125.270666,43.3542002 125.375557,42.4123269 C125.480448,41.4704536 125.532893,40.9646403 125.532893,40.8948719 C125.532893,40.6855667 125.585337,40.1971953 125.690228,39.4297429 C125.795119,38.6622906 125.91749,38.1390355 126.057344,37.8599619 C126.057344,37.7901935 126.127271,37.6157751 126.267125,37.3367015 C126.40698,37.0576279 126.511869,36.8832096 126.581796,36.8134412 C126.581796,36.5343676 126.546833,36.0285543 126.476906,35.2959862 C126.406979,34.563418 126.372016,34.0924884 126.372016,33.8831832 C126.232161,33.8831832 126.004901,33.8482996 125.690228,33.7785312 C125.375555,33.7087628 125.148295,33.6738791 125.008441,33.6738791 C124.798659,33.7436475 124.501473,33.7610893 124.116873,33.7262051 C123.732273,33.6913209 123.312715,33.6564373 122.858188,33.6215531 C122.403661,33.5866689 121.984104,33.5517852 121.599504,33.516901 C121.214904,33.4820168 120.917717,33.4994586 120.707936,33.569227 C120.218445,34.0576058 119.781406,34.7552793 119.396806,35.6622684 C119.012206,36.5692576 118.627612,37.5460004 118.243012,38.5925264 C117.858412,39.6390523 117.508781,40.6681207 117.194108,41.6797624 C116.879435,42.6914041 116.547286,43.5460542 116.19765,44.2437381 C116.057795,44.3832749 115.88298,44.6449025 115.673198,45.0286286 C115.463416,45.4123548 115.2886,45.708866 115.148746,45.9181712 C115.008891,46.1274764 114.65926,46.6158479 114.099842,47.3833002 C113.540424,48.1507526 112.981014,48.7786587 112.421596,49.2670375 C112.281742,49.4065742 112.089445,49.5984345 111.844699,49.8426238 C111.599954,50.0868132 111.44262,50.2089061 111.372693,50.2089061 C111.232838,50.3484429 110.970615,50.5054194 110.586015,50.6798404 C110.201415,50.8542614 109.939191,50.9763542 109.799337,51.0461226 C109.659482,51.1856594 109.257407,51.3775196 108.593098,51.621709 C107.928789,51.8658984 107.49175,51.9879913 107.281968,51.9879913 C107.182457,51.9345301 107.08546,51.881696 106.990976,51.829489 Z M75.7099664,31.8947939 C75.7099664,31.5459519 75.6050771,31.3715336 75.3952953,31.3715336 C75.1855135,31.3715336 75.0806242,31.1622315 75.0806242,30.7436212 L74.9757338,30.1157087 C74.9757338,30.1157087 75.0281785,30.0459414 75.1330694,29.9064046 C75.2379603,29.7668678 75.325368,29.6622168 75.3952953,29.5924484 C75.5351498,29.52268 75.7099654,29.4005871 75.9197472,29.2261661 C76.129529,29.0517452 76.2693814,28.964536 76.3393086,28.964536 C76.4092359,28.8947676 76.5665699,28.8424421 76.8113153,28.8075579 C77.0560607,28.7726737 77.2483578,28.7203482 77.3882124,28.6505798 L78.4371161,28.6505798 C78.5769706,28.5808114 78.6993415,28.615695 78.8042324,28.7552318 C78.9091233,28.8947686 78.996531,28.9994196 79.0664583,29.069188 L79.276239,30.8482732 L79.5909101,32.6273584 C79.5209829,32.906432 79.5209829,33.4296871 79.5909101,34.1971394 C79.6608374,34.9645918 79.6258743,35.4878469 79.4860198,35.7669205 C79.4160925,35.9762257 79.3286847,36.4994808 79.2237938,37.3367015 C79.1189029,38.1739223 78.9965321,38.6971774 78.8566775,38.9064826 C78.7867503,38.9064826 78.7168241,38.9936918 78.6468968,39.1681127 C78.5769695,39.3425337 78.5070433,39.4646266 78.4371161,39.534395 C78.4371161,39.6041634 78.3846714,39.7785818 78.2797805,40.0576553 C78.1748896,40.3367289 78.0874818,40.5111473 78.0175546,40.5809157 C77.6679183,41.0692945 77.405695,41.5576659 77.2308768,42.0460447 C77.0560586,42.5344234 76.7588722,42.9879112 76.3393086,43.4065216 C76.1295269,43.6158267 75.6575249,44.0344308 74.9232886,44.6623464 C74.1890524,45.290262 73.7170504,45.708866 73.5072686,45.9181712 C73.2275596,46.1274764 72.8604469,46.389104 72.4059197,46.7030618 C71.9513925,47.0170195 71.6542061,47.2088797 71.5143516,47.2786481 C71.3045698,47.3484165 70.8325678,47.4705094 70.0983316,47.6449304 C69.3640953,47.8193514 68.8920934,47.9414442 68.6823116,48.0112126 C68.6823116,47.8019074 68.66483,47.5053962 68.6298664,47.12167 C68.5949028,46.7379439 68.5599396,46.3018979 68.524976,45.8135192 C68.4900124,45.3251404 68.4550493,44.8890945 68.4200856,44.5053683 C68.385122,44.1216421 68.3676405,43.8251309 68.3676405,43.6158257 C68.4375677,43.4065205 68.542457,43.0576838 68.6823116,42.569305 C68.8221661,42.0809262 68.9620185,41.6623221 69.1018731,41.3134802 C69.3815821,40.8948698 69.5913608,40.4762657 69.7312153,40.0576553 C69.8710698,39.639045 70.1507747,39.1855572 70.5703382,38.6971784 C71.0598291,38.0692629 71.6017573,37.3715894 72.196139,36.604137 C72.7905207,35.8366847 73.2275596,35.3134296 73.5072686,35.034356 C73.5771959,34.9645876 73.8044561,34.7552856 74.189056,34.4064436 C74.573656,34.0576016 74.8358793,33.8482996 74.9757338,33.7785312 C75.1155884,33.4994576 75.2554408,33.23783 75.3952953,32.9936406 C75.5351498,32.7494513 75.6750023,32.4878237 75.8148568,32.2087501 L75.7099664,31.8947939 Z M116.512321,28.8598839 L116.722101,28.964536 C116.792029,28.964536 116.931881,29.0168615 117.141663,29.1215141 C117.351445,29.2261667 117.456334,29.3133759 117.456334,29.3831442 L117.980786,29.3831442 C118.12064,29.3133759 118.22553,29.2436085 118.295457,29.1738401 C118.365384,29.1040717 118.470274,29.069188 118.610128,29.069188 C118.749983,28.9296512 118.872354,28.5982563 118.977244,28.0749934 C119.082135,27.5517304 119.029691,27.2203355 118.819909,27.0807987 C118.680054,26.9412619 118.382868,26.8191691 117.928341,26.7145165 C117.473813,26.6098639 117.071738,26.6621894 116.722101,26.8714946 L116.617211,26.9761466 C116.547284,26.9761466 116.477358,27.0110303 116.40743,27.0807987 C116.337503,27.1505671 116.30254,27.1854508 116.30254,27.1854508 L116.30254,27.9180153 L116.30254,28.5459277 C116.30254,28.5459277 116.320022,28.5808114 116.354985,28.6505798 C116.389949,28.7203482 116.442393,28.7901155 116.512321,28.8598839 L116.512321,28.8598839 Z" id="Amour"></path>
                    <path d="M14.9679084,85.4887475 C14.9679084,85.6535543 14.9933638,85.9144943 15.0442753,86.2715756 C15.0951868,86.6286568 15.1206422,86.8071948 15.1206422,86.8071948 C15.3242882,87.0818726 15.8843064,87.4664159 16.8007135,87.9608361 C17.7171207,88.4552563 18.4298711,88.7573974 18.9389862,88.8672686 L19.2444537,88.8672686 L19.5499212,88.8672686 C19.6517442,88.8672686 19.8044764,88.8123338 20.0081225,88.7024627 C20.2117685,88.5925915 20.31359,88.5101894 20.31359,88.4552538 C20.415413,88.4003182 20.5681452,88.276715 20.7717913,88.0844405 C20.9754373,87.892166 21.0772588,87.7410954 21.0772588,87.6312243 L21.0772588,79.1437202 C21.0772588,79.0887846 21.1281695,78.896513 21.2299926,78.5668996 C21.3318156,78.2372861 21.4081817,77.8939439 21.4590932,77.5368627 C21.5100047,77.1797814 21.5863708,76.8501729 21.6881938,76.5480272 C21.7900168,76.2458816 21.8409276,76.0398762 21.8409276,75.9300051 C21.8409276,75.8201339 21.8918383,75.5729276 21.9936614,75.1883785 C22.0954844,74.8038295 22.1718505,74.3780852 22.222762,73.9111328 C22.2736735,73.4441804 22.3500396,73.018436 22.4518626,72.633887 C22.5536856,72.249338 22.6045964,72.0021316 22.6045964,71.8922604 C22.6045964,71.7823893 22.7318732,71.5214492 22.9864308,71.1094324 C23.2409883,70.6974156 23.3682652,70.4364755 23.3682652,70.3266044 L23.3682652,68.6785453 C23.3682652,68.5686742 23.4446313,68.1154625 23.5973658,67.3188966 C23.7501003,66.5223308 23.928288,65.9043148 24.131934,65.4648302 C24.131934,65.4098946 24.1573894,65.2313567 24.2083009,64.929211 C24.2592124,64.6270653 24.3355785,64.3249242 24.4374015,64.0227785 C24.5392245,63.7206329 24.641046,63.4322254 24.742869,63.1575475 C24.844692,62.8828697 24.8956028,62.690598 24.8956028,62.5807269 C24.8956028,62.5257913 24.9210582,62.319786 24.9719697,61.9627047 C25.0228812,61.6056235 25.0992473,61.2210802 25.2010703,60.8090634 C25.3028933,60.3970466 25.4047148,60.0125033 25.5065378,59.6554221 C25.6083608,59.2983408 25.6592716,59.0648681 25.6592716,58.954997 C25.6592716,58.9000614 25.7610931,58.7077898 25.9647391,58.3781763 C26.1683851,58.0485629 26.3211174,57.8562912 26.4229404,57.8013557 C26.4229404,57.6914845 26.4483957,57.4168107 26.4993073,56.9773261 C26.5502188,56.5378415 26.6265849,56.0708961 26.7284079,55.576476 C26.8302309,55.0820558 26.906597,54.6151104 26.9575085,54.1756258 C27.00842,53.7361412 27.0338754,53.4614674 27.0338754,53.3515962 C27.1356984,53.2417251 27.2884307,52.9670513 27.4920767,52.5275667 C27.6957227,52.0880821 27.7975442,51.8134084 27.7975442,51.7035372 C27.7975442,51.5936661 27.848455,51.3601934 27.950278,51.0031121 C28.052101,50.6460309 28.1539225,50.2752213 28.2557455,49.8906723 C28.3575685,49.5061232 28.4339346,49.1490473 28.4848461,48.8194339 C28.5357576,48.4898204 28.561213,48.242614 28.561213,48.0778073 L28.561213,46.4297483 C28.663036,46.3198771 28.7903129,46.1276055 28.9430474,45.8529276 C29.0957819,45.5782497 29.2230588,45.3859781 29.3248818,45.276107 L29.3248818,21.8736686 C29.2230588,21.7637974 29.0703266,21.6264606 28.8666805,21.4616538 C28.6630345,21.2968471 28.561213,21.1595102 28.561213,21.0496391 L28.561213,18.5775505 C28.561213,18.4127438 28.5357576,18.0419342 28.4848461,17.4651107 C28.4339346,16.8882871 28.3575685,16.2565375 28.2557455,15.5698428 C28.1539225,14.8831481 28.052101,14.2513984 27.950278,13.6745749 C27.848455,13.0977513 27.7975442,12.7269417 27.7975442,12.562135 L27.7975442,9.76043465 C27.7975442,9.37588561 27.7720888,8.81280441 27.7211773,8.07117413 C27.6702658,7.32954385 27.5938997,6.57419101 27.4920767,5.80509295 C27.3902537,5.03599489 27.2884322,4.32184311 27.1866092,3.6626162 C27.0847862,3.00338929 27.0338754,2.59137865 27.0338754,2.42657192 C27.0338754,2.15189404 26.9320539,1.76735078 26.7284079,1.27293059 C26.5247619,0.778510407 26.4229404,0.503836648 26.4229404,0.448901072 C26.3211174,0.393965496 25.9901975,0.325297056 25.4301709,0.242893692 C24.8701444,0.160490328 24.437403,0.0918218876 24.131934,0.0368863116 L22.9100639,0.0368863116 L21.8409276,0.0368863116 C21.7391046,0.0368863116 21.5863723,0.0918210636 21.3827263,0.201692216 C21.1790803,0.311563368 21.0772588,0.393965496 21.0772588,0.448901072 C21.0772588,0.6137078 21.0518034,0.888381559 21.0008919,1.27293059 C20.9499804,1.65747962 20.8736143,2.05575658 20.7717913,2.4677734 C20.6699683,2.87979022 20.5681468,3.27806717 20.4663238,3.6626162 C20.3645007,4.04716523 20.31359,4.32183899 20.31359,4.48664572 C20.31359,4.59651687 20.2117685,4.92612538 20.0081225,5.47548114 C19.8044764,6.0248369 19.6517442,6.35444541 19.5499212,6.46431657 C19.5499212,6.57418772 19.5244658,6.80766041 19.4735543,7.16474166 C19.4226428,7.5218229 19.3462767,7.90636617 19.2444537,8.31838299 C19.1426307,8.73039981 19.0662646,9.11494307 19.015353,9.47202431 C18.9644415,9.82910556 18.9389862,10.0351109 18.9389862,10.0900465 C18.8371631,10.1999176 18.6080648,10.4745914 18.2516842,10.914076 C17.8953037,11.3535606 17.6152946,11.6282343 17.4116486,11.7381055 C17.3098256,11.8479766 16.927995,12.053982 16.2661454,12.3561276 C15.6042958,12.6582733 15.2224652,12.8642786 15.1206422,12.9741498 C14.9169961,13.0840209 14.6369871,13.2900262 14.2806065,13.5921719 C13.9242259,13.8943176 13.6951276,14.0728555 13.5933046,14.1277911 C13.5933046,14.2376623 13.5423938,14.4299339 13.4405708,14.7046118 C13.3387478,14.9792896 13.2623817,15.2676971 13.2114702,15.5698428 C13.1605587,15.8719884 13.0841926,16.1741296 12.9823695,16.4762752 C12.8805465,16.7784209 12.8296358,16.9569588 12.8296358,17.0118944 C12.8296358,17.06683 12.7278143,17.2591016 12.5241683,17.5887151 C12.3205222,17.9183285 12.16779,18.1106002 12.065967,18.1655357 C12.065967,18.2754069 11.9641455,18.5500807 11.7604995,18.9895653 C11.5568534,19.4290499 11.455032,19.7037236 11.455032,19.8135948 C11.3532089,19.9234659 11.2004767,20.1294713 10.9968307,20.4316169 C10.7931846,20.7337626 10.6913632,20.9397679 10.6913632,21.0496391 C10.6913632,21.1595102 10.6404524,21.3655155 10.5386294,21.6676612 C10.4368064,21.9698069 10.3349849,22.2994154 10.2331619,22.6564966 C10.1313389,23.0135779 10.0549727,23.3569201 10.0040612,23.6865335 C9.95314973,24.016147 9.92769436,24.2084186 9.92769436,24.2633542 C9.82587134,24.3182898 9.67313911,24.4556267 9.46949308,24.675369 C9.26584705,24.8951113 9.16402556,25.0324481 9.16402556,25.0873837 C9.16402556,25.1423193 9.08765945,25.3071235 8.93492492,25.5818014 C8.7821904,25.8564793 8.62945817,26.1723541 8.47672365,26.5294354 C8.32398912,26.8865166 8.17125689,27.2298588 8.01852237,27.5594723 C7.86578784,27.8890857 7.73851098,28.1362921 7.63668797,28.3010988 C7.53486495,28.41097 7.40758809,28.7405785 7.25485357,29.2899343 C7.10211905,29.83929 6.97484219,30.1688985 6.87301917,30.2787697 C6.87301917,30.3886408 6.74574231,30.5397114 6.49118477,30.7319859 C6.23662724,30.9242604 6.10935038,31.0478636 6.10935038,31.1027992 C6.10935038,31.1577348 6.05843963,31.3362727 5.95661662,31.6384184 C5.8547936,31.9405641 5.72751674,32.2839063 5.57478222,32.6684553 C5.42204769,33.0530043 5.24386009,33.4375476 5.04021406,33.8220966 C4.83656803,34.2066457 4.6838358,34.5087868 4.58201278,34.7285291 C4.58201278,34.7834647 4.55655741,34.9208016 4.5056459,35.1405439 C4.45473439,35.3602862 4.37836828,35.5800252 4.27654526,35.7997675 C4.17472225,36.0195098 4.09835613,36.2255151 4.04744462,36.4177896 C3.99653312,36.6100641 3.97107774,36.7336673 3.97107774,36.7886029 C3.86925473,36.8435385 3.7165225,36.9808754 3.51287647,37.2006177 C3.30923044,37.42036 3.20740895,37.5576968 3.20740895,37.6126324 C3.10558593,37.7225036 2.97830907,37.9971773 2.82557455,38.4366619 C2.67284003,38.8761465 2.52010779,39.3430919 2.36737327,39.8375121 C2.21463875,40.3319323 2.06190652,40.7988777 1.90917199,41.2383623 C1.75643747,41.6778469 1.68007135,41.9525207 1.68007135,42.0623918 C1.68007135,42.1173274 1.57824987,42.2821317 1.37460383,42.5568095 C1.1709578,42.8314874 0.9927702,43.1198949 0.840035677,43.4220405 C0.687301154,43.7241862 0.534568922,44.0263273 0.381834398,44.328473 C0.229099875,44.6306187 0.152733759,44.8091566 0.152733759,44.8640922 C0.152733759,44.9190278 0.127278387,45.1387668 0.0763668797,45.5233158 C0.025455372,45.9078648 0,46.210006 0,46.4297483 C0,46.594555 0.025455372,46.8417614 0.0763668797,47.1713748 C0.127278387,47.5009883 0.152733759,47.6657926 0.152733759,47.6657926 C0.254556775,47.7756637 0.661842727,48.0366038 1.37460383,48.4486206 C2.08736494,48.8606374 2.69829387,49.1490449 3.20740895,49.3138516 L3.51287647,49.3138516 L3.97107774,49.3138516 C4.17472377,49.258916 4.45473287,49.1765139 4.81111342,49.0666427 C5.16749397,48.9567716 5.34568158,48.9018368 5.34568158,48.9018368 C5.44750459,48.8469013 5.60023683,48.5172928 5.80388286,47.9130014 C6.00752889,47.3087101 6.10935038,46.9516342 6.10935038,46.841763 C6.21117339,46.6220207 6.36390562,46.3198796 6.56755165,45.9353306 C6.77119768,45.5507815 6.94938529,45.1662383 7.10211981,44.7816892 C7.25485433,44.3971402 7.38213119,44.053798 7.48395421,43.7516523 C7.58577723,43.4495067 7.63668797,43.2709687 7.63668797,43.2160332 C7.63668797,43.1610976 7.76396483,43.0374944 8.01852237,42.8452199 C8.27307991,42.6529454 8.40035677,42.5018748 8.40035677,42.3920036 C8.40035677,42.3370681 8.50217825,42.1035954 8.70582428,41.6915785 C8.90947032,41.2795617 9.06220255,40.9911543 9.16402556,40.8263475 C9.26584858,40.5516697 9.46949155,40.0435232 9.7749606,39.3018929 C10.0804296,38.5602627 10.3858941,37.7911761 10.6913632,36.9946103 C10.9968322,36.1980444 11.2768413,35.4289579 11.5313988,34.6873276 C11.7859564,33.9456973 11.964144,33.4375509 12.065967,33.162873 C12.269613,33.0530019 12.5241667,32.9019313 12.8296358,32.7096568 C13.1351048,32.5173823 13.3896586,32.3937791 13.5933046,32.3388435 C13.8987736,32.2289723 14.4333364,32.0779018 15.1970091,31.8856273 C15.9606817,31.6933527 16.4443337,31.5697495 16.6479798,31.514814 C16.7498028,31.514814 17.0552673,31.4873466 17.5643823,31.432411 C18.0734974,31.3774754 18.6335156,31.3362744 19.2444537,31.3088066 C19.8553918,31.2813388 20.41541,31.2401377 20.924525,31.1852022 C21.4336401,31.1302666 21.7391046,31.1027992 21.8409276,31.1027992 C22.0445736,31.1027992 22.4264042,31.0478645 22.9864308,30.9379933 C23.5464574,30.8281222 23.928288,30.74572 24.131934,30.6907845 C24.233757,30.6907845 24.3610339,30.7045181 24.5137684,30.7319859 C24.6665029,30.7594537 24.7937798,30.7731874 24.8956028,30.7731874 L24.8956028,45.6881217 C24.7937798,45.7979929 24.6410475,45.9902645 24.4374015,46.2649424 C24.2337555,46.5396203 24.131934,46.7318919 24.131934,46.841763 C24.131934,46.9516342 24.0810232,47.226308 23.9792002,47.6657926 C23.8773772,48.1052772 23.7755557,48.5722226 23.6737327,49.0666427 C23.5719097,49.5610629 23.4955436,50.0280083 23.4446321,50.4674929 C23.3937206,50.9069775 23.3682652,51.1816513 23.3682652,51.2915224 C23.3682652,51.4563292 23.3173544,51.7172692 23.2155314,52.0743505 C23.1137084,52.4314317 23.0373423,52.7747739 22.9864308,53.1043874 C22.9355193,53.4340008 22.8591532,53.736142 22.7573301,54.0108199 C22.6555071,54.2854977 22.6045964,54.450302 22.6045964,54.5052376 C22.6045964,54.6151087 22.5282303,54.8485814 22.3754957,55.2056627 C22.2227612,55.5627439 22.0445736,55.9472872 21.8409276,56.359304 C21.6372816,56.7713208 21.459094,57.1558641 21.3063594,57.5129453 C21.1536249,57.8700266 21.0772588,58.1034993 21.0772588,58.2133704 C21.0772588,58.3781771 21.0263481,58.7901878 20.924525,59.4494147 C20.822702,60.1086416 20.7463359,60.8365271 20.6954244,61.6330929 C20.6445129,62.4296588 20.5681468,63.1575442 20.4663238,63.8167712 C20.3645007,64.4759981 20.31359,64.8880087 20.31359,65.0528154 C20.31359,65.107751 20.2117685,65.3000226 20.0081225,65.6296361 C19.8044764,65.9592496 19.6517442,66.1789886 19.5499212,66.2888597 C19.5499212,66.3987309 19.5244658,66.6184699 19.4735543,66.9480833 C19.4226428,67.2776968 19.3462767,67.6485064 19.2444537,68.0605232 C19.1426307,68.47254 19.0662646,68.8570833 19.015353,69.2141645 C18.9644415,69.5712458 18.9389862,69.8047184 18.9389862,69.9145896 C18.8371631,69.9695252 18.6844309,70.1617968 18.4807849,70.4914103 C18.2771389,70.8210237 18.1753174,71.0132954 18.1753174,71.0682309 C18.1753174,71.1781021 18.1244066,71.4115748 18.0225836,71.768656 C17.9207606,72.1257373 17.8189391,72.5102805 17.7171161,72.9222973 C17.6152931,73.3343142 17.538927,73.7188574 17.4880154,74.0759387 C17.4371039,74.4330199 17.4116486,74.6390252 17.4116486,74.6939608 C17.4116486,74.803832 17.3607378,74.9961036 17.2589148,75.2707815 C17.1570918,75.5454594 17.0552703,75.8338668 16.9534473,76.1360125 C16.8516243,76.4381581 16.7752582,76.7402993 16.7243467,77.0424449 C16.6734351,77.3445906 16.6479798,77.5231286 16.6479798,77.5780641 C16.6479798,77.6879353 16.597069,77.962609 16.495246,78.4020937 C16.393423,78.8415783 16.3170569,79.3085237 16.2661454,79.8029438 C16.2152339,80.297364 16.1388678,80.7643094 16.0370447,81.203794 C15.9352217,81.6432786 15.884311,81.9179524 15.884311,82.0278235 C15.884311,82.1376947 15.7570341,82.3986348 15.5024766,82.8106516 C15.247919,83.2226684 15.1206422,83.4836085 15.1206422,83.5934796 C15.1206422,83.7033508 15.0951868,83.9780245 15.0442753,84.4175091 C14.9933638,84.8569938 14.9679084,85.2140696 14.9679084,85.4887475 L14.9679084,85.4887475 Z M21.8409276,12.1501203 C21.9427506,12.1501203 22.0954828,12.205055 22.2991289,12.3149262 C22.5027749,12.4247973 22.6045964,12.5071994 22.6045964,12.562135 C22.7064194,12.6720062 22.8336963,12.9329462 22.9864308,13.3449631 C23.1391653,13.7569799 23.2664422,14.0179199 23.3682652,14.1277911 C23.3682652,14.2376623 23.4191759,14.4436676 23.5209989,14.7458132 C23.622822,15.0479589 23.6991881,15.3913011 23.7500996,15.7758501 C23.8010111,16.1603992 23.8773772,16.5174751 23.9792002,16.8470885 C24.0810232,17.176702 24.131934,17.3689736 24.131934,17.4239092 C24.131934,17.4788448 24.2337555,17.6711164 24.4374015,18.0007298 C24.6410475,18.3303433 24.7937798,18.5226149 24.8956028,18.5775505 C24.8956028,18.6874217 24.9210582,18.934628 24.9719697,19.3191771 C25.0228812,19.7037261 25.0992473,20.1569378 25.2010703,20.6788258 C25.3028933,21.2007138 25.4047148,21.7225939 25.5065378,22.2444819 C25.6083608,22.7663698 25.6592716,23.1646468 25.6592716,23.4393247 L25.6592716,23.8513394 L25.6592716,24.2633542 C25.5574486,24.5929677 25.4556271,25.059913 25.3538041,25.6642044 C25.251981,26.2684957 25.1501596,26.7766422 25.0483365,27.188659 C24.9465135,27.6006758 24.8956028,27.8341485 24.8956028,27.8890841 L14.9679084,27.8890841 C14.9679084,27.7242774 14.9933638,27.3260004 15.0442753,26.6942413 C15.0951868,26.0624822 15.1206422,25.6642052 15.1206422,25.4993985 C15.1206422,25.3895273 15.247919,25.1148536 15.5024766,24.675369 C15.7570341,24.2358843 15.884311,23.9612106 15.884311,23.8513394 L15.884311,22.6152952 C15.884311,22.5603596 15.9861325,22.3818216 16.1897785,22.079676 C16.3934245,21.7775303 16.5461568,21.571525 16.6479798,21.4616538 C16.6479798,21.4067183 16.7498013,21.2693814 16.9534473,21.0496391 C17.1570933,20.8298968 17.3098256,20.6925599 17.4116486,20.6376243 C17.4116486,20.5826887 17.4880147,20.4178845 17.6407492,20.1432066 C17.7934837,19.8685287 17.946216,19.5526539 18.0989505,19.1955726 C18.251685,18.8384914 18.4044172,18.4951492 18.5571518,18.1655357 C18.7098863,17.8359223 18.8371631,17.5887159 18.9389862,17.4239092 C18.9389862,17.314038 19.0408077,16.9706958 19.2444537,16.3938723 C19.4480997,15.8170487 19.5499212,15.4737065 19.5499212,15.3638354 C19.6517442,15.2539642 19.8808426,14.8831547 20.2372231,14.2513955 C20.5936037,13.6196364 20.8736128,13.1938921 21.0772588,12.9741498 C21.1790818,12.8642786 21.3063587,12.7132081 21.4590932,12.5209335 C21.6118277,12.328659 21.7391046,12.2050558 21.8409276,12.1501203 L21.8409276,12.1501203 Z" id="Amour"></path>
                </g>
            </g>
        </g>
    </g>
</svg>