<?xml version="1.0" encoding="UTF-8"?>
<svg width="200px" height="173px" viewBox="0 0 200 173" version="1.1" xmlns="http://www.w3.org/2000/svg" xmlns:xlink="http://www.w3.org/1999/xlink">
    <!-- Generator: Sketch 3.8.3 (29802) - http://www.bohemiancoding.com/sketch -->
    <title>heart</title>
    <desc>Created with Sketch.</desc>
    <defs></defs>
    <g id="Page-1" stroke="none" stroke-width="1" fill="none" fill-rule="evenodd">
        <g id="heart">
            <g id="496-copy">
                <path d="M170.487902,7.39247107 C162.421199,2.93481818 153.181487,0.383132231 143.286456,0.383132231 C125.839886,0.383132231 110.257842,8.32859504 99.9490791,20.8273884 L99.9490791,172.601281 C99.9490791,172.601281 187.141101,117.739612 196.829478,74.2045785 C198.620348,68.748843 199.622478,62.915876 199.622478,56.8338099 C199.622478,35.5356198 187.865446,17.0601322 170.487902,7.39247107" id="Fill-6" fill="#C82006"></path>
                <path d="M56.5073228,0.383132231 C46.6813165,0.383132231 37.4411835,2.93481818 29.3403892,7.39247107 C11.9628449,17.0255702 0.206234177,35.5356198 0.206234177,56.8338099 C0.206234177,62.915876 1.20710127,68.748843 2.99965506,74.2045785 C12.6526772,117.739612 99.9490791,172.601281 99.9490791,172.601281 L99.9490791,20.8273884 C89.5712911,8.32859504 73.9884051,0.383132231 56.5073228,0.383132231" id="Fill-7" fill="#DA351C"></path>
            </g>
        </g>
    </g>
</svg>