<?xml version="1.0" encoding="utf-8"?>
<!-- Generator: Adobe Illustrator 15.0.0, SVG Export Plug-In  -->
<!DOCTYPE svg PUBLIC "-//W3C//DTD SVG 1.1//EN" "http://www.w3.org/Graphics/SVG/1.1/DTD/svg11.dtd" [
	<!ENTITY ns_flows "http://ns.adobe.com/Flows/1.0/">
]>
<svg version="1.1"
	 xmlns="http://www.w3.org/2000/svg" xmlns:xlink="http://www.w3.org/1999/xlink" xmlns:a="http://ns.adobe.com/AdobeSVGViewerExtensions/3.0/"
	 x="0px" y="0px" width="139px" height="33px" viewBox="0 0 139 33" overflow="visible" enable-background="new 0 0 139 33"
	 xml:space="preserve">
<defs>
</defs>
<linearGradient id="SVGID_1_" gradientUnits="userSpaceOnUse" x1="75.5918" y1="32.876" x2="75.5918" y2="2.8651">
	<stop  offset="0" style="stop-color:#D42A16"/>
	<stop  offset="1" style="stop-color:#E9512D"/>
</linearGradient>
<rect display="none" fill-rule="evenodd" clip-rule="evenodd" fill="url(#SVGID_1_)" width="151.184" height="33"/>
<linearGradient id="SVGID_2_" gradientUnits="userSpaceOnUse" x1="16.5" y1="32.3184" x2="16.5" y2="3.3306">
	<stop  offset="0" style="stop-color:#F6F6F6"/>
	<stop  offset="1" style="stop-color:#FFFFFF"/>
</linearGradient>
<path fill-rule="evenodd" clip-rule="evenodd" fill="url(#SVGID_2_)" d="M22.701,25.675c-1.094,1.538-2.807,3.15-4.588,4.268
	c1.478-2.815,2.818-6.466,2.575-11.27c-1.281,4.479-3.654,10.438-8.371,11.591c-3.595,0.88-5.726-2.23-5.957-5.231
	c-0.674-8.753,5.927-11.523,7.083-18.514c0.623,1.63,0.731,3.927,0.323,6.118c-0.136,0.729-0.823,2.485,0,2.736
	c1.125,0.342,2.355-2.447,2.736-3.3c1.372-3.066,1.855-8.722-0.161-11.511c5.412,3.098,8.372,11.114,6.843,20.123
	c1.574-2.254,2.038-6.382,1.448-10.062c1.107,1.859,1.848,4.04,2.013,6.681c0.447,7.201-2.769,12.721-7.405,15.052
	c-0.069-0.014-0.075,0.031-0.08,0.081C20.341,30.507,22.002,28.357,22.701,25.675z"/>
<linearGradient id="SVGID_3_" gradientUnits="userSpaceOnUse" x1="42.293" y1="25.9668" x2="42.293" y2="7.9056">
	<stop  offset="0" style="stop-color:#F6F6F6"/>
	<stop  offset="1" style="stop-color:#FFFFFF"/>
</linearGradient>
<path fill="url(#SVGID_3_)" d="M42.824,8.904c0.695,0,1.363,0.066,2.005,0.197c0.639,0.131,1.204,0.355,1.69,0.67
	c0.487,0.318,0.877,0.734,1.171,1.251c0.292,0.518,0.44,1.163,0.44,1.934c0,0.434-0.07,0.854-0.21,1.264
	c-0.139,0.409-0.336,0.78-0.59,1.112c-0.256,0.332-0.557,0.612-0.904,0.845c-0.346,0.232-0.737,0.394-1.169,0.487v0.045
	c1.065,0.14,1.915,0.576,2.547,1.311c0.635,0.733,0.952,1.64,0.952,2.721c0,0.264-0.023,0.561-0.071,0.891
	c-0.046,0.334-0.139,0.672-0.278,1.021c-0.139,0.347-0.339,0.691-0.603,1.03c-0.263,0.34-0.613,0.638-1.054,0.891
	c-0.44,0.256-0.979,0.465-1.621,0.627c-0.643,0.161-1.409,0.242-2.306,0.242h-6.995V8.904H42.824z M42.824,16.154
	c0.634,0,1.182-0.073,1.645-0.22c0.465-0.146,0.85-0.348,1.158-0.602c0.311-0.255,0.541-0.553,0.696-0.893
	c0.153-0.34,0.23-0.703,0.23-1.089c0-2.068-1.242-3.104-3.729-3.104h-5.419v5.907H42.824z M42.824,24.102
	c0.587,0,1.144-0.051,1.668-0.152c0.526-0.099,0.989-0.281,1.391-0.544c0.402-0.262,0.717-0.613,0.949-1.055
	c0.232-0.439,0.348-0.991,0.348-1.655c0-1.066-0.375-1.865-1.122-2.398c-0.75-0.533-1.827-0.799-3.233-0.799h-5.419v6.604H42.824z"
	/>
<linearGradient id="SVGID_4_" gradientUnits="userSpaceOnUse" x1="57.5459" y1="25.9688" x2="57.5459" y2="7.9058">
	<stop  offset="0" style="stop-color:#F6F6F6"/>
	<stop  offset="1" style="stop-color:#FFFFFF"/>
</linearGradient>
<path fill="url(#SVGID_4_)" d="M52.692,8.904v10.24c0,0.958,0.107,1.772,0.324,2.443c0.215,0.672,0.533,1.22,0.949,1.645
	c0.419,0.425,0.929,0.734,1.53,0.927c0.602,0.193,1.281,0.29,2.039,0.29c0.771,0,1.458-0.097,2.062-0.29
	c0.601-0.192,1.11-0.502,1.526-0.927c0.419-0.425,0.734-0.973,0.951-1.645c0.216-0.671,0.324-1.485,0.324-2.443V8.904h1.575v10.588
	c0,0.848-0.119,1.654-0.357,2.419c-0.242,0.765-0.62,1.434-1.137,2.003c-0.518,0.573-1.182,1.024-1.993,1.356
	c-0.811,0.332-1.794,0.499-2.952,0.499c-1.143,0-2.121-0.167-2.933-0.499c-0.81-0.332-1.473-0.783-1.991-1.356
	c-0.518-0.569-0.896-1.238-1.134-2.003c-0.241-0.765-0.36-1.571-0.36-2.419V8.904H52.692z"/>
<linearGradient id="SVGID_5_" gradientUnits="userSpaceOnUse" x1="73.6699" y1="25.9668" x2="73.6699" y2="7.9056">
	<stop  offset="0" style="stop-color:#F6F6F6"/>
	<stop  offset="1" style="stop-color:#FFFFFF"/>
</linearGradient>
<path fill="url(#SVGID_5_)" d="M74.725,8.904c0.679,0,1.322,0.084,1.934,0.254c0.61,0.17,1.144,0.429,1.598,0.777
	c0.457,0.348,0.819,0.795,1.089,1.343c0.271,0.548,0.407,1.193,0.407,1.934c0,1.051-0.271,1.962-0.812,2.733
	c-0.54,0.774-1.342,1.268-2.409,1.483v0.046c0.54,0.079,0.988,0.22,1.343,0.429c0.355,0.209,0.645,0.476,0.869,0.8
	c0.223,0.324,0.387,0.699,0.486,1.123c0.101,0.425,0.167,0.885,0.198,1.379c0.015,0.278,0.03,0.618,0.045,1.019
	c0.017,0.402,0.047,0.808,0.092,1.217c0.047,0.41,0.121,0.796,0.221,1.157c0.102,0.364,0.236,0.646,0.406,0.846h-1.737
	c-0.092-0.154-0.165-0.341-0.221-0.566c-0.054-0.224-0.092-0.456-0.115-0.695s-0.043-0.476-0.058-0.706
	c-0.015-0.231-0.031-0.433-0.047-0.603c-0.031-0.587-0.08-1.171-0.15-1.75c-0.069-0.578-0.216-1.096-0.44-1.551
	c-0.224-0.456-0.548-0.823-0.973-1.102s-1.007-0.401-1.75-0.37h-5.975v7.343h-1.576V8.904H74.725z M74.608,16.756
	c0.48,0,0.935-0.073,1.367-0.22c0.432-0.146,0.811-0.358,1.136-0.637c0.323-0.278,0.58-0.614,0.774-1.008
	c0.193-0.392,0.29-0.845,0.29-1.354c0-1.021-0.294-1.822-0.881-2.41c-0.587-0.586-1.482-0.88-2.687-0.88h-5.883v6.509H74.608z"/>
<linearGradient id="SVGID_6_" gradientUnits="userSpaceOnUse" x1="89.0869" y1="25.9668" x2="89.0869" y2="7.9056">
	<stop  offset="0" style="stop-color:#F6F6F6"/>
	<stop  offset="1" style="stop-color:#FFFFFF"/>
</linearGradient>
<path fill="url(#SVGID_6_)" d="M84.338,8.904l9.637,13.993h0.046V8.904h1.577v16.54h-1.762l-9.637-13.992h-0.047v13.992h-1.576
	V8.904H84.338z"/>
<linearGradient id="SVGID_7_" gradientUnits="userSpaceOnUse" x1="109.4648" y1="25.9678" x2="109.4648" y2="7.9062">
	<stop  offset="0" style="stop-color:#F6F6F6"/>
	<stop  offset="1" style="stop-color:#FFFFFF"/>
</linearGradient>
<path fill="url(#SVGID_7_)" d="M114.642,24.182c-1.249,1.089-2.98,1.633-5.189,1.633c-2.238,0-3.972-0.539-5.2-1.621
	c-1.227-1.082-1.84-2.749-1.84-5.005V8.904h3.636v10.285c0,0.448,0.039,0.888,0.117,1.321c0.076,0.431,0.238,0.814,0.485,1.148
	c0.246,0.331,0.592,0.601,1.032,0.81c0.439,0.208,1.029,0.312,1.77,0.312c1.299,0,2.194-0.29,2.689-0.869
	c0.493-0.579,0.74-1.486,0.74-2.723V8.904h3.637v10.285C116.519,21.43,115.895,23.093,114.642,24.182z"/>
<linearGradient id="SVGID_8_" gradientUnits="userSpaceOnUse" x1="125.3105" y1="25.9668" x2="125.3105" y2="7.9056">
	<stop  offset="0" style="stop-color:#F6F6F6"/>
	<stop  offset="1" style="stop-color:#FFFFFF"/>
</linearGradient>
<path fill="url(#SVGID_8_)" d="M126.179,8.904c1.035,0,1.916,0.15,2.642,0.451c0.724,0.302,1.316,0.699,1.771,1.194
	c0.457,0.494,0.789,1.057,0.997,1.69c0.208,0.633,0.312,1.291,0.312,1.969c0,0.665-0.104,1.317-0.312,1.958
	c-0.208,0.64-0.54,1.208-0.997,1.702c-0.454,0.495-1.047,0.893-1.771,1.193c-0.726,0.301-1.606,0.451-2.642,0.451h-3.823v5.931
	h-3.636V8.904H126.179z M125.183,16.687c0.417,0,0.819-0.03,1.204-0.092c0.387-0.062,0.728-0.182,1.019-0.359
	c0.294-0.179,0.53-0.429,0.708-0.754c0.178-0.323,0.268-0.748,0.268-1.274c0-0.525-0.09-0.949-0.268-1.273
	c-0.178-0.324-0.414-0.575-0.708-0.753c-0.291-0.176-0.632-0.297-1.019-0.358c-0.385-0.062-0.787-0.094-1.204-0.094h-2.827v4.958
	H125.183z"/>
</svg>
