<?xml version="1.0" encoding="UTF-8"?>
<svg width="35px" height="35px" viewBox="0 0 35 35" version="1.1" xmlns="http://www.w3.org/2000/svg" xmlns:xlink="http://www.w3.org/1999/xlink">
    <!-- Generator: Sketch 3.8.3 (29802) - http://www.bohemiancoding.com/sketch -->
    <title>logo-square</title>
    <desc>Created with Sketch.</desc>
    <defs></defs>
    <g id="Page-1" stroke="none" stroke-width="1" fill="none" fill-rule="evenodd">
        <g id="logo-square" fill="#FFFFFF">
            <g id="Group" transform="translate(1.000000, 1.000000)">
                <path d="M16.5,33 C25.6126984,33 33,25.6126984 33,16.5 C33,7.38730163 25.6126984,2.43614652e-14 16.5,2.43614652e-14 C7.38730163,2.43614652e-14 0,7.38730163 0,16.5 C0,25.6126984 7.38730163,33 16.5,33 Z M16.5904539,30.7333111 C24.4013383,30.7333111 30.7333111,24.4013383 30.7333111,16.5904539 C30.7333111,8.77956962 24.4013383,2.4475968 16.5904539,2.4475968 C8.77956962,2.4475968 2.4475968,8.77956962 2.4475968,16.5904539 C2.4475968,24.4013383 8.77956962,30.7333111 16.5904539,30.7333111 Z" id="Combined-Shape"></path>
                <path d="M22.0915849,23.691563 C21.2195588,24.9180522 19.8513138,26.2044526 18.4303705,27.0960567 C19.6100494,24.8497503 20.6790321,21.936765 20.4857555,18.103324 C19.4625527,21.6775418 17.5693846,26.4323217 13.8055702,27.3529246 C10.9368928,28.0546377 9.23685396,25.572219 9.05226234,23.1778272 C8.51423811,16.192786 13.7811346,13.982397 14.7046816,8.40416768 C15.2010475,9.70425796 15.2874553,11.5375148 14.9616967,13.2858359 C14.8532086,13.8680208 14.3045858,15.2698278 14.9616967,15.4697285 C15.8590416,15.7430831 16.8408806,13.5170907 17.1455893,12.836133 C18.2403324,10.389926 18.6261495,5.87670504 17.0172289,3.65085981 C21.3352597,6.1228272 23.6969726,12.5199426 22.4769604,19.7090061 C23.733626,17.9106362 24.1031036,14.6163971 23.6330869,11.6800066 C24.516742,13.163658 25.1080534,14.9038831 25.238769,17.0112305 C25.5960289,22.7581535 23.0294104,27.1627393 19.3293347,29.0227869 C19.2747226,29.0110107 19.2688345,29.0479585 19.2650073,29.0871143 C20.2082793,27.5462011 21.5338356,25.8315893 22.0915849,23.691563 L22.0915849,23.691563 Z" id="Shape-Copy-2"></path>
            </g>
        </g>
    </g>
</svg>