<?xml version="1.0" encoding="UTF-8"?>
<svg width="35px" height="35px" viewBox="0 0 35 35" version="1.1" xmlns="http://www.w3.org/2000/svg" xmlns:xlink="http://www.w3.org/1999/xlink">
    <!-- Generator: Sketch 3.8.3 (29802) - http://www.bohemiancoding.com/sketch -->
    <title>logo-square</title>
    <desc>Created with Sketch.</desc>
    <defs></defs>
    <g id="Page-1" stroke="none" stroke-width="1" fill="none" fill-rule="evenodd">
        <g id="logo-square">
            <g id="Group" transform="translate(1.000000, 1.000000)">
                <ellipse id="Combined-Shape" fill="#FFFFFF" cx="16.4441891" cy="16.4845323" rx="16.2839187" ry="16.4845323"></ellipse>
                <path d="M21.9625476,23.6693536 C21.1019413,24.894693 19.7516147,26.1798876 18.3492798,27.0706558 C19.5135098,24.8264552 20.5684933,21.9162006 20.3777479,18.0863532 C19.3679447,21.6572204 17.4995692,26.407543 13.7850451,27.3272829 C10.9539354,28.0283382 9.27616004,25.5482466 9.0939858,23.1560994 C8.56300745,16.1776062 13.7609296,13.9692893 14.6723819,8.39628929 C15.1622475,9.69516081 15.2475237,11.5266991 14.9260312,13.2733813 C14.8189639,13.8550204 14.2775258,15.2555133 14.9260312,15.4552266 C15.8116246,15.7283249 16.7806056,13.5044192 17.0813239,12.8241 C18.1617304,10.3801861 18.5424949,5.87119599 16.9546445,3.64743735 C21.2161271,6.11708743 23.5469114,12.5082059 22.3428762,19.6905301 C23.5830848,17.8938461 23.9477238,14.6026951 23.4838623,11.6690573 C24.3559452,13.1513179 24.9395129,14.8899116 25.0685167,16.9952835 C25.4210979,22.7368192 22.8880915,27.1372759 19.2364713,28.9955798 C19.1825745,28.9838147 19.1767635,29.0207278 19.1729863,29.0598469 C20.1039054,27.5203783 21.4121024,25.8073738 21.9625476,23.6693536 L21.9625476,23.6693536 Z" id="Shape-Copy-2" fill="#DA351C"></path>
            </g>
        </g>
    </g>
</svg>