<?xml version="1.0" encoding="UTF-8"?>
<svg width="22px" height="29px" viewBox="0 0 22 29" version="1.1" xmlns="http://www.w3.org/2000/svg" xmlns:xlink="http://www.w3.org/1999/xlink">
    <!-- Generator: Sketch 3.8.3 (29802) - http://www.bohemiancoding.com/sketch -->
    <title>logo-liked</title>
    <desc>Created with Sketch.</desc>
    <defs></defs>
    <g id="Page-1" stroke="none" stroke-width="1" fill="none" fill-rule="evenodd">
        <g id="logo-liked" fill="#DA351C">
            <path d="M16.7286112,22.8485052 C15.7465091,24.2468316 14.2055505,25.7134631 12.6052413,26.7299853 C13.9338312,24.1689603 15.1377517,20.8478512 14.9200778,16.4773261 C13.767716,20.5523096 11.635573,25.9732578 7.39665196,27.0228417 C4.16586103,27.8228683 2.25122615,24.9926504 2.04333351,22.2627924 C1.43739443,14.2991123 7.36913188,11.7790368 8.40925823,5.4192699 C8.96828056,6.90150928 9.06559553,8.99161449 8.69871641,10.9848841 C8.57653389,11.648636 7.95865839,13.2468431 8.69871641,13.4747509 C9.70933328,13.7864038 10.8151099,11.2485388 11.158282,10.4721756 C12.3912147,7.68324286 12.8257335,2.5376972 11.0137187,0 C15.876815,2.8183023 18.5366472,10.1116853 17.1626327,18.3079723 C18.5779273,16.2576419 18.9940442,12.5018634 18.4646971,9.15407007 C19.4598961,10.8455885 20.1258489,12.8296277 20.2730647,15.2322249 C20.6754215,21.7843204 17.7848186,26.8060105 13.6176818,28.92666 C13.5561761,28.9132339 13.5495447,28.9553583 13.5452344,29 C14.6075757,27.2431973 16.1004571,25.2883598 16.7286112,22.8485052 L16.7286112,22.8485052 Z" id="Shape-Copy-2"></path>
        </g>
    </g>
</svg>