<?xml version="1.0" encoding="utf-8"?>
<!-- Generator: Adobe Illustrator 15.0.0, SVG Export Plug-In  -->
<!DOCTYPE svg PUBLIC "-//W3C//DTD SVG 1.1//EN" "http://www.w3.org/Graphics/SVG/1.1/DTD/svg11.dtd" [
	<!ENTITY ns_flows "http://ns.adobe.com/Flows/1.0/">
]>
<svg version="1.1"
	 xmlns="http://www.w3.org/2000/svg" xmlns:xlink="http://www.w3.org/1999/xlink" xmlns:a="http://ns.adobe.com/AdobeSVGViewerExtensions/3.0/"
	 x="0px" y="0px" width="210px" height="236px" viewBox="-46.646 -21.268 210 236"
	 overflow="visible" enable-background="new -46.646 -21.268 210 236" xml:space="preserve">
<defs>
</defs>
<text transform="matrix(1 0 0 1 0 202.3525)" fill="#555454" font-family="'HelveticaNeue-Light'" font-size="27.6615">BURN</text>
<text transform="matrix(1 0 0 1 79.6689 202.3525)" fill="#555454" font-family="'HelveticaNeue-Bold'" font-size="27.6615" letter-spacing="-1">UP</text>
<linearGradient id="SVGID_1_" gradientUnits="userSpaceOnUse" x1="58.354" y1="172.1494" x2="58.354" y2="15.0018">
	<stop  offset="0" style="stop-color:#D42A16"/>
	<stop  offset="1" style="stop-color:#E9512D"/>
</linearGradient>
<path fill-rule="evenodd" clip-rule="evenodd" fill="url(#SVGID_1_)" d="M91.972,136.144c-5.924,8.332-15.219,17.071-24.872,23.128
	c8.014-15.26,15.276-35.049,13.963-61.091c-6.951,24.281-19.812,56.582-45.381,62.836c-19.488,4.767-31.037-12.097-32.291-28.363
	C-0.264,85.202,35.516,70.186,41.79,32.291c3.372,8.832,3.959,21.286,1.746,33.163c-0.737,3.955-4.464,13.478,0,14.836
	c6.096,1.857,12.766-13.265,14.836-17.891C65.809,45.781,68.43,15.121,57.5,0c29.334,16.793,45.378,60.251,37.09,109.089
	c8.537-12.217,11.047-34.596,7.854-54.544c6.003,10.079,10.02,21.901,10.908,36.217c2.427,39.041-15.009,68.963-40.145,81.599
	c-0.371-0.08-0.411,0.171-0.437,0.437C79.178,162.33,88.183,150.682,91.972,136.144z"/>
</svg>
