<?xml version="1.0" standalone="no"?>
<!DOCTYPE svg PUBLIC "-//W3C//DTD SVG 20010904//EN"
 "http://www.w3.org/TR/2001/REC-SVG-20010904/DTD/svg10.dtd">
<svg version="1.0" xmlns="http://www.w3.org/2000/svg"
 width="16.000000pt" height="16.000000pt" viewBox="0 0 16.000000 16.000000"
 preserveAspectRatio="xMidYMid meet">
<metadata>
Created by potrace 1.11, written by Peter Selinger 2001-2013
</metadata>
<g transform="translate(0.000000,16.000000) scale(0.001317,-0.001317)"
fill="#000000" stroke="none">
<path d="M6020 10705 c0 -2 21 -36 46 -75 180 -279 300 -710 334 -1198 46
-681 -82 -1479 -331 -2062 -75 -176 -223 -466 -299 -588 -212 -338 -424 -476
-556 -360 -85 75 -83 230 5 573 67 257 93 437 112 753 24 406 -31 866 -139
1172 -23 63 -18 73 -58 -119 -98 -475 -317 -972 -681 -1546 -38 -60 -183 -283
-322 -494 -327 -496 -456 -711 -601 -1006 -234 -475 -346 -833 -410 -1315 -27
-201 -37 -606 -21 -818 30 -394 133 -716 318 -1001 345 -532 877 -732 1489
-560 546 153 1025 540 1438 1164 243 365 435 751 634 1270 79 206 198 557 266
785 33 113 34 114 42 76 11 -61 -3 -631 -20 -811 -75 -781 -268 -1452 -637
-2213 -49 -101 -89 -185 -89 -188 0 -7 173 111 295 201 337 249 705 605 946
915 43 56 79 96 79 90 0 -25 -111 -341 -161 -459 -136 -323 -277 -567 -748
-1299 l-111 -173 87 47 c327 177 575 363 848 638 325 326 552 646 761 1070
266 539 419 1108 479 1781 22 239 22 737 1 973 -55 606 -194 1104 -447 1602
-90 178 -128 243 -129 218 0 -9 9 -88 20 -175 31 -253 40 -408 40 -712 0 -572
-70 -1042 -220 -1474 -64 -186 -160 -386 -238 -497 l-24 -35 6 40 c131 866
141 1608 31 2366 -150 1029 -530 1953 -1084 2629 -169 206 -416 446 -616 596
-122 92 -335 231 -335 219z"/>
</g>
</svg>
