<?xml version="1.0" encoding="UTF-8"?>
<svg width="212px" height="156px" viewBox="0 0 212 156" version="1.1" xmlns="http://www.w3.org/2000/svg" xmlns:xlink="http://www.w3.org/1999/xlink">
    <!-- Generator: Sketch 3.8.3 (29802) - http://www.bohemiancoding.com/sketch -->
    <title>first-love</title>
    <desc>Created with Sketch.</desc>
    <defs></defs>
    <g id="Page-1" stroke="none" stroke-width="1" fill="none" fill-rule="evenodd">
        <g id="first-love" fill="#565656">
            <path d="M59.8696179,26.2689076 L64.0863447,26.2689076 C65.7000266,26.2689076 66.9358255,26.6318183 67.7937785,27.3576505 C68.6517315,28.0834828 69.0807016,29.0732392 69.0807016,30.3269495 C69.0807016,31.5953231 68.6480807,32.5997426 67.782826,33.3402381 C66.9175712,34.0807337 65.648915,34.4509759 63.9768193,34.4509759 L61.0524919,34.4509759 L61.0524919,41.6322805 L59.8696179,41.6322805 L59.8696179,26.2689076 Z M61.0524919,27.2586739 L61.0524919,33.4612096 L63.9001516,33.4612096 C65.177954,33.4612096 66.1490692,33.189943 66.8135264,32.6474017 C67.4779837,32.1048604 67.8102073,31.3387156 67.8102073,30.3489443 C67.8102073,29.4031629 67.4852853,28.6516811 66.8354315,28.0944766 C66.1855777,27.537272 65.2546214,27.2586739 64.0425346,27.2586739 L61.0524919,27.2586739 Z M81.4764587,26.2689076 L85.397467,26.2689076 C87.0403558,26.2689076 88.2962341,26.6263196 89.1651397,27.3411544 C90.0340454,28.0559892 90.4684916,29.0219182 90.4684916,30.2389703 C90.4684916,32.013227 89.4973764,33.2595869 87.5551168,33.9780875 C88.058936,34.2200316 88.7379865,35.0008395 89.5922887,36.3205345 L93.0532904,41.6322805 L91.6623182,41.6322805 L88.9898991,37.4202749 C88.0990883,36.0126002 87.4054346,35.1346496 86.9089171,34.7863967 C86.4123996,34.4381439 85.6858886,34.26402 84.7293622,34.26402 L82.6593327,34.26402 L82.6593327,41.6322805 L81.4764587,41.6322805 L81.4764587,26.2689076 Z M82.6593327,27.2586739 L82.6593327,33.2742537 L85.2003213,33.2742537 C86.4927272,33.2742537 87.480271,33.0121515 88.1629826,32.4879393 C88.8456942,31.9637271 89.1870448,31.2214098 89.1870448,30.2609651 C89.1870448,29.3151837 88.8402179,28.578365 88.1465538,28.050487 C87.4528896,27.5226089 86.4562187,27.2586739 85.1565112,27.2586739 L82.6593327,27.2586739 Z M112.852963,26.2689076 L112.852963,27.2586739 L105.690003,27.2586739 L105.690003,33.4062225 L112.666769,33.4062225 L112.666769,34.4069863 L105.690003,34.4069863 L105.690003,40.6425142 L113.028203,40.6425142 L113.028203,41.6322805 L104.507129,41.6322805 L104.507129,26.2689076 L112.852963,26.2689076 Z M132.608825,33.4062225 L138.435574,26.2689076 L139.629401,26.2689076 L139.629401,41.6322805 L138.435574,41.6322805 L138.435574,28.0064973 L132.608825,35.1878019 L126.771122,28.0064973 L126.771122,41.6322805 L125.588248,41.6322805 L125.588248,26.2689076 L126.771122,26.2689076 L132.608825,33.4062225 Z M154.456621,26.2689076 L154.456621,41.6322805 L153.273747,41.6322805 L153.273747,26.2689076 L154.456621,26.2689076 Z M176.479658,26.2689076 L176.479658,27.2586739 L169.316699,27.2586739 L169.316699,33.4062225 L176.293465,33.4062225 L176.293465,34.4069863 L169.316699,34.4069863 L169.316699,40.6425142 L176.654899,40.6425142 L176.654899,41.6322805 L168.133825,41.6322805 L168.133825,26.2689076 L176.479658,26.2689076 Z M189.258754,26.2689076 L193.179763,26.2689076 C194.822651,26.2689076 196.07853,26.6263196 196.947435,27.3411544 C197.816341,28.0559892 198.250787,29.0219182 198.250787,30.2389703 C198.250787,32.013227 197.279672,33.2595869 195.337412,33.9780875 C195.841232,34.2200316 196.520282,35.0008395 197.374584,36.3205345 L200.835586,41.6322805 L199.444614,41.6322805 L196.772195,37.4202749 C195.881384,36.0126002 195.18773,35.1346496 194.691213,34.7863967 C194.194695,34.4381439 193.468184,34.26402 192.511658,34.26402 L190.441628,34.26402 L190.441628,41.6322805 L189.258754,41.6322805 L189.258754,26.2689076 Z M190.441628,27.2586739 L190.441628,33.2742537 L192.982617,33.2742537 C194.275023,33.2742537 195.262567,33.0121515 195.945278,32.4879393 C196.62799,31.9637271 196.96934,31.2214098 196.96934,30.2609651 C196.96934,29.3151837 196.622513,28.578365 195.928849,28.050487 C195.235185,27.5226089 194.238514,27.2586739 192.938807,27.2586739 L190.441628,27.2586739 Z" id="PREMIER"></path>
            <g id="Group" transform="translate(5.000000, 10.000000)">
                <path d="M84.3386305,76.2439683 C84.0184372,75.4976817 83.7516135,74.6981008 83.5381513,73.8452018 C83.111227,72.6724656 82.9778151,71.3131782 83.1379117,69.7672987 C83.2980084,68.2214192 83.484785,66.8621318 83.6982471,65.6893956 C83.6982471,65.4761708 83.8049766,64.8631588 84.0184388,63.8503412 C84.231901,62.8375236 84.3919952,62.2245116 84.4987263,62.0112869 C84.7121885,61.478225 84.9256474,60.9185184 85.1391096,60.3321503 C85.3525718,59.7457822 85.4593013,59.0794649 85.4593013,58.3331782 C85.5660323,58.2265658 85.7794913,57.5869011 86.0996846,56.414165 C86.4198778,55.2414288 86.5799721,54.6017641 86.5799721,54.4951517 C86.5799721,54.3885394 86.6066544,54.068707 86.66002,53.5356451 C86.7133855,53.0025832 86.7400679,52.6294455 86.7400679,52.4162207 C86.7400679,52.202996 86.7133855,51.8831636 86.66002,51.4567141 C86.6066544,51.0302646 86.5799721,50.7104323 86.5799721,50.4972075 C86.3665099,50.6038199 85.8595448,50.8436941 85.0590617,51.2168375 C84.2585785,51.5899808 83.7516135,51.8831604 83.5381513,52.0963852 C83.4314202,52.0963852 83.0845494,52.4961756 82.4975284,53.2957685 C81.9105074,54.0953613 81.4569071,54.7083733 81.1367139,55.1348228 C80.7097895,55.7744971 80.096095,56.7073414 79.2956118,57.9333838 C78.4951287,59.1594261 78.0415284,59.8257435 77.9347973,59.9323559 C77.8280662,60.1455806 77.6946543,60.7852453 77.5345577,61.8513691 C77.3744611,62.9174929 77.2410492,63.5571576 77.1343181,63.7703824 C77.1343181,63.9836071 77.0009063,64.4367029 76.7340786,65.1296834 C76.4672509,65.8226639 76.1470624,66.5689393 75.7735036,67.3685322 C75.3999448,68.168125 75.053074,68.9677059 74.7328807,69.7672987 C74.4126874,70.5668915 74.1992285,71.1799035 74.0924974,71.606353 L72.4915391,74.8047084 L70.8905808,76.4038861 L69.1295267,76.4038861 L67.0482809,76.4038861 C66.5146255,76.1906614 66.2478018,75.9241344 66.2478018,75.6042973 C66.2478018,75.4976849 66.2211194,75.1511999 66.1677538,74.5648318 C66.1143883,73.9784637 66.0877059,73.5786733 66.0877059,73.3654485 C66.0877059,73.0456114 66.1143883,72.5658629 66.1677538,71.9261886 C66.2211194,71.2865143 66.2478018,70.9133766 66.2478018,70.8067642 C66.2478018,70.5935394 66.3278489,70.1137909 66.4879455,69.3675043 C66.6480421,68.6212176 66.8348187,68.0881637 67.0482809,67.7683266 C67.155012,67.4484894 67.3951533,66.7821721 67.7687121,65.7693545 C68.1422709,64.7565369 68.435777,64.0902195 68.6492392,63.7703824 C68.6492392,63.66377 68.7559687,63.3705903 68.9694308,62.8908346 C69.182893,62.4110789 69.4497167,61.9313304 69.76991,61.4515747 C70.0901033,60.971819 70.356927,60.4920705 70.5703891,60.0123148 C70.7838513,59.5325591 70.8905808,59.2393794 70.8905808,59.132767 C70.9973119,58.8129299 71.0239943,58.3331814 70.9706287,57.6935071 C70.9172632,57.0538328 70.8372161,56.3608628 70.730485,55.6145761 C70.6237539,54.8682895 70.5170244,54.1753194 70.4102933,53.5356451 C70.3035622,52.8959708 70.2501975,52.4162223 70.2501975,52.0963852 L68.6492392,52.0963852 C68.5425081,52.0963852 68.2756844,52.2829541 67.84876,52.6560974 C67.4218357,53.0292407 66.9682354,53.4556838 66.4879455,53.9354395 C66.0076556,54.4151953 65.5273729,54.9215965 65.047083,55.4546584 C64.5667931,55.9877203 64.1665576,56.4141634 63.8463643,56.7340005 C63.7396332,56.8406129 63.6062214,57.1071398 63.4461247,57.5335894 C63.2860281,57.9600389 63.1526163,58.2265658 63.0458852,58.3331782 C62.9391541,58.546403 62.6723304,58.9461934 62.245406,59.5325615 C61.8184817,60.1189296 61.551658,60.51872 61.4449269,60.7319447 C61.4449269,60.8385571 61.3381974,61.0784314 61.1247352,61.4515747 C60.911273,61.824718 60.8045436,62.0645923 60.8045436,62.1712047 C60.5910814,62.4910418 60.2975753,63.1573592 59.9240165,64.1701768 C59.5504577,65.1829944 59.3103163,65.8493118 59.2035853,66.1691489 C59.0968542,66.2757613 58.9367599,66.648899 58.7232978,67.2885733 C58.5098356,67.9282475 58.4031061,68.3546907 58.4031061,68.5679154 C58.1896439,68.7811402 57.9228202,69.2875414 57.602627,70.0871342 C57.2824337,70.8867271 57.01561,71.3931283 56.8021478,71.606353 C56.4819546,72.2460273 55.9216248,73.1522189 55.1211416,74.3249551 C54.3206585,75.4976913 53.8670582,76.1906614 53.7603271,76.4038861 C53.653596,76.5104985 53.1999957,76.7237201 52.3995125,77.0435572 C51.5990294,77.3633943 50.9853348,77.6299213 50.5584105,77.843146 C50.5584105,77.843146 50.5050457,77.8697987 50.3983147,77.9231049 C50.2915836,77.9764111 50.1848541,78.0030638 50.078123,78.0030638 L49.7579313,77.843146 C49.5444692,77.7365337 49.2509631,77.4966594 48.8774043,77.1235161 C48.5038455,76.7503727 48.2637041,76.5104985 48.156973,76.4038861 L48.156973,74.4848729 L48.156973,72.4059419 C48.2637041,72.1927171 48.5038455,71.4997471 48.8774043,70.3270109 C49.2509631,69.1542747 49.5444692,68.3013885 49.7579313,67.7683266 C49.8646624,67.5551018 50.1048038,67.0220479 50.4783626,66.1691489 C50.8519214,65.3162499 51.1454275,64.783196 51.3588896,64.5699712 L52.1593688,63.7703824 C52.2660999,63.5571576 52.5062412,63.1840199 52.8798,62.650958 C53.2533588,62.1178961 53.5468649,61.7447583 53.7603271,61.5315336 C53.9737892,61.1050841 54.2672953,60.4920721 54.6408541,59.6924792 C55.0144129,58.8928864 55.2011895,58.4397906 55.2011895,58.3331782 C55.3079206,58.2265658 55.3612854,57.8534281 55.3612854,57.2137538 L55.3612854,55.6145761 L55.3612854,54.335234 C55.3612854,53.4823349 55.3079206,53.0025864 55.2011895,52.895974 C55.0944584,52.895974 54.8543171,53.0025848 54.4807583,53.2158096 C54.1071995,53.4290343 53.8670582,53.5889505 53.7603271,53.6955629 C53.653596,53.6955629 53.4935018,53.775521 53.2800396,53.9354395 C53.0665774,54.0953581 52.9598479,54.281927 52.9598479,54.4951517 C51.9992681,55.987725 50.985338,57.5335814 49.9180272,59.132767 C48.8507163,60.7319527 47.5165977,62.544336 45.9156314,64.5699712 C45.7021693,64.783196 45.4086632,65.1829864 45.0351044,65.7693545 C44.6615456,66.3557226 44.4214042,66.755513 44.3146731,66.9687377 C44.2079421,66.9687377 44.0478478,67.0753485 43.8343857,67.2885733 C43.6209235,67.501798 43.514194,67.6617142 43.514194,67.7683266 C43.4074629,67.874939 43.0872745,68.221424 42.553619,68.8077921 C42.0199636,69.3941602 41.4863162,70.0071721 40.9526607,70.6468464 C40.4190053,71.2865207 39.8853579,71.8995327 39.3517024,72.4859008 C38.818047,73.0722689 38.4978585,73.4187539 38.3911275,73.5253663 C38.1776653,73.8452034 37.7507473,74.2982992 37.1103608,74.8846673 C36.4699743,75.4710354 36.1497858,75.8175204 36.1497858,75.9241328 C36.0430548,75.9241328 35.776231,76.0307436 35.3493067,76.2439683 C34.9223824,76.4571931 34.468782,76.6970674 33.9884922,76.9635983 C33.5082023,77.2301293 33.0546019,77.4433508 32.6276776,77.6032694 C32.2007533,77.763188 31.9339295,77.7898406 31.8271985,77.6832283 C31.0800809,76.9369416 30.7865748,76.2173188 30.9466714,75.5243384 C31.106768,74.8313579 31.6137331,73.8985136 32.4675818,72.7257774 C32.5743129,72.619165 32.8678189,72.2993327 33.3481088,71.7662708 C33.8283987,71.2332089 34.3353638,70.6468496 34.8690192,70.0071753 C35.4026746,69.3675011 35.9630044,68.7278364 36.5500254,68.0881621 C37.1370464,67.4484878 37.5906467,66.9154339 37.91084,66.4889844 L39.1916066,65.2096423 C39.2983377,65.1030299 39.5918438,64.7565449 40.0721337,64.1701768 C40.5524236,63.5838087 41.086071,62.944144 41.673092,62.2511635 C42.2601129,61.5581831 42.7937604,60.9185184 43.2740502,60.3321503 C43.7543401,59.7457822 44.101211,59.3459918 44.3146731,59.132767 C44.4214042,59.0261547 44.6615456,58.7063223 45.0351044,58.1732604 C45.4086632,57.6401985 45.8088987,57.0538392 46.2358231,56.414165 C46.6627474,55.7744907 47.062983,55.1881314 47.4365418,54.6550695 C47.8101006,54.1220076 48.050242,53.8021753 48.156973,53.6955629 C48.3704352,53.4823381 48.7439884,52.9759369 49.2776438,52.1763441 C49.8112993,51.3767512 50.1314877,50.87035 50.2382188,50.6571253 C50.3449499,50.5505129 50.5317265,50.283986 50.7985542,49.8575364 C51.0653819,49.4310869 51.2521585,49.1112546 51.3588896,48.8980298 C51.4656207,48.6848051 51.8391739,48.1784039 52.4795604,47.378811 C53.119947,46.5792182 53.5468649,46.072817 53.7603271,45.8595922 C53.7603271,45.7529798 53.8670566,45.4864529 54.0805187,45.0600034 C54.2939809,44.6335538 54.4007104,44.3670269 54.4007104,44.2604145 L56.0016687,42.6612368 C56.1083998,42.6612368 56.2951764,42.6345841 56.5620041,42.5812779 C56.8288318,42.5279717 57.0689731,42.5013191 57.2824353,42.5013191 C57.4958975,42.5013191 57.7360388,42.5279717 58.0028665,42.5812779 C58.2696943,42.6345841 58.4031061,42.6612368 58.4031061,42.6612368 C58.6165683,42.8744616 59.1235333,43.3542101 59.9240165,44.1004967 C60.7244996,44.8467834 61.2314647,45.4331427 61.4449269,45.8595922 C61.551658,45.9662046 61.6850698,46.3393423 61.8451664,46.9790166 C62.0052631,47.6186909 62.1386749,47.9918286 62.245406,48.098441 C62.3521371,48.2050534 62.5922784,48.3383168 62.9658373,48.4982354 C63.3393961,48.658154 63.6329021,48.7914174 63.8463643,48.8980298 L64.3266518,48.8980298 L64.6468435,48.8980298 C64.8603056,48.8980298 65.1271293,48.791419 65.4473226,48.5781943 C65.7675159,48.3649695 66.0343396,48.2050534 66.2478018,48.098441 L67.0482809,47.2988521 C67.2617431,47.0856274 67.7687081,46.7924477 68.5691913,46.4193044 C69.3696744,46.0461611 69.8766395,45.8595922 70.0901017,45.8595922 C70.6237571,45.6463674 71.3708635,45.4331459 72.3314433,45.2199211 C73.292023,45.0066964 73.8790352,44.953391 74.0924974,45.0600034 L75.6934557,46.6591811 C75.8001868,46.7657934 76.0403281,47.1389312 76.4138869,47.7786054 C76.7874457,48.4182797 77.0275871,48.7914174 77.1343181,48.8980298 L77.9347973,49.6976187 L78.4150848,49.6976187 L78.7352764,49.6976187 C78.9487386,49.5910063 79.482386,49.2178686 80.3362347,48.5781943 C81.1900834,47.93852 81.7237308,47.5120769 81.937193,47.2988521 C82.0439241,47.2988521 82.3107478,47.1922413 82.7376722,46.9790166 C83.1645965,46.7657918 83.4314202,46.6591811 83.5381513,46.6591811 C83.6448824,46.4459563 84.0184356,46.0195132 84.6588221,45.3798389 C85.2992086,44.7401646 85.6727618,44.3670269 85.7794929,44.2604145 C85.886224,44.1538021 86.1530477,44.0205387 86.5799721,43.8606201 C87.0068964,43.7007015 87.2737201,43.567438 87.3804512,43.4608257 C87.5939134,43.3542133 88.1275608,42.9810756 88.9814095,42.3414013 C89.8352582,41.701727 90.3689056,41.2752839 90.5823678,41.0620591 L90.9025595,41.0620591 L91.3828469,41.0620591 C91.489578,41.1686715 91.7297194,41.4085458 92.1032782,41.7816891 C92.476837,42.1548324 92.7169783,42.4480121 92.8237094,42.6612368 C93.0371716,42.8744616 93.35736,43.3009047 93.7842844,43.940579 C94.2112087,44.5802533 94.4246677,44.953391 94.4246677,45.0600034 C94.4246677,45.0600034 94.4513501,45.3798357 94.5047156,46.01951 C94.5580812,46.6591842 94.5847635,47.0856274 94.5847635,47.2988521 C94.5847635,47.6186893 94.5580812,48.0717851 94.5047156,48.6581532 C94.4513501,49.2445213 94.4246677,49.5910063 94.4246677,49.6976187 C94.4246677,50.8703548 94.2378911,51.989768 93.8643323,53.0558918 C93.4907735,54.1220156 93.0638556,55.2147761 92.5835657,56.3342061 C92.1032758,57.4536361 91.6763578,58.5730493 91.302799,59.6924792 C90.9292402,60.8119092 90.7424636,62.0112805 90.7424636,63.290629 C90.7424636,63.3972414 90.6890989,63.8769899 90.5823678,64.729889 C90.4756367,65.582788 90.3689072,66.4889796 90.2621761,67.448491 C90.1554451,68.4080025 90.0753979,69.3141941 90.0220324,70.1670931 C89.9686669,71.0199922 89.9419845,71.4997407 89.9419845,71.606353 C90.2621777,72.6724768 90.7424604,73.1255726 91.3828469,72.9656541 C92.0232335,72.8057355 92.7703399,72.6191666 93.6241886,72.4059419 C93.6241886,72.4059419 93.5975062,72.6991215 93.5441406,73.2854896 C93.4907751,73.8718577 93.410728,74.5381751 93.3039969,75.2844617 C93.1972658,76.0307484 93.0905363,76.6970658 92.9838052,77.2834338 C92.8770742,77.8698019 92.7703447,78.1629816 92.6636136,78.1629816 L90.422272,79.4423237 L87.2203554,79.1224882 C86.9001621,79.1224882 86.5266089,79.0158774 86.0996846,78.8026527 C85.6727602,78.5894279 85.3525718,78.3762063 85.1391096,78.1629816 L84.3386305,76.2439683 Z M98.5871593,72.7257774 C98.6938903,73.0456146 98.8006198,73.5253631 98.9073509,74.1650373 C99.014082,74.8047116 99.0674468,75.1778494 99.0674468,75.2844617 C99.0674468,75.2844617 99.227541,75.4710306 99.5477342,75.8441739 C99.8679275,76.2173172 100.241481,76.6970658 100.668405,77.2834338 C101.095329,77.8698019 101.522247,78.4295085 101.949172,78.9625704 C102.376096,79.4956323 102.749649,79.86877 103.069842,80.0819948 L104.030417,80.7216659 L106.591951,80.2419126 L109.473676,79.922077 C109.473676,79.922077 109.687135,79.7621609 110.114059,79.4423237 C110.540983,79.1224866 111.047948,78.7760016 111.634969,78.4028582 C112.22199,78.0297149 112.78232,77.6565772 113.315976,77.2834338 C113.849631,76.9102905 114.276549,76.5638055 114.596742,76.2439683 C114.596742,75.8175188 114.836884,75.4976865 115.317173,75.2844617 C115.797463,75.071237 116.304428,74.6980992 116.838084,74.1650373 C117.051546,73.9518126 117.611876,73.3654533 118.51909,72.4059419 C119.426304,71.4464305 120.039999,70.8600712 120.360192,70.6468464 C120.573654,70.3270093 121.027255,69.7139973 121.721007,68.8077921 C122.414759,67.9015869 122.868359,67.2885749 123.081821,66.9687377 C123.295283,66.8621254 123.508742,66.4889876 123.722204,65.8493133 C123.935667,65.2096391 124.149126,64.783196 124.362588,64.5699712 L126.603929,57.8534249 C126.603929,57.6402001 126.683977,57.2404097 126.844073,56.6540416 C127.00417,56.0676735 127.084217,55.6678831 127.084217,55.4546584 C127.297679,54.9215965 127.377726,54.0420575 127.324361,52.8160152 C127.270995,51.5899728 127.244313,50.87035 127.244313,50.6571253 L126.443834,45.8595922 L125.963546,41.861648 C125.856815,41.6484232 125.536627,41.0620639 125.002971,40.1025525 C124.469316,39.1430411 124.095762,38.5566818 123.8823,38.3434571 C123.8823,38.2368447 123.642159,38.1568866 123.161869,38.1035804 C122.681579,38.0502742 122.388073,37.9703161 122.281342,37.8637037 C121.961149,37.8637037 121.374137,37.8103984 120.520288,37.703786 C119.666439,37.5971736 119.132792,37.4905628 118.91933,37.3839504 L117.638563,37.5438682 L116.517892,37.703786 C116.30443,37.9170107 115.824147,38.156885 115.07703,38.4234159 C114.329912,38.6899469 113.796265,38.9298211 113.476071,39.1430459 C113.36934,39.1430459 113.102517,39.2496567 112.675592,39.4628814 C112.248668,39.6761062 111.981844,39.8360224 111.875113,39.9426347 L107.712622,43.7806612 C107.60589,43.8872736 107.339067,44.0738425 106.912142,44.3403734 C106.485218,44.6069043 106.218394,44.7401678 106.111663,44.7401678 C106.111663,44.8467802 106.004934,45.0066964 105.791472,45.2199211 C105.578009,45.4331459 105.47128,45.5930621 105.47128,45.6996744 C105.257818,45.9128992 104.857582,46.2327315 104.270561,46.6591811 C103.68354,47.0856306 103.336669,47.3521575 103.229938,47.4587699 L101.949172,49.3777831 C101.949172,49.4843955 101.869125,49.7775752 101.709028,50.2573309 C101.548931,50.7370866 101.468884,51.0302662 101.468884,51.1368786 C101.362153,51.243491 100.9886,51.6699341 100.348213,52.4162207 C99.7078269,53.1625074 99.3876384,53.5889505 99.3876384,53.6955629 C99.2809073,54.0154 99.1208131,54.4951485 98.9073509,55.1348228 C98.6938887,55.7744971 98.4804298,56.4408145 98.2669676,57.1337949 C98.0535054,57.8267754 97.8133641,58.4930928 97.5465364,59.132767 C97.2797087,59.7724413 97.0929321,60.1988844 96.986201,60.4121092 L97.1462968,61.3716158 C97.359759,62.4377396 97.6799474,63.4238893 98.1068718,64.3300945 C98.5337961,65.2362998 98.8006198,66.2224495 98.9073509,67.2885733 C99.014082,67.3951857 99.0407644,67.5551018 98.9873988,67.7683266 C98.9340333,67.9815513 98.9073509,68.0881621 98.9073509,68.0881621 C98.9073509,68.1947745 98.8006214,68.4613014 98.5871593,68.887751 C98.3736971,69.3142005 98.2669676,69.5807274 98.2669676,69.6873398 C98.3736987,69.9005646 98.4537458,70.3803131 98.5071113,71.1265997 C98.5604769,71.8728864 98.5871593,72.4059403 98.5871593,72.7257774 L98.5871593,72.7257774 Z M163.302017,79.200118 C163.226909,79.2364248 163.161496,79.2638541 163.105778,79.282406 C162.999047,79.3890183 162.732224,79.4423237 162.305299,79.4423237 L161.50482,79.4423237 L160.544245,79.4423237 C160.117321,79.4423237 159.903862,79.3890183 159.903862,79.282406 C159.6904,79.282406 159.103388,78.9625736 158.142808,78.3228993 C157.182228,77.6832251 156.435122,77.2567819 155.901466,77.0435572 C155.794735,76.9369448 155.554594,76.6704179 155.181035,76.2439683 C154.807476,75.8175188 154.567335,75.5509919 154.460604,75.4443795 L152.859645,73.2055307 C152.646183,72.992306 152.486089,72.6458209 152.379358,72.1660652 C152.272627,71.6863095 152.005803,71.5530461 151.578879,71.7662708 C150.72503,72.1927203 149.737782,72.8057323 148.617106,73.6053252 C147.49643,74.404918 146.669276,74.9113192 146.135621,75.124544 C145.708696,75.3377687 145.121684,75.577643 144.374566,75.8441739 C143.627449,76.1107049 143.200531,76.2439683 143.0938,76.2439683 C142.987069,76.3505807 142.66688,76.4038861 142.133225,76.4038861 L141.012554,76.4038861 L139.891883,76.4038861 C139.464959,76.4038861 139.198135,76.3505807 139.091404,76.2439683 C138.877942,76.2439683 138.370977,75.8974833 137.570494,75.2045028 C136.770011,74.5115224 136.263045,74.111732 136.049583,74.0051196 C136.049583,74.0051196 135.996219,73.9784669 135.889487,73.9251607 C135.782756,73.8718545 135.676027,73.8452018 135.569296,73.8452018 L135.249104,74.0051196 C135.035642,74.111732 134.635406,74.3516062 134.048385,74.7247495 C133.461364,75.0978929 133.061129,75.3910725 132.847667,75.6042973 C132.740936,75.7109096 132.367382,76.0840474 131.726996,76.7237217 C131.086609,77.3633959 130.659691,77.7365337 130.446229,77.843146 C130.232767,78.0563708 129.832532,78.3495504 129.245511,78.7226938 C128.65849,79.0958371 128.311619,79.3357113 128.204888,79.4423237 L127.564504,79.4423237 L126.764025,79.4423237 C126.657294,79.4423237 126.4972,79.3357129 126.283738,79.1224882 C126.070276,78.9092634 125.963546,78.7493473 125.963546,78.6427349 C125.963546,78.6427349 125.936864,78.4295133 125.883498,78.0030638 C125.830133,77.5766143 125.80345,77.2567819 125.80345,77.0435572 C125.80345,76.8303324 125.830133,76.5371528 125.883498,76.1640095 C125.936864,75.7908661 125.963546,75.6042973 125.963546,75.6042973 C125.963546,75.4976849 126.177005,75.2578106 126.603929,74.8846673 C127.030854,74.511524 127.351042,74.2183443 127.564504,74.0051196 C127.777967,73.7918948 128.284932,73.3921044 129.085415,72.8057363 C129.885898,72.2193682 130.339498,71.8195778 130.446229,71.606353 C130.766423,71.2865159 131.19334,70.6735039 131.726996,69.7672987 C132.260651,68.8610935 132.767616,67.9282491 133.247906,66.9687377 C133.728196,66.0092263 134.155114,65.1296874 134.528673,64.3300945 C134.902232,63.5305017 135.089008,63.1307113 135.089008,63.1307113 C135.195739,63.0240989 135.329151,62.6509612 135.489248,62.0112869 C135.649345,61.3716126 135.809439,60.6786425 135.969535,59.9323559 C136.129632,59.1860692 136.289726,58.4930992 136.449823,57.8534249 C136.60992,57.2137506 136.689967,56.8406129 136.689967,56.7340005 C136.689967,56.6273881 136.770014,56.3075558 136.93011,55.7744939 C137.090207,55.241432 137.250301,54.6817254 137.410398,54.0953573 C137.570494,53.5089892 137.730589,52.9492826 137.890685,52.4162207 C138.050782,51.8831588 138.130829,51.5100211 138.130829,51.2967964 C138.23756,51.0835716 138.397654,50.5505177 138.611117,49.6976187 C138.824579,48.8447196 138.931308,48.3649711 138.931308,48.2583587 C139.038039,47.7252968 139.224816,46.9790214 139.491644,46.01951 C139.758471,45.0599986 139.998613,44.2870704 140.212075,43.7007023 C140.425537,43.1143342 140.532267,42.7678492 140.532267,42.6612368 L142.133225,41.0620591 C142.239956,41.0620591 142.480097,40.9554484 142.853656,40.7422236 C143.227215,40.5289988 143.520721,40.4223881 143.734183,40.4223881 L144.054375,40.2624703 C144.161106,40.2624703 144.241153,40.289123 144.294519,40.3424292 C144.347884,40.3957354 144.427931,40.4223881 144.534662,40.4223881 L145.975525,41.861648 C146.082256,41.9682604 146.135621,42.607925 146.135621,43.7806612 L146.135621,45.3798389 L146.135621,47.4587699 C146.135621,48.3116689 146.082256,48.7914174 145.975525,48.8980298 C145.975525,49.1112546 145.81543,49.7509193 145.495237,50.817043 C145.175044,51.8831668 144.854856,53.0292327 144.534662,54.2552751 C144.214469,55.4813174 143.894281,56.6007306 143.574087,57.6135482 C143.253894,58.6263658 143.0938,59.1860724 143.0938,59.2926848 C142.987069,59.5059096 142.826974,59.9057 142.613512,60.4920681 C142.40005,61.0784362 142.293321,61.4249212 142.293321,61.5315336 C142.079858,61.9579831 141.893082,62.5709951 141.732985,63.3705879 C141.572889,64.1701808 141.492842,64.6232766 141.492842,64.729889 C141.38611,65.0497261 141.38611,65.6627381 141.492842,66.5689433 C141.599573,67.4751485 141.652937,68.0348551 141.652937,68.2480799 C141.8664,68.2480799 142.239953,68.328038 142.773608,68.4879565 C143.307264,68.6478751 143.680817,68.6745278 143.894279,68.5679154 C144.107741,68.5679154 144.614706,68.3813466 145.415189,68.0082032 C146.215672,67.6350599 146.722638,67.3418803 146.9361,67.1286555 L148.537058,65.5294778 C148.75052,65.3162531 149.044026,64.9164626 149.417585,64.3300945 C149.791144,63.7437265 150.031285,63.343936 150.138016,63.1307113 C150.244747,62.9174865 150.484889,62.2245164 150.858448,61.0517803 C151.232006,59.8790441 151.525512,59.0261579 151.738975,58.493096 C151.738975,58.3864836 151.792339,57.9600405 151.89907,57.2137538 C152.005801,56.4674672 152.139213,55.694539 152.29931,54.8949462 C152.459407,54.0953533 152.619501,53.3224252 152.779597,52.5761385 C152.939694,51.8298519 153.019741,51.4034087 153.019741,51.2967964 C153.126472,51.0835716 153.366614,50.5771704 153.740172,49.7775775 C154.113731,48.9779847 154.407237,48.4715835 154.6207,48.2583587 C154.727431,48.045134 154.967572,47.6453436 155.341131,47.0589755 C155.71469,46.4726074 156.008196,46.072817 156.221658,45.8595922 L157.022137,45.0600034 C157.34233,44.8467786 157.795931,44.5269463 158.382951,44.1004967 C158.969972,43.6740472 159.316843,43.4608257 159.423574,43.4608257 C159.423574,43.4608257 159.743763,43.6740472 160.384149,44.1004967 C161.024536,44.5269463 161.451454,44.8467786 161.664916,45.0600034 L163.265874,46.6591811 L163.265874,46.9790166 L163.265874,47.4587699 C163.159143,47.6719947 162.919002,48.3116593 162.545443,49.3777831 C162.171884,50.4439069 161.878378,51.0835716 161.664916,51.2967964 C161.451454,51.6166335 161.131265,52.2296455 160.704341,53.1358507 C160.277417,54.0420559 159.823816,55.0015529 159.343526,56.0143705 C158.863237,57.0271881 158.409636,57.9866852 157.982712,58.8928904 C157.555788,59.7990956 157.235599,60.4121076 157.022137,60.7319447 C157.022137,60.8385571 156.968772,61.1317368 156.862041,61.6114925 C156.75531,62.0912482 156.701945,62.4377332 156.701945,62.650958 L156.701945,64.2501357 C156.701945,65.6360966 156.888722,67.1553002 157.262281,68.8077921 C157.635839,70.460284 158.302899,71.4464337 159.263479,71.7662708 C159.263479,71.7662708 159.343526,71.8728816 159.503622,72.0861063 C159.663719,72.2993311 159.850496,72.4059419 160.063958,72.4059419 C160.170689,72.5125543 160.41083,72.6724704 160.784389,72.8856952 C161.157948,73.09892 161.451454,73.2055307 161.664916,73.2055307 C161.878378,73.3121431 162.412026,73.2854904 163.265874,73.1255718 C163.622148,73.0588448 163.922674,73.0153197 164.167453,72.9949965 C164.402049,72.8336933 164.581809,72.6906482 164.706737,72.5658597 C167.588476,70.7534492 169.696383,68.4879701 171.030522,65.7693545 C172.364661,63.0507388 173.618732,60.412122 174.792774,57.8534249 C175.006236,57.4269754 175.353107,56.7873107 175.833397,55.9344117 C176.313687,55.0815126 176.607193,54.4418479 176.713924,54.0153984 L177.834595,50.177372 L176.393732,48.7381121 C176.287001,48.5248873 175.860083,48.0984442 175.112966,47.4587699 C174.365848,46.8190956 173.992295,46.3926525 173.992295,46.1794277 L173.672103,45.0600034 L173.512007,42.3414013 C173.512007,41.5951146 173.752149,40.8221865 174.232439,40.0225936 C174.712728,39.2230008 175.299741,38.503378 175.993493,37.8637037 C176.687245,37.2240295 177.434351,36.744281 178.234834,36.4244438 C179.035317,36.1046067 179.755742,36.0513013 180.396128,36.2645261 C180.716321,36.4777508 181.249969,36.637667 181.997086,36.7442794 C182.744204,36.8508917 183.171122,37.1174187 183.277853,37.5438682 C184.451895,38.0769301 185.225684,39.1430379 185.599242,40.7422236 C185.972801,42.3414093 185.999484,43.5674332 185.67929,44.4203323 C185.892753,44.4203323 186.346353,44.3936796 187.040105,44.3403734 C187.733857,44.2870672 188.480963,44.2071091 189.281447,44.1004967 C190.08193,43.9938844 190.855718,43.9139263 191.602836,43.8606201 C192.349954,43.8073139 192.883601,43.7806612 193.203794,43.7806612 C193.417257,43.6740488 193.924222,43.5407854 194.724705,43.3808668 C195.525188,43.2209482 196.032153,43.0876847 196.245615,42.9810724 C196.352346,42.87446 196.61917,42.7145438 197.046094,42.5013191 C197.473019,42.2880943 197.739842,42.1814835 197.846573,42.1814835 L198.647053,42.1814835 L199.447532,42.1814835 C199.660994,42.5013207 200.034547,43.2742488 200.568203,44.5002912 C201.101858,45.7263335 201.475411,46.4992617 201.688873,46.8190988 L201.688873,47.1389344 L201.688873,47.6186877 C201.688873,47.9385248 201.555461,48.4982314 201.288634,49.2978242 C201.021806,50.0974171 200.888394,50.6038183 200.888394,50.817043 C200.888394,50.9236554 200.781665,51.1635297 200.568203,51.536673 C200.35474,51.9098163 200.248011,52.1496906 200.248011,52.256303 C200.14128,52.4695277 199.981186,53.0025816 199.767723,53.8554807 C199.554261,54.7083797 199.31412,55.6145713 199.047292,56.5740827 C198.780464,57.5335942 198.540323,58.4397858 198.326861,59.2926848 C198.113399,60.1455838 197.953304,60.6786377 197.846573,60.8918625 C197.846573,60.9984749 197.713162,61.2650018 197.446334,61.6914514 C197.179506,62.1179009 197.046094,62.3844278 197.046094,62.4910402 L196.725903,66.1691489 L195.605232,68.5679154 C195.711963,68.9943649 196.085516,69.7406404 196.725903,70.8067642 C197.47302,71.7662756 197.953303,72.3526349 198.166765,72.5658597 C198.380227,72.7790844 198.700416,72.8856952 199.12734,72.8856952 C199.447533,72.8856952 200.034545,72.7790844 200.888394,72.5658597 C201.528781,72.3526349 201.955699,72.1394133 202.169161,71.9261886 C202.275892,71.9261886 202.435986,72.0061467 202.649448,72.1660652 C202.86291,72.3259838 202.96964,72.4592473 202.96964,72.5658597 L202.96964,73.3654485 L202.96964,74.1650373 C202.96964,75.1245488 202.702816,75.8974769 202.169161,76.483845 C201.635505,77.0702131 201.101858,77.6299197 200.568203,78.1629816 C199.927816,78.8026558 199.07398,79.1224882 198.006669,79.1224882 C197.899938,79.2291006 197.633114,79.2024479 197.20619,79.0425293 C196.779266,78.8826107 196.325665,78.6960419 195.845376,78.4828171 C195.365086,78.2695924 194.938168,78.0563708 194.564609,77.843146 C194.19105,77.6299213 194.004274,77.4166997 194.004274,77.203475 C194.004274,77.0968626 193.897544,76.8569883 193.684082,76.483845 C193.47062,76.1107017 193.310525,75.817522 193.203794,75.6042973 C193.097063,75.2844601 192.936969,74.8846697 192.723507,74.404914 C192.510045,73.9251583 192.323268,73.4454098 192.163171,72.9656541 C192.003075,72.4858984 191.869663,72.0328026 191.762932,71.606353 C191.656201,71.1799035 191.602836,70.966682 191.602836,70.966682 C191.602836,70.8600696 191.522789,70.4602792 191.362692,69.7672987 C191.202596,69.0743182 191.122549,68.4613062 191.122549,67.9282443 C191.122549,67.2885701 191.202596,66.249115 191.362692,64.8098479 C191.522789,63.3705807 191.602836,62.5976526 191.602836,62.4910402 C191.602836,62.1712031 191.682883,61.4249276 191.84298,60.2521914 C192.003076,59.0794553 192.189853,58.2798744 192.403315,57.8534249 C192.403315,57.7468125 192.510045,57.4802856 192.723507,57.053836 C192.936969,56.6273865 193.097063,56.3608596 193.203794,56.2542472 C193.203794,55.8277977 193.15043,55.0548695 193.043699,53.9354395 C192.936967,52.8160096 192.883603,52.0963868 192.883603,51.7765497 C192.670141,51.7765497 192.32327,51.7232443 191.84298,51.6166319 C191.36269,51.5100195 191.015819,51.4567141 190.802357,51.4567141 C190.482164,51.5633265 190.028563,51.5899792 189.441542,51.536673 C188.854521,51.4833668 188.214144,51.4300614 187.520392,51.3767552 C186.82664,51.3234491 186.186263,51.2701437 185.599242,51.2168375 C185.012221,51.1635313 184.558621,51.190184 184.238428,51.2967964 C183.49131,52.043083 182.824251,53.1091908 182.23723,54.4951517 C181.650209,55.8811127 181.063197,57.3736636 180.476176,58.9728493 C179.889155,60.572035 179.355508,62.144544 178.875218,63.6904235 C178.394928,65.236303 177.887963,66.542285 177.354307,67.6084088 C177.140845,67.8216336 176.874021,68.221424 176.553828,68.8077921 C176.233635,69.3941602 175.966811,69.847256 175.753349,70.1670931 C175.539887,70.4869303 175.006239,71.2332057 174.152391,72.4059419 C173.298542,73.5786781 172.444706,74.5381751 171.590857,75.2844617 C171.377395,75.4976865 171.083889,75.7908661 170.71033,76.1640095 C170.336772,76.5371528 170.09663,76.7237217 169.989899,76.7237217 C169.776437,76.9369464 169.376201,77.1768207 168.78918,77.4433516 C168.202159,77.7098826 167.801924,77.8964514 167.588462,78.0030638 C167.375,78.2162886 166.761305,78.5094682 165.74736,78.8826115 C164.733414,79.2557549 164.066355,79.4423237 163.746162,79.4423237 C163.594276,79.3606302 163.446228,79.279895 163.302017,79.200118 Z M115.557317,48.7381121 C115.557317,48.2050502 115.397223,47.9385232 115.07703,47.9385232 C114.756836,47.9385232 114.596742,47.6186909 114.596742,46.9790166 L114.436646,46.01951 C114.436646,46.01951 114.516693,45.9128992 114.67679,45.6996744 C114.836887,45.4864497 114.970299,45.3265335 115.07703,45.2199211 C115.290492,45.1133087 115.557316,44.9267399 115.877509,44.6602089 C116.197702,44.393678 116.411161,44.2604145 116.517892,44.2604145 C116.624623,44.1538021 116.864765,44.073844 117.238323,44.0205379 C117.611882,43.9672317 117.905388,43.8872736 118.11885,43.7806612 L119.719809,43.7806612 C119.933271,43.6740488 120.120047,43.7273542 120.280144,43.940579 C120.440241,44.1538037 120.573653,44.3137199 120.680384,44.4203323 L121.000575,47.1389344 L121.480863,49.8575364 C121.374132,50.283986 121.374132,51.0835668 121.480863,52.256303 C121.587594,53.4290391 121.534229,54.22862 121.320767,54.6550695 C121.214036,54.9749066 121.080624,55.7744875 120.920527,57.053836 C120.760431,58.3331846 120.573654,59.1327654 120.360192,59.4526026 C120.253461,59.4526026 120.146731,59.5858661 120.04,59.852397 C119.933269,60.118928 119.82654,60.3054968 119.719809,60.4121092 C119.719809,60.5187216 119.639762,60.7852485 119.479665,61.211698 C119.319568,61.6381476 119.186156,61.9046745 119.079425,62.0112869 C118.54577,62.7575735 118.145534,63.503849 117.878707,64.2501357 C117.611879,64.9964223 117.158279,65.6893924 116.517892,66.3290667 C116.197699,66.6489038 115.477275,67.2885685 114.356598,68.2480799 C113.235922,69.2075913 112.515498,69.847256 112.195305,70.1670931 C111.76838,70.4869303 111.208051,70.8867207 110.514299,71.3664764 C109.820546,71.8462321 109.366946,72.1394117 109.153484,72.2460241 C108.833291,72.3526365 108.112867,72.5392054 106.99219,72.8057363 C105.871514,73.0722673 105.15109,73.2588361 104.830897,73.3654485 C104.830897,73.0456114 104.804214,72.5925155 104.750849,72.0061475 C104.697483,71.4197794 104.644118,70.753462 104.590753,70.0071753 C104.537387,69.2608887 104.484023,68.5945713 104.430657,68.0082032 C104.377291,67.4218351 104.350609,66.9687393 104.350609,66.6489022 C104.45734,66.3290651 104.617434,65.7960112 104.830897,65.0497245 C105.044359,64.3034378 105.257818,63.6637732 105.47128,63.1307113 C105.898204,62.491037 106.218393,61.8513723 106.431855,61.211698 C106.645317,60.5720238 107.072235,59.8790537 107.712622,59.132767 C108.459739,58.1732556 109.286893,57.1071478 110.194107,55.9344117 C111.101321,54.7616755 111.76838,53.9620946 112.195305,53.5356451 C112.302036,53.4290327 112.648907,53.1092004 113.235928,52.5761385 C113.822949,52.0430766 114.223184,51.7232443 114.436646,51.6166319 C114.650109,51.1901824 114.863568,50.790392 115.07703,50.4172486 C115.290492,50.0441053 115.503951,49.6443149 115.717413,49.2178654 L115.557317,48.7381121 Z M177.834595,44.1004967 L178.154786,44.2604145 C178.261517,44.2604145 178.474976,44.3403726 178.79517,44.5002912 C179.115363,44.6602097 179.275457,44.7934732 179.275457,44.9000856 L180.075936,44.9000856 C180.289399,44.7934732 180.449493,44.6868624 180.556224,44.5802501 C180.662955,44.4736377 180.823049,44.4203323 181.036511,44.4203323 C181.249974,44.2071075 181.43675,43.7007063 181.596847,42.9011135 C181.756943,42.1015206 181.676896,41.5951194 181.356703,41.3818947 C181.143241,41.1686699 180.689641,40.982101 179.995888,40.8221825 C179.302136,40.6622639 178.688442,40.742222 178.154786,41.0620591 L177.994691,41.2219769 C177.887959,41.2219769 177.78123,41.2752823 177.674499,41.3818947 C177.567768,41.488507 177.514403,41.5418124 177.514403,41.5418124 L177.514403,42.6612368 L177.514403,43.6207434 C177.514403,43.6207434 177.541085,43.6740488 177.594451,43.7806612 C177.647817,43.8872736 177.727864,43.9938844 177.834595,44.1004967 L177.834595,44.1004967 Z" id="Amour"></path>
                <path d="M22.845755,130.634491 C22.845755,130.88633 22.8846079,131.28507 22.9623149,131.830722 C23.040022,132.376374 23.0788749,132.649196 23.0788749,132.649196 C23.3897031,133.068929 24.2444677,133.656546 25.6431943,134.412064 C27.041921,135.167583 28.1298032,135.629281 28.9068736,135.797174 L29.3731135,135.797174 L29.8393534,135.797174 C29.9947675,135.797174 30.2278851,135.713229 30.5387133,135.545336 C30.8495414,135.377443 31.0049532,135.251525 31.0049532,135.167579 C31.1603672,135.083632 31.3934848,134.894756 31.704313,134.600943 C32.0151412,134.30713 32.1705529,134.076281 32.1705529,133.908388 L32.1705529,120.938719 C32.1705529,120.854772 32.2482588,120.560964 32.4036728,120.057285 C32.5590869,119.553606 32.6756457,119.028948 32.7533528,118.483296 C32.8310598,117.937644 32.9476186,117.433972 33.1030327,116.972266 C33.2584468,116.510561 33.3361526,116.195766 33.3361526,116.027873 C33.3361526,115.85998 33.4138585,115.482226 33.5692726,114.894601 C33.7246867,114.306975 33.8412455,113.6564 33.9189525,112.942855 C33.9966595,112.229309 34.1132184,111.578734 34.2686324,110.991108 C34.4240465,110.403483 34.5017524,110.025729 34.5017524,109.857836 C34.5017524,109.689943 34.6960171,109.291203 35.0845523,108.661605 C35.4730874,108.032006 35.6673521,107.633266 35.6673521,107.465373 L35.6673521,104.946991 C35.6673521,104.779098 35.7839109,104.086549 36.017032,102.869325 C36.2501532,101.652101 36.5221237,100.707717 36.8329519,100.036145 C36.8329519,99.9521985 36.8718048,99.6793765 36.9495118,99.2176707 C37.0272189,98.755965 37.1437777,98.2942662 37.2991918,97.8325605 C37.4546058,97.3708547 37.6100176,96.9301422 37.7654317,96.5104097 C37.9208457,96.0906772 37.9985516,95.7968689 37.9985516,95.6289759 C37.9985516,95.5450294 38.0374045,95.2302347 38.1151116,94.6845825 C38.1928186,94.1389303 38.3093774,93.5513136 38.4647915,92.9217149 C38.6202056,92.2921161 38.7756173,91.7044995 38.9310314,91.1588472 C39.0864455,90.613195 39.1641514,90.2564277 39.1641514,90.0885347 C39.1641514,90.0045882 39.3195631,89.7107799 39.6303913,89.2071009 C39.9412194,88.7034219 40.174337,88.4096136 40.3297511,88.3256671 C40.3297511,88.1577741 40.368604,87.7380479 40.4463111,87.0664759 C40.5240181,86.3949039 40.6405769,85.6813694 40.795991,84.9258509 C40.9514051,84.1703324 41.0679639,83.4567979 41.1456709,82.7852259 C41.223378,82.1136539 41.2622309,81.6939277 41.2622309,81.5260347 C41.417645,81.3581417 41.6507626,80.9384155 41.9615907,80.2668435 C42.2724189,79.5952716 42.4278306,79.1755454 42.4278306,79.0076524 C42.4278306,78.8397594 42.5055365,78.4829921 42.6609506,77.9373399 C42.8163647,77.3916876 42.9717764,76.8250573 43.1271905,76.2374318 C43.2826046,75.6498063 43.3991634,75.1041622 43.4768704,74.6004832 C43.5545774,74.0968043 43.5934304,73.7190507 43.5934304,73.4672112 L43.5934304,70.9488288 C43.7488445,70.7809358 43.9431091,70.4871275 44.1762302,70.067395 C44.4093514,69.6476625 44.603616,69.3538542 44.7590301,69.1859612 L44.7590301,33.4249318 C44.603616,33.2570388 44.3704984,33.0471757 44.0596703,32.7953362 C43.7488421,32.5434967 43.5934304,32.3336336 43.5934304,32.1657406 L43.5934304,28.3881671 C43.5934304,28.1363276 43.5545774,27.5696972 43.4768704,26.688259 C43.3991634,25.8068208 43.2826046,24.8414505 43.1271905,23.7921193 C42.9717764,22.742788 42.8163647,21.7774178 42.6609506,20.8959796 C42.5055365,20.0145413 42.4278306,19.447911 42.4278306,19.1960715 L42.4278306,14.9148215 C42.4278306,14.327196 42.3889777,13.4667573 42.3112707,12.3334796 C42.2335636,11.2002018 42.1170048,10.0459548 41.9615907,8.87070384 C41.8061767,7.69545286 41.6507649,6.60416475 41.4953508,5.59680678 C41.3399368,4.5894488 41.2622309,3.95985951 41.2622309,3.70802001 C41.2622309,3.28828752 41.1068191,2.70067085 40.795991,1.94515236 C40.4851628,1.18963388 40.3297511,0.769907686 40.3297511,0.685961188 C40.174337,0.60201469 39.6692488,0.497083141 38.8144714,0.371163394 C37.959694,0.245243647 37.2991941,0.140312098 36.8329519,0.0563655998 L34.9679923,0.0563655998 L33.3361526,0.0563655998 C33.1807386,0.0563655998 32.9476209,0.140310839 32.6367928,0.308203835 C32.3259646,0.476096831 32.1705529,0.60201469 32.1705529,0.685961188 C32.1705529,0.937800682 32.1317,1.35752688 32.0539929,1.94515236 C31.9762859,2.53277785 31.8597271,3.14138083 31.704313,3.77097957 C31.5488989,4.40057831 31.3934872,5.00918129 31.2380731,5.59680678 C31.082659,6.18443226 31.0049532,6.60415846 31.0049532,6.85599795 C31.0049532,7.02389095 30.8495414,7.52756238 30.5387133,8.36702736 C30.2278851,9.20649235 29.9947675,9.71016378 29.8393534,9.87805678 C29.8393534,10.0459498 29.8005005,10.402717 29.7227934,10.9483693 C29.6450864,11.4940215 29.5285276,12.0816382 29.3731135,12.7112369 C29.2176994,13.3408357 29.1011406,13.9284523 29.0234336,14.4741046 C28.9457266,15.0197568 28.9068736,15.3345515 28.9068736,15.418498 C28.7514595,15.5863909 28.4017831,16.0061171 27.8578338,16.6776891 C27.3138846,17.3492611 26.8865023,17.7689873 26.5756741,17.9368803 C26.4202601,18.1047733 25.837466,18.4195679 24.8272745,18.8812737 C23.817083,19.3429794 23.234289,19.6577741 23.0788749,19.8256671 C22.7680468,19.9935601 22.3406645,20.3083547 21.7967152,20.7700605 C21.2527659,21.2317662 20.9030895,21.5045882 20.7476754,21.5885347 C20.7476754,21.7564277 20.6699695,22.0502361 20.5145555,22.4699685 C20.3591414,22.889701 20.2425826,23.3304135 20.1648755,23.7921193 C20.0871685,24.253825 19.9706097,24.7155238 19.8151956,25.1772296 C19.6597815,25.6389353 19.5820757,25.9117573 19.5820757,25.9957038 C19.5820757,26.0796503 19.4266639,26.3734587 19.1158358,26.8771377 C18.8050076,27.3808166 18.57189,27.674625 18.4164759,27.7585715 C18.4164759,27.9264645 18.2610642,28.3461907 17.950236,29.0177627 C17.6394079,29.6893346 17.4839961,30.1090608 17.4839961,30.2769538 C17.3285821,30.4448468 17.0954644,30.7596415 16.7846363,31.2213472 C16.4738081,31.683053 16.3183964,31.9978476 16.3183964,32.1657406 C16.3183964,32.3336336 16.2406905,32.6484282 16.0852764,33.110134 C15.9298624,33.5718397 15.7744506,34.0755112 15.6190366,34.6211634 C15.4636225,35.1668156 15.3470637,35.6914734 15.2693566,36.1951524 C15.1916496,36.6988314 15.1527967,36.9926397 15.1527967,37.0765862 C14.9973826,37.1605327 14.764265,37.3703958 14.4534368,37.7061818 C14.1426087,38.0419678 13.9871969,38.2518309 13.9871969,38.3357774 C13.9871969,38.4197239 13.8706381,38.6715596 13.637517,39.0912921 C13.4043959,39.5110246 13.1712783,39.9937097 12.9381571,40.5393619 C12.705036,41.0850142 12.4719184,41.6096719 12.2387973,42.1133509 C12.0056762,42.6170299 11.8114115,42.9947835 11.6559974,43.246623 C11.5005834,43.4145159 11.3063187,43.9181874 11.0731976,44.7576524 C10.8400764,45.5971173 10.6458118,46.1007888 10.4903977,46.2686818 C10.4903977,46.4365748 10.296133,46.6674242 9.90759781,46.9612369 C9.51906262,47.2550497 9.32479794,47.4439265 9.32479794,47.527873 C9.32479794,47.6118195 9.24709207,47.8846415 9.09167799,48.3463472 C8.93626392,48.808053 8.74199924,49.3327107 8.50887812,49.9203362 C8.27575701,50.5079617 8.00378645,51.0955783 7.6929583,51.6832038 C7.38213015,52.2708293 7.14901253,52.7325281 6.99359846,53.0683141 C6.99359846,53.1522606 6.95474552,53.3621237 6.87703848,53.6979097 C6.79933144,54.0336957 6.68277264,54.3694767 6.52735856,54.7052627 C6.37194448,55.0410487 6.25538567,55.3558433 6.17767864,55.649656 C6.0999716,55.9434688 6.06111866,56.1323456 6.06111866,56.2162921 C5.90570459,56.3002386 5.67258697,56.5101017 5.36175882,56.8458877 C5.05093066,57.1816737 4.89551892,57.3915367 4.89551892,57.4754832 C4.74010484,57.6433762 4.54584016,58.0631024 4.31271905,58.7346744 C4.07959793,59.4062464 3.84648032,60.1197809 3.6133592,60.8752994 C3.38023809,61.6308179 3.14712047,62.3443524 2.91399936,63.0159244 C2.68087824,63.6874964 2.56431943,64.1072226 2.56431943,64.2751156 C2.56431943,64.3590621 2.40890769,64.6108978 2.09807954,65.0306303 C1.78725138,65.4503628 1.51528083,65.8910753 1.28215972,66.352781 C1.0490386,66.8144868 0.815920985,67.2761856 0.582799871,67.7378913 C0.349678757,68.1995971 0.233119949,68.4724191 0.233119949,68.5563656 C0.233119949,68.6403121 0.194267012,68.9760931 0.116559974,69.5637185 C0.0388529362,70.151344 0,70.6130428 0,70.9488288 C0,71.2006683 0.0388529362,71.5784219 0.116559974,72.0821009 C0.194267012,72.5857799 0.233119949,72.8376156 0.233119949,72.8376156 C0.388534025,73.0055086 1.010181,73.4042485 2.09807954,74.0338472 C3.18597807,74.663446 4.11844854,75.1041585 4.89551892,75.355998 L5.36175882,75.355998 L6.06111866,75.355998 C6.37194681,75.2720515 6.79932911,75.1461336 7.34327838,74.9782406 C7.88722765,74.8103476 8.1591982,74.7264024 8.1591982,74.7264024 C8.31461227,74.6424559 8.54772989,74.1387844 8.85855804,73.215373 C9.1693862,72.2919615 9.32479794,71.7463174 9.32479794,71.5784244 C9.48021202,71.2426384 9.71332963,70.7809396 10.0241578,70.1933141 C10.3349859,69.6056886 10.6069565,69.018072 10.8400776,68.4304465 C11.0731987,67.842821 11.2674634,67.3181633 11.4228775,66.8564575 C11.5782916,66.3947518 11.6559974,66.1219297 11.6559974,66.0379832 C11.6559974,65.9540367 11.8502621,65.76516 12.2387973,65.4713472 C12.6273325,65.1775345 12.8215972,64.9466851 12.8215972,64.7787921 C12.8215972,64.6948456 12.9770089,64.3380783 13.2878371,63.7084796 C13.5986652,63.0788808 13.8317828,62.6381683 13.9871969,62.3863288 C14.142611,61.9665963 14.4534345,61.1901029 14.9196767,60.0568252 C15.3859189,58.9235474 15.8521542,57.7483141 16.3183964,56.5310899 C16.7846386,55.3138656 17.2120209,54.1386323 17.6005561,53.0053546 C17.9890913,51.8720768 18.2610619,51.0955834 18.4164759,50.6758509 C18.7273041,50.5079579 19.1158334,50.2771085 19.5820757,49.9832957 C20.0483179,49.689483 20.4368473,49.5006062 20.7476754,49.4166597 C21.2139176,49.2487667 22.0298293,49.0179173 23.1954349,48.7241046 C24.3610404,48.4302918 25.0992462,48.241415 25.4100744,48.1574685 C25.5654885,48.1574685 26.0317237,48.1154959 26.8087941,48.0315494 C27.5858645,47.9476029 28.4406291,47.884644 29.3731135,47.8426707 C30.305598,47.8006975 31.1603626,47.7377386 31.9374329,47.6537921 C32.7145033,47.5698456 33.1807386,47.527873 33.3361526,47.527873 C33.6469808,47.527873 34.2297748,47.4439277 35.0845523,47.2760347 C35.9393297,47.1081417 36.5221237,46.9822239 36.8329519,46.8982774 C36.9883659,46.8982774 37.1826306,46.9192637 37.4157517,46.9612369 C37.6488729,47.0032102 37.8431375,47.0241965 37.9985516,47.0241965 L37.9985516,69.8155568 C37.8431375,69.9834498 37.6100199,70.2772581 37.2991918,70.6969906 C36.9883636,71.1167231 36.8329519,71.4105314 36.8329519,71.5784244 C36.8329519,71.7463174 36.755246,72.1660436 36.5998319,72.8376156 C36.4444178,73.5091876 36.2890061,74.2227221 36.133592,74.9782406 C35.9781779,75.7337591 35.8616191,76.4472936 35.7839121,77.1188656 C35.7062051,77.7904376 35.6673521,78.2101638 35.6673521,78.3780568 C35.6673521,78.6298963 35.5896463,79.0286362 35.4342322,79.5742884 C35.2788181,80.1199406 35.1622593,80.6445984 35.0845523,81.1482774 C35.0068452,81.6519564 34.8902864,82.1136552 34.7348723,82.5333877 C34.5794583,82.9531201 34.5017524,83.2049559 34.5017524,83.2889024 C34.5017524,83.4567954 34.3851936,83.8135626 34.1520725,84.3592149 C33.9189513,84.9048671 33.6469808,85.4924838 33.3361526,86.1220825 C33.0253245,86.7516812 32.7533539,87.3392979 32.5202328,87.8849502 C32.2871117,88.4306024 32.1705529,88.7873697 32.1705529,88.9552627 C32.1705529,89.2071022 32.092847,89.8366914 31.9374329,90.8440494 C31.7820189,91.8514074 31.6654601,92.9636818 31.587753,94.180906 C31.510046,95.3981303 31.3934872,96.5104047 31.2380731,97.5177627 C31.082659,98.5251206 31.0049532,99.1547099 31.0049532,99.4065494 C31.0049532,99.4904959 30.8495414,99.7843043 30.5387133,100.287983 C30.2278851,100.791662 29.9947675,101.127443 29.8393534,101.295336 C29.8393534,101.463229 29.8005005,101.79901 29.7227934,102.302689 C29.6450864,102.806368 29.5285276,103.372998 29.3731135,104.002597 C29.2176994,104.632196 29.1011406,105.219813 29.0234336,105.765465 C28.9457266,106.311117 28.9068736,106.667884 28.9068736,106.835777 C28.7514595,106.919724 28.5183419,107.213532 28.2075138,107.717211 C27.8966856,108.22089 27.7412739,108.514699 27.7412739,108.598645 C27.7412739,108.766538 27.663568,109.123305 27.5081539,109.668958 C27.3527399,110.21461 27.1973281,110.802226 27.041914,111.431825 C26.8865,112.061424 26.7699411,112.649041 26.6922341,113.194693 C26.6145271,113.740345 26.5756741,114.05514 26.5756741,114.139086 C26.5756741,114.306979 26.4979683,114.600788 26.3425542,115.02052 C26.1871401,115.440253 26.0317284,115.880965 25.8763143,116.342671 C25.7209002,116.804376 25.6043414,117.266075 25.5266344,117.727781 C25.4489273,118.189487 25.4100744,118.462309 25.4100744,118.546255 C25.4100744,118.714148 25.3323685,119.133874 25.1769544,119.805446 C25.0215404,120.477018 24.9049816,121.190553 24.8272745,121.946071 C24.7495675,122.70159 24.6330087,123.415124 24.4775946,124.086696 C24.3221805,124.758268 24.2444746,125.177995 24.2444746,125.345888 C24.2444746,125.513781 24.05021,125.912521 23.6616748,126.542119 C23.2731396,127.171718 23.0788749,127.570458 23.0788749,127.738351 C23.0788749,127.906244 23.040022,128.32597 22.9623149,128.997542 C22.8846079,129.669114 22.845755,130.214758 22.845755,130.634491 L22.845755,130.634491 Z M33.3361526,18.5664759 C33.4915667,18.5664759 33.7246843,18.6504211 34.0355125,18.8183141 C34.3463406,18.9862071 34.5017524,19.112125 34.5017524,19.1960715 C34.6571665,19.3639645 34.8514311,19.7627044 35.0845523,20.3923031 C35.3176734,21.0219018 35.511938,21.4206417 35.6673521,21.5885347 C35.6673521,21.7564277 35.745058,22.0712224 35.9004721,22.5329281 C36.0558862,22.9946338 36.172445,23.5192916 36.250152,24.1069171 C36.327859,24.6945426 36.4444178,25.2401866 36.5998319,25.7438656 C36.755246,26.2475446 36.8329519,26.5413529 36.8329519,26.6252994 C36.8329519,26.7092459 36.9883636,27.0030543 37.2991918,27.5067332 C37.6100199,28.0104122 37.8431375,28.3042206 37.9985516,28.3881671 C37.9985516,28.5560601 38.0374045,28.9338136 38.1151116,29.5214391 C38.1928186,30.1090646 38.3093774,30.8016128 38.4647915,31.5991046 C38.6202056,32.3965963 38.7756173,33.1940761 38.9310314,33.9915678 C39.0864455,34.7890595 39.1641514,35.3976625 39.1641514,35.817395 L39.1641514,36.4469906 L39.1641514,37.0765862 C39.0087373,37.5802652 38.8533255,38.2937997 38.6979115,39.2172112 C38.5424974,40.1406227 38.3870856,40.9171161 38.2316716,41.5467149 C38.0762575,42.1763136 37.9985516,42.5330809 37.9985516,42.6170274 L22.845755,42.6170274 C22.845755,42.3651879 22.8846079,41.7565849 22.9623149,40.7912002 C23.040022,39.8258154 23.0788749,39.2172124 23.0788749,38.965373 C23.0788749,38.79748 23.2731396,38.3777538 23.6616748,37.7061818 C24.05021,37.0346098 24.2444746,36.6148836 24.2444746,36.4469906 L24.2444746,34.5582038 C24.2444746,34.4742573 24.3998864,34.2014353 24.7107145,33.7397296 C25.0215427,33.2780238 25.2546603,32.9632292 25.4100744,32.7953362 C25.4100744,32.7113897 25.5654861,32.5015266 25.8763143,32.1657406 C26.1871424,31.8299546 26.4202601,31.6200915 26.5756741,31.536145 C26.5756741,31.4521985 26.6922329,31.2003628 26.9253541,30.7806303 C27.1584752,30.3608978 27.3915928,29.8782127 27.6247139,29.3325605 C27.857835,28.7869082 28.0909526,28.2622505 28.3240737,27.7585715 C28.5571949,27.2548925 28.7514595,26.8771389 28.9068736,26.6252994 C28.9068736,26.4574064 29.0622854,25.9327487 29.3731135,25.0513105 C29.6839417,24.1698722 29.8393534,23.6452145 29.8393534,23.4773215 C29.9947675,23.3094285 30.3444439,22.7427981 30.8883932,21.7774134 C31.4323424,20.8120287 31.8597247,20.1614531 32.1705529,19.8256671 C32.325967,19.6577741 32.5202317,19.4269247 32.7533528,19.1331119 C32.9864739,18.8392992 33.1807386,18.6504224 33.3361526,18.5664759 L33.3361526,18.5664759 Z" id="Amour"></path>
            </g>
        </g>
    </g>
</svg>