<?xml version="1.0" encoding="UTF-8"?>
<svg width="218px" height="191px" viewBox="0 0 218 191" version="1.1" xmlns="http://www.w3.org/2000/svg" xmlns:xlink="http://www.w3.org/1999/xlink">
    <!-- Generator: Sketch 3.8.3 (29802) - http://www.bohemiancoding.com/sketch -->
    <title>Logo</title>
    <desc>Created with Sketch.</desc>
    <defs></defs>
    <g id="Page-1" stroke="none" stroke-width="1" fill="none" fill-rule="evenodd">
        <g id="Logo" fill="#FFFFFF">
            <g id="Group-7-Copy">
                <g id="Group-2" transform="translate(1.751004, 0.000000)">
                    <path d="M0,166.661547 L0,129.525523 L15.6693781,129.525523 C22.6564145,129.525523 26.1498802,132.40808 26.1498802,138.173282 C26.1498802,142.397634 23.6154051,145.418693 18.5463787,147.23655 C23.9236567,148.154134 26.6122553,151.054005 26.6122553,155.936248 C26.6122553,163.086483 22.7848553,166.661547 15.1299405,166.661547 L0,166.661547 Z M14.847378,164.324315 C20.7726588,164.324315 23.7352547,161.554289 23.7352547,156.014155 C23.7352547,151.114599 20.0277286,148.664858 12.612565,148.664858 L10.5575646,148.664858 L10.5575646,146.821042 C19.1201091,146.04196 23.4013172,143.219997 23.4013172,138.355067 C23.4013172,134.026837 20.764093,131.862755 15.4895656,131.862755 L2.69718804,131.862755 L2.69718804,164.324315 L14.847378,164.324315 Z M35.446702,152.326522 L35.446702,129.525523 L38.14389,129.525523 L38.14389,152.326522 C38.14389,160.49822 42.1682256,164.584007 50.2170175,164.584007 C58.2658093,164.584007 62.2901449,160.49822 62.2901449,152.326522 L62.2901449,129.525523 L64.9873329,129.525523 L64.9873329,152.326522 C64.9873329,162.056382 60.0639437,166.921239 50.2170175,166.921239 C40.3700913,166.921239 35.446702,162.056382 35.446702,152.326522 L35.446702,152.326522 Z M74.4896547,166.661547 L74.4896547,129.525523 L89.6452828,129.525523 C96.2898173,129.525523 99.6120347,132.494644 99.6120347,138.432975 C99.6120347,143.574911 96.0072576,147.219226 88.7975951,149.366028 L101.20466,166.661547 L97.5056593,166.661547 L85.3040944,149.443936 L85.3040944,147.600119 C92.8391336,146.474779 96.6065966,143.488346 96.6065966,138.640729 C96.6065966,134.173996 94.1406208,131.940663 89.2085952,131.940663 L77.1868428,131.940663 L77.1868428,166.661547 L74.4896547,166.661547 Z M107.496044,166.661547 L107.496044,129.525523 L110.963857,129.525523 L135.495424,162.039021 L135.495424,129.525523 L137.935737,129.525523 L137.935737,166.661547 L135.752299,166.661547 L109.936357,132.589894 L109.936357,166.661547 L107.496044,166.661547 Z M147.181184,152.06683 L147.181184,129.525523 L153.988373,129.525523 L153.988373,152.06683 C153.988373,157.987848 156.985219,160.948312 162.979,160.948312 C168.972781,160.948312 171.969627,157.987848 171.969627,152.06683 L171.969627,129.525523 L178.776815,129.525523 L178.776815,152.06683 C178.776815,161.969819 173.51093,166.921239 162.979,166.921239 C152.44707,166.921239 147.181184,161.969819 147.181184,152.06683 L147.181184,152.06683 Z M188.050347,166.661547 L188.050347,129.525523 L204.49035,129.525523 C211.991139,129.525523 215.741478,133.014023 215.741478,139.991129 C215.741478,147.556875 210.61259,152.136073 200.354662,153.728862 L199.378537,147.600119 C205.543569,146.474779 208.626039,144.007726 208.626039,140.198883 C208.626039,137.117184 207.101929,135.576357 204.053663,135.576357 L194.857536,135.576357 L194.857536,166.661547 L188.050347,166.661547 Z" id="BURNUP"></path>
                    <g id="Group" transform="translate(50.812371, 0.000000)">
                        <path d="M57.2404417,115.891257 C88.8534647,115.891257 114.480883,89.9481155 114.480883,57.9456285 C114.480883,25.9431416 88.8534647,1.49409537e-13 57.2404417,1.49409537e-13 C25.6274187,1.49409537e-13 0,25.9431416 0,57.9456285 C0,89.9481155 25.6274187,115.891257 57.2404417,115.891257 Z M57.554237,107.930971 C84.6511139,107.930971 106.617473,85.6939929 106.617473,58.2632898 C106.617473,30.8325867 84.6511139,8.59560817 57.554237,8.59560817 C30.4573602,8.59560817 8.49100131,30.8325867 8.49100131,58.2632898 C8.49100131,85.6939929 30.4573602,107.930971 57.554237,107.930971 Z" id="Combined-Shape"></path>
                        <path d="M76.6383076,83.2013642 C73.6131464,87.5086179 68.8665437,92.0262714 63.9371241,95.1574566 C68.0295688,87.2687516 71.7379958,77.0387658 71.0674967,63.5762719 C67.5178856,76.1284113 60.9502625,92.8265149 47.8931476,96.0595399 C37.941368,98.5238555 32.0437333,89.8059576 31.4033633,81.3971977 C29.5368939,56.866737 47.8083778,49.1041685 51.0122707,29.514229 C52.7342227,34.0799592 53.0339813,40.5180937 51.9038864,46.6579462 C51.5275286,48.7024959 49.6242916,53.6254408 51.9038864,54.3274631 C55.0168816,55.2874451 58.4229966,47.4700796 59.4800668,45.0786544 C63.2778596,36.487927 64.6163045,20.6381435 59.0347696,12.8212949 C74.0145267,21.5024891 82.2075867,43.968239 77.9752206,69.2151968 C82.3347415,62.8995802 83.6165029,51.3306857 81.9859594,41.0185044 C85.0514629,46.2288751 87.1027919,52.3402952 87.5562597,59.7409965 C88.7956362,79.9233643 79.8917348,95.3916364 67.0557365,101.923856 C66.866281,101.8825 66.8458545,102.012255 66.8325773,102.149765 C70.1048989,96.7382993 74.7034096,90.7168291 76.6383076,83.2013642 L76.6383076,83.2013642 Z" id="Shape-Copy-2"></path>
                    </g>
                </g>
                <text id="BRULER-D’AMOUR" font-family="Sansation-Light, Sansation Light" font-size="16.9699993" font-weight="300" letter-spacing="5.4000001">
                    <tspan x="0.407458388" y="186">BRULER D’AMOU</tspan>
                    <tspan x="206.359168" y="186">R</tspan>
                </text>
            </g>
        </g>
    </g>
</svg>