<?xml version="1.0" encoding="UTF-8"?>
<svg width="218px" height="191px" viewBox="0 0 218 191" version="1.1" xmlns="http://www.w3.org/2000/svg" xmlns:xlink="http://www.w3.org/1999/xlink">
    <!-- Generator: Sketch 3.8.3 (29802) - http://www.bohemiancoding.com/sketch -->
    <title>logo-baseline</title>
    <desc>Created with Sketch.</desc>
    <defs></defs>
    <g id="Page-1" stroke="none" stroke-width="1" fill="none" fill-rule="evenodd">
        <g id="logo-baseline">
            <path d="M1.75100402,166.661547 L1.75100402,129.525523 L17.4203821,129.525523 C24.4074185,129.525523 27.9008842,132.40808 27.9008842,138.173282 C27.9008842,142.397634 25.3664091,145.418693 20.2973827,147.23655 C25.6746607,148.154134 28.3632593,151.054005 28.3632593,155.936248 C28.3632593,163.086483 24.5358593,166.661547 16.8809445,166.661547 L1.75100402,166.661547 Z M16.598382,164.324315 C22.5236628,164.324315 25.4862588,161.554289 25.4862588,156.014155 C25.4862588,151.114599 21.7787326,148.664858 14.363569,148.664858 L12.3085686,148.664858 L12.3085686,146.821042 C20.8711131,146.04196 25.1523212,143.219997 25.1523212,138.355067 C25.1523212,134.026837 22.515097,131.862755 17.2405696,131.862755 L4.44819205,131.862755 L4.44819205,164.324315 L16.598382,164.324315 Z M37.197706,152.326522 L37.197706,129.525523 L39.8948941,129.525523 L39.8948941,152.326522 C39.8948941,160.49822 43.9192296,164.584007 51.9680215,164.584007 C60.0168133,164.584007 64.0411489,160.49822 64.0411489,152.326522 L64.0411489,129.525523 L66.7383369,129.525523 L66.7383369,152.326522 C66.7383369,162.056382 61.8149477,166.921239 51.9680215,166.921239 C42.1210953,166.921239 37.197706,162.056382 37.197706,152.326522 L37.197706,152.326522 Z M76.2406587,166.661547 L76.2406587,129.525523 L91.3962868,129.525523 C98.0408213,129.525523 101.363039,132.494644 101.363039,138.432975 C101.363039,143.574911 97.7582616,147.219226 90.5485991,149.366028 L102.955664,166.661547 L99.2566633,166.661547 L87.0550984,149.443936 L87.0550984,147.600119 C94.5901376,146.474779 98.3576007,143.488346 98.3576007,138.640729 C98.3576007,134.173996 95.8916248,131.940663 90.9595992,131.940663 L78.9378468,131.940663 L78.9378468,166.661547 L76.2406587,166.661547 Z M109.247048,166.661547 L109.247048,129.525523 L112.714861,129.525523 L137.246428,162.039021 L137.246428,129.525523 L139.686741,129.525523 L139.686741,166.661547 L137.503303,166.661547 L111.687361,132.589894 L111.687361,166.661547 L109.247048,166.661547 Z M148.932188,152.06683 L148.932188,129.525523 L155.739377,129.525523 L155.739377,152.06683 C155.739377,157.987848 158.736223,160.948312 164.730004,160.948312 C170.723785,160.948312 173.720631,157.987848 173.720631,152.06683 L173.720631,129.525523 L180.527819,129.525523 L180.527819,152.06683 C180.527819,161.969819 175.261934,166.921239 164.730004,166.921239 C154.198074,166.921239 148.932188,161.969819 148.932188,152.06683 L148.932188,152.06683 Z M189.801351,166.661547 L189.801351,129.525523 L206.241354,129.525523 C213.742143,129.525523 217.492482,133.014023 217.492482,139.991129 C217.492482,147.556875 212.363594,152.136073 202.105666,153.728862 L201.129541,147.600119 C207.294573,146.474779 210.377043,144.007726 210.377043,140.198883 C210.377043,137.117184 208.852933,135.576357 205.804667,135.576357 L196.60854,135.576357 L196.60854,166.661547 L189.801351,166.661547 Z" id="BURNUP" fill="#FFFFFF"></path>
            <ellipse id="Combined-Shape" fill="#FFFFFF" cx="109.803816" cy="57.9456285" rx="57.2404417" ry="57.9456285"></ellipse>
            <path d="M129.201682,83.2013642 C126.176521,87.5086179 121.429918,92.0262714 116.500499,95.1574566 C120.592944,87.2687516 124.30137,77.0387658 123.630871,63.5762719 C120.08126,76.1284113 113.513637,92.8265149 100.456522,96.0595399 C90.5047427,98.5238555 84.607108,89.8059576 83.966738,81.3971977 C82.1002686,56.866737 100.371752,49.1041685 103.575645,29.514229 C105.297597,34.0799592 105.597356,40.5180937 104.467261,46.6579462 C104.090903,48.7024959 102.187666,53.6254408 104.467261,54.3274631 C107.580256,55.2874451 110.986371,47.4700796 112.043442,45.0786544 C115.841234,36.487927 117.179679,20.6381435 111.598144,12.8212949 C126.577901,21.5024891 134.770961,43.968239 130.538595,69.2151968 C134.898116,62.8995802 136.179878,51.3306857 134.549334,41.0185044 C137.614838,46.2288751 139.666167,52.3402952 140.119634,59.7409965 C141.359011,79.9233643 132.455109,95.3916364 119.619111,101.923856 C119.429656,101.8825 119.409229,102.012255 119.395952,102.149765 C122.668274,96.7382993 127.266784,90.7168291 129.201682,83.2013642 L129.201682,83.2013642 Z" id="Shape-Copy-2" fill="#DA351C"></path>
            <path d="M1.73323958,186 L1.73323958,174.150831 L6.7877804,174.150831 C9.0416197,174.150831 10.1685224,175.070582 10.1685224,176.910113 C10.1685224,178.257997 9.35096555,179.221941 7.71582723,179.801973 C9.45039964,180.094751 10.3176728,181.020027 10.3176728,182.577827 C10.3176728,184.859287 9.08305144,186 6.61377161,186 L1.73323958,186 Z M6.52262416,185.254248 C8.43396827,185.254248 9.38962599,184.370403 9.38962599,182.602686 C9.38962599,181.039361 8.19367283,180.25771 5.80173063,180.25771 L5.13884003,180.25771 L5.13884003,179.669395 C7.900898,179.42081 9.28190627,178.520392 9.28190627,176.968116 C9.28190627,175.587087 8.43120518,174.896582 6.72977747,174.896582 L2.60328349,174.896582 L2.60328349,185.254248 L6.52262416,185.254248 Z M18.1537959,186 L18.1537959,174.150831 L23.042614,174.150831 C25.185971,174.150831 26.2576334,175.098202 26.2576334,176.992974 C26.2576334,178.633636 25.0948245,179.796445 22.7691717,180.481436 L26.7713737,186 L25.5781706,186 L21.6422576,180.506294 L21.6422576,179.917979 C24.0728687,179.558911 25.2881559,178.606016 25.2881559,177.059263 C25.2881559,175.634041 24.4926952,174.921441 22.9017498,174.921441 L19.0238398,174.921441 L19.0238398,186 L18.1537959,186 Z M33.7871696,181.426055 L33.7871696,174.150831 L34.6572135,174.150831 L34.6572135,181.426055 C34.6572135,184.033438 35.9553613,185.337109 38.5516958,185.337109 C41.1480302,185.337109 42.446178,184.033438 42.446178,181.426055 L42.446178,174.150831 L43.3162219,174.150831 L43.3162219,181.426055 C43.3162219,184.530608 41.7280624,186.082861 38.5516958,186.082861 C35.3753291,186.082861 33.7871696,184.530608 33.7871696,181.426055 L33.7871696,181.426055 Z M52.2378283,174.150831 L52.2378283,185.254248 L59.098746,185.254248 L59.098746,186 L51.3677844,186 L51.3677844,174.150831 L52.2378283,174.150831 Z M74.0195123,174.150831 L74.0195123,174.896582 L67.1088778,174.896582 L67.1088778,179.619678 L73.7377838,179.619678 L73.7377838,180.36543 L67.1088778,180.36543 L67.1088778,185.254248 L74.1355182,185.254248 L74.1355182,186 L66.2388339,186 L66.2388339,174.150831 L74.0195123,174.150831 Z M81.9799274,186 L81.9799274,174.150831 L86.8687455,174.150831 C89.0121025,174.150831 90.0837649,175.098202 90.0837649,176.992974 C90.0837649,178.633636 88.920956,179.796445 86.5953031,180.481436 L90.5975051,186 L89.4043021,186 L85.4683891,180.506294 L85.4683891,179.917979 C87.8990001,179.558911 89.1142874,178.606016 89.1142874,177.059263 C89.1142874,175.634041 88.3188267,174.921441 86.7278813,174.921441 L82.8499713,174.921441 L82.8499713,186 L81.9799274,186 Z M111.299434,185.254248 C114.586283,185.254248 116.229682,183.420269 116.229682,179.752256 C116.229682,176.515124 114.586283,174.896582 111.299434,174.896582 L108.026411,174.896582 L108.026411,185.254248 L111.299434,185.254248 Z M107.156367,186 L107.156367,174.150831 L111.382295,174.150831 C115.249176,174.150831 117.182588,176.017954 117.182588,179.752256 C117.182588,183.91744 115.221556,186 111.299434,186 L107.156367,186 Z M126.104194,174.150831 L124.861274,177.755298 L123.908369,177.755298 L125.151289,174.150831 L126.104194,174.150831 Z M133.136562,186 L132.208515,186 L137.569643,174.150831 L138.60541,174.150831 L143.991396,186 L142.955629,186 L141.198969,182.022656 L136.219004,182.022656 L136.558735,181.276904 L140.87581,181.276904 L138.033667,174.830293 L133.136562,186 Z M151.007192,186 L151.007192,174.150831 L151.877236,174.150831 L157.221791,184.980806 L162.234901,174.150831 L163.022084,174.150831 L163.022084,186 L162.234901,186 L162.234901,175.750054 L157.528378,186 L156.815771,186 L151.794374,175.667193 L151.794374,186 L151.007192,186 Z M176.608783,185.337109 C179.879059,185.337109 181.514173,183.572181 181.514173,180.042271 C181.514173,176.556554 179.879059,174.813721 176.608783,174.813721 C173.277741,174.813721 171.612245,176.556554 171.612245,180.042271 C171.612245,183.572181 173.277741,185.337109 176.608783,185.337109 L176.608783,185.337109 Z M170.65934,180.091988 C170.65934,176.075955 172.642468,174.067969 176.608783,174.067969 C180.514333,174.067969 182.467078,176.075955 182.467078,180.091988 C182.467078,184.085923 180.514333,186.082861 176.608783,186.082861 C172.642468,186.082861 170.65934,184.085923 170.65934,180.091988 L170.65934,180.091988 Z M190.104334,181.426055 L190.104334,174.150831 L190.974378,174.150831 L190.974378,181.426055 C190.974378,184.033438 192.272526,185.337109 194.868861,185.337109 C197.465195,185.337109 198.763343,184.033438 198.763343,181.426055 L198.763343,174.150831 L199.633387,174.150831 L199.633387,181.426055 C199.633387,184.530608 198.045227,186.082861 194.868861,186.082861 C191.692494,186.082861 190.104334,184.530608 190.104334,181.426055 L190.104334,181.426055 Z M207.684949,186 L207.684949,174.150831 L212.573767,174.150831 C214.717124,174.150831 215.788787,175.098202 215.788787,176.992974 C215.788787,178.633636 214.625978,179.796445 212.300325,180.481436 L216.302527,186 L215.109324,186 L211.173411,180.506294 L211.173411,179.917979 C213.604022,179.558911 214.819309,178.606016 214.819309,177.059263 C214.819309,175.634041 214.023848,174.921441 212.432903,174.921441 L208.554993,174.921441 L208.554993,186 L207.684949,186 Z" id="BRULER-D’AMOUR" fill="#FFFFFF"></path>
        </g>
    </g>
</svg>