<?xml version="1.0" encoding="UTF-8"?>
<svg width="720px" height="225px" viewBox="0 0 720 225" version="1.1" xmlns="http://www.w3.org/2000/svg" xmlns:xlink="http://www.w3.org/1999/xlink">
    <!-- Generator: Sketch 3.8.3 (29802) - http://www.bohemiancoding.com/sketch -->
    <title>logo-v2</title>
    <desc>Created with Sketch.</desc>
    <defs></defs>
    <g id="Page-1" stroke="none" stroke-width="1" fill="none" fill-rule="evenodd">
        <g id="logo-v2" fill="#FFFFFF">
            <g id="Group" transform="translate(12.000000, 22.000000)">
                <path d="M92.5607519,141.652717 C86.3888117,150.32185 76.7047833,159.414451 66.6477713,165.716532 C74.9971854,149.839075 82.5631256,129.249364 81.1951719,102.153642 C73.9532482,127.41711 60.5539701,161.025087 33.9148177,167.532139 C13.6111764,172.492023 1.5788102,154.945665 0.272325898,138.021503 C-3.53564869,88.6494798 33.74187,73.025896 40.2784589,33.5975723 C43.791589,42.7869364 44.403157,55.7448555 42.0975352,68.1024277 C41.3296891,72.2174566 37.4467011,82.1257803 42.0975352,83.5387283 C48.4486742,85.4708671 55.3978371,69.7369942 57.5544739,64.923815 C65.3027385,47.6334104 68.0334365,15.7328324 56.6459776,0 C87.2077086,17.4724855 103.923206,62.6889017 95.2883244,113.503006 C104.182628,100.791676 106.79768,77.5071676 103.471042,56.7520231 C109.725289,67.2388439 113.910414,79.5391908 114.83558,94.4344509 C117.364158,135.055145 99.1984006,166.187861 73.0103707,179.335145 C72.6238431,179.251908 72.5821689,179.513064 72.5550808,179.789827 C79.2312781,168.898266 88.6131689,156.77896 92.5607519,141.652717 L92.5607519,141.652717 Z" id="Shape"></path>
                <path d="M151.068759,135.450503 L151.068759,42.6589595 L190.704087,42.6589595 C208.377633,42.6589595 217.214274,49.8615877 217.214274,64.2670602 C217.214274,74.8224214 210.803378,82.3711218 197.981393,86.9133879 C211.583093,89.2061508 218.383841,96.452038 218.383841,108.651267 C218.383841,126.517514 208.702521,135.450503 189.339592,135.450503 L151.068759,135.450503 Z M188.624857,129.610476 C203.612717,129.610476 211.106535,122.689031 211.106535,108.845935 C211.106535,96.6034459 201.728433,90.4822935 182.971949,90.4822935 L177.773874,90.4822935 L177.773874,85.8751609 C199.432631,83.9284754 210.261847,76.8772538 210.261847,64.7212845 C210.261847,53.9063653 203.59105,48.4989867 190.249256,48.4989867 L157.891234,48.4989867 L157.891234,129.610476 L188.624857,129.610476 Z M240.730368,99.6316694 L240.730368,42.6589595 L247.552843,42.6589595 L247.552843,99.6316694 C247.552843,120.050237 257.732306,130.259368 278.091538,130.259368 C298.45077,130.259368 308.630233,120.050237 308.630233,99.6316694 L308.630233,42.6589595 L315.452708,42.6589595 L315.452708,99.6316694 C315.452708,123.943608 302.999109,136.099395 278.091538,136.099395 C253.183967,136.099395 240.730368,123.943608 240.730368,99.6316694 L240.730368,99.6316694 Z M339.48861,135.450503 L339.48861,42.6589595 L377.824419,42.6589595 C394.631614,42.6589595 403.035086,50.0778829 403.035086,64.9159521 C403.035086,77.7640762 393.916886,86.8701017 375.680212,92.2343016 L407.063595,135.450503 L397.707058,135.450503 L366.843484,92.4289692 L366.843484,87.8218366 C385.90319,85.0099576 395.4329,77.5477752 395.4329,65.4350656 C395.4329,54.274069 389.195272,48.6936543 376.719828,48.6936543 L346.311084,48.6936543 L346.311084,135.450503 L339.48861,135.450503 Z M422.977504,135.450503 L422.977504,42.6589595 L431.749257,42.6589595 L493.801286,123.900227 L493.801286,42.6589595 L499.974001,42.6589595 L499.974001,135.450503 L494.451046,135.450503 L429.150219,50.3158841 L429.150219,135.450503 L422.977504,135.450503 Z M523.360144,98.9827775 L523.360144,42.6589595 L540.57877,42.6589595 L540.57877,98.9827775 C540.57877,113.777587 548.159221,121.174881 563.320351,121.174881 C578.481482,121.174881 586.061933,113.777587 586.061933,98.9827775 L586.061933,42.6589595 L603.280559,42.6589595 L603.280559,98.9827775 C603.280559,123.727313 589.960623,136.099395 563.320351,136.099395 C536.68008,136.099395 523.360144,123.727313 523.360144,98.9827775 L523.360144,98.9827775 Z M626.737742,135.450503 L626.737742,42.6589595 L668.322348,42.6589595 C687.29542,42.6589595 696.781813,51.3756537 696.781813,68.8093036 C696.781813,87.7137825 683.808412,99.1557954 657.861221,103.135686 L655.392135,87.8218366 C670.98644,85.0099576 678.783476,78.8455461 678.783476,69.3284171 C678.783476,61.6281946 674.928275,57.7781411 667.217757,57.7781411 L643.956368,57.7781411 L643.956368,135.450503 L626.737742,135.450503 Z" id="BURNUP"></path>
            </g>
        </g>
    </g>
</svg>