<?xml version="1.0" encoding="UTF-8"?>
<svg width="161px" height="56px" viewBox="0 0 161 56" version="1.1" xmlns="http://www.w3.org/2000/svg" xmlns:xlink="http://www.w3.org/1999/xlink">
    <!-- Generator: Sketch 45.2 (43514) - http://www.bohemiancoding.com/sketch -->
    <title>power-by</title>
    <desc>Created with Sketch.</desc>
    <defs></defs>
    <g id="Page-1" stroke="none" stroke-width="1" fill="none" fill-rule="evenodd">
        <g id="power-by" fill="#FFFFFF">
            <g id="Group-2" transform="translate(10.000000, 5.000000)">
                <g id="logo-square" transform="translate(97.674696, 0.017036)" fill-rule="nonzero">
                    <path d="M23.1781727,46.4700733 C10.5019836,46.4700733 0.225901988,36.0673931 0.225901988,23.2350367 C0.225901988,10.4026803 10.5019836,0 23.1781727,0 C35.8543618,0 46.1304434,10.4026803 46.1304434,23.2350367 C46.1304434,36.0673931 35.8543618,46.4700733 23.1781727,46.4700733 Z M30.9563286,33.3620808 C30.1804732,36.3756318 28.3365625,38.7901208 27.024427,40.96001 C27.029751,40.9048715 27.0379416,40.8528422 27.1139095,40.8694252 C32.2608877,38.2501359 35.8311738,32.0476686 35.3342087,23.9549432 C35.1523772,20.9874102 34.3298354,18.5368531 33.1006298,16.4475988 C33.7544451,20.582577 33.2404845,25.221472 31.4924038,27.7539078 C33.1894979,17.6303833 29.9042449,8.62206754 23.8976623,5.1410825 C26.135746,8.27548223 25.5990564,14.630928 24.0762176,18.0756377 C23.6523536,19.0345513 22.2865697,22.1691583 21.038321,21.7842248 C20.1242492,21.5027278 20.8874091,19.5287256 21.038321,18.7089021 C21.4914664,16.2469442 21.3712692,13.6653812 20.680801,11.8346148 C19.3961041,19.6897882 12.0696049,22.8024227 12.8180218,32.6386463 C13.0747973,36.0103906 15.4396307,39.506093 19.430095,38.5179518 C24.6657366,37.2215735 27.2992219,30.5259683 28.7225449,25.4928118 C28.9914016,30.8910023 27.5043967,34.9930217 25.8634083,38.1562345 C27.8400068,36.900692 29.7432994,35.0892033 30.9563286,33.3620808 Z" id="Combined-Shape"></path>
                </g>
                <g id="Group" transform="translate(0.779642, 8.195312)">
                    <path d="M1.22484528,14.3579086 L7.67229474,14.3579086 L7.67229474,15.4466599 L0,15.4466599 L0,3.402348 L7.46815386,3.402348 L7.46815386,4.49109936 L1.22484528,4.49109936 L1.22484528,8.64196392 L7.0598721,8.64196392 L7.0598721,9.71370354 L1.22484528,9.71370354 L1.22484528,14.3579086 Z M18.6108436,13.6604272 L18.644867,13.6604272 L18.644867,3.402348 L19.8697123,3.402348 L19.8697123,15.4466599 L18.3386557,15.4466599 L11.3298188,5.08651026 L11.2957954,5.08651026 L11.2957954,15.4466599 L10.0709501,15.4466599 L10.0709501,3.402348 L11.6020067,3.402348 L18.6108436,13.6604272 Z M24.2927647,15.4466599 L23.0679194,15.4466599 L23.0679194,3.402348 L30.3319324,3.402348 L30.3319324,4.49109936 L24.2927647,4.49109936 L24.2927647,8.6759874 L29.9066389,8.6759874 L29.9066389,9.74772702 L24.2927647,9.74772702 L24.2927647,15.4466599 Z M33.8533626,14.3579086 L39.4672368,14.3579086 L39.4672368,15.4466599 L32.6285173,15.4466599 L32.6285173,3.402348 L33.8533626,3.402348 L33.8533626,14.3579086 Z M41.219446,15.4466599 L39.8755186,15.4466599 L45.081111,3.402348 L46.2719328,3.402348 L51.4435018,15.4466599 L50.0825626,15.4466599 L48.7556468,12.2824763 L42.52935,12.2824763 L41.219446,15.4466599 Z M42.988667,11.1597014 L48.2963299,11.1597014 L45.6424984,4.7632872 L42.988667,11.1597014 Z M59.1668317,13.3712276 L59.1838435,13.3712276 L63.2156258,3.402348 L65.0869172,3.402348 L65.0869172,15.4466599 L63.862072,15.4466599 L63.862072,4.98443982 L63.8280485,4.98443982 L59.473043,15.4466599 L58.8265969,15.4466599 L54.4715915,4.98443982 L54.437568,4.98443982 L54.437568,15.4466599 L53.2127227,15.4466599 L53.2127227,3.402348 L55.0840141,3.402348 L59.1668317,13.3712276 Z M74.2392333,13.3712276 L74.2562451,13.3712276 L78.2880275,3.402348 L80.1593189,3.402348 L80.1593189,15.4466599 L78.9344736,15.4466599 L78.9344736,4.98443982 L78.9004501,4.98443982 L74.5454447,15.4466599 L73.8989985,15.4466599 L69.5439931,4.98443982 L69.5099696,4.98443982 L69.5099696,15.4466599 L68.2851244,15.4466599 L68.2851244,3.402348 L70.1564158,3.402348 L74.2392333,13.3712276 Z M84.5823713,14.3579086 L91.0298207,14.3579086 L91.0298207,15.4466599 L83.357526,15.4466599 L83.357526,3.402348 L90.8256798,3.402348 L90.8256798,4.49109936 L84.5823713,4.49109936 L84.5823713,8.64196392 L90.4173981,8.64196392 L90.4173981,9.71370354 L84.5823713,9.71370354 L84.5823713,14.3579086 Z M87.2702262,2.44969056 L86.2665335,2.44969056 L87.9677075,0 L89.5157759,0 L87.2702262,2.44969056 Z" id="ENFLAMMÉ"></path>
                    <path d="M59.3654962,28.5107164 L58.347886,28.5107164 L62.2895155,19.3908679 L63.1911954,19.3908679 L67.1070625,28.5107164 L66.0765712,28.5107164 L65.0718421,26.114824 L60.3573442,26.114824 L59.3654962,28.5107164 Z M60.705135,25.2646686 L64.7240513,25.2646686 L62.7145931,20.4213593 L60.705135,25.2646686 Z M70.8554748,27.3127702 L70.8812371,27.3127702 L73.8438997,19.3908679 L74.8357477,19.3908679 L71.3449582,28.5107164 L70.3659914,28.5107164 L66.8880831,19.3908679 L67.8928122,19.3908679 L70.8554748,27.3127702 Z M77.0126606,27.6863233 L81.8946134,27.6863233 L81.8946134,28.5107164 L76.0852184,28.5107164 L76.0852184,19.3908679 L81.7400397,19.3908679 L81.7400397,20.215261 L77.0126606,20.215261 L77.0126606,23.3582596 L81.4308923,23.3582596 L81.4308923,24.1697716 L77.0126606,24.1697716 L77.0126606,27.6863233 Z M91.388015,27.0422662 C91.2334405,27.2741279 91.0466658,27.4931051 90.8276853,27.6992044 C90.6087048,27.9053037 90.3553782,28.0856379 90.067698,28.2402124 C89.7800177,28.3947869 89.462286,28.5171565 89.1144935,28.6073249 C88.7667009,28.6974934 88.386711,28.7425769 87.9745124,28.7425769 C87.2875147,28.7425769 86.6520514,28.6223541 86.0681034,28.381905 C85.4841554,28.1414558 84.9817959,27.8086963 84.5610098,27.3836165 C84.1402237,26.9585367 83.8117579,26.4540303 83.5756024,25.8700823 C83.339447,25.2861343 83.221371,24.6463773 83.221371,23.9507921 C83.221371,23.255207 83.3415938,22.61545 83.582043,22.031502 C83.8224922,21.447554 84.1552517,20.9430476 84.5803315,20.5179678 C85.0054113,20.092888 85.5077708,19.7601285 86.0874251,19.5196793 C86.6670794,19.2792301 87.2961022,19.1590074 87.9745124,19.1590074 C88.3094238,19.1590074 88.6378896,19.1933567 88.9599198,19.2620565 C89.2819499,19.3307563 89.5846537,19.4273639 89.8680403,19.5518822 C90.1514268,19.6764005 90.4090471,19.826679 90.6409088,20.0027221 C90.8727705,20.1787653 91.0659857,20.378421 91.2205602,20.6016952 L90.4476917,21.1684655 C90.3532295,21.0224785 90.2265662,20.8764937 90.067698,20.7305067 C89.9088298,20.5845197 89.7220551,20.4557095 89.5073683,20.3440724 C89.2926815,20.2324353 89.0586765,20.1422682 88.8053461,20.0735684 C88.5520157,20.0048687 88.2793676,19.9705193 87.9873936,19.9705193 C87.3948581,19.9705193 86.8645897,20.0778611 86.3965725,20.2925478 C85.9285554,20.5072346 85.5313908,20.7970574 85.2050669,21.1620249 C84.878743,21.5269924 84.6297101,21.949919 84.4579607,22.4308174 C84.2862113,22.9117158 84.2003378,23.4183689 84.2003378,23.9507921 C84.2003378,24.4832153 84.2883581,24.9898685 84.4644012,25.4707669 C84.6404444,25.9516653 84.8916241,26.3745919 85.217948,26.7395594 C85.5442719,27.1045269 85.9414365,27.3943497 86.4094537,27.6090364 C86.8774708,27.8237232 87.4034455,27.931065 87.9873936,27.931065 C88.5112293,27.931065 89.0092951,27.8237232 89.481606,27.6090364 C89.9539169,27.3943497 90.3489346,27.050856 90.6666711,26.5785451 L91.388015,27.0422662 Z" id="AVEC"></path>
                </g>
            </g>
        </g>
    </g>
</svg>